<svg width="20" height="22" viewBox="0 0 20 22" fill="none" xmlns="http://www.w3.org/2000/svg">
<path d="M15.5181 15.2871C14.3378 16.2973 12.8623 16.8321 11.3279 16.7727C7.78687 16.7727 5.13105 14.2174 5.13105 10.7708C5.13105 7.26477 7.66882 4.88774 11.3279 4.88774C12.8623 4.88774 14.3968 5.42263 15.5772 6.37342L16.3444 7.02709L19.7674 3.69928L18.8821 2.92672C16.8165 1.14402 14.1018 0.133789 11.2689 0.133789C4.89496 0.133789 0.232544 4.59063 0.232544 10.7708C0.232544 16.951 5.01301 21.5266 11.2689 21.5266C14.1018 21.5861 16.8165 20.5758 18.9412 18.7337L19.7674 17.9611L16.2854 14.6334L15.5181 15.2871Z" fill="white"/>
<path d="M10.6279 15.2262C13.4021 15.2262 15.6512 13.2584 15.6512 10.8309C15.6512 8.40341 13.4021 6.43555 10.6279 6.43555C7.85371 6.43555 5.60468 8.40341 5.60468 10.8309C5.60468 13.2584 7.85371 15.2262 10.6279 15.2262Z" fill="#FF3D2E"/>
</svg>
