<svg width="24" height="25" viewBox="0 0 24 25" fill="none" xmlns="http://www.w3.org/2000/svg">
<path d="M6 7.83203H11C11.2652 7.83203 11.5196 7.93739 11.7071 8.12492C11.8946 8.31246 12 8.56681 12 8.83203C12 9.09725 11.8946 9.3516 11.7071 9.53914C11.5196 9.72667 11.2652 9.83203 11 9.83203H6C5.73478 9.83203 5.48043 9.72667 5.29289 9.53914C5.10536 9.3516 5 9.09725 5 8.83203C5 8.56681 5.10536 8.31246 5.29289 8.12492C5.48043 7.93739 5.73478 7.83203 6 7.83203ZM13 15.832H18C18.2652 15.832 18.5196 15.9374 18.7071 16.1249C18.8946 16.3125 19 16.5668 19 16.832C19 17.0972 18.8946 17.3516 18.7071 17.5391C18.5196 17.7267 18.2652 17.832 18 17.832H13C12.7348 17.832 12.4804 17.7267 12.2929 17.5391C12.1054 17.3516 12 17.0972 12 16.832C12 16.5668 12.1054 16.3125 12.2929 16.1249C12.4804 15.9374 12.7348 15.832 13 15.832ZM6 11.832H18C18.2652 11.832 18.5196 11.9374 18.7071 12.1249C18.8946 12.3125 19 12.5668 19 12.832C19 13.0972 18.8946 13.3516 18.7071 13.5391C18.5196 13.7267 18.2652 13.832 18 13.832H6C5.73478 13.832 5.48043 13.7267 5.29289 13.5391C5.10536 13.3516 5 13.0972 5 12.832C5 12.5668 5.10536 12.3125 5.29289 12.1249C5.48043 11.9374 5.73478 11.832 6 11.832Z" fill="#FF3D00"/>
</svg>
