<svg width="24" height="18" viewBox="0 0 24 18" fill="none" xmlns="http://www.w3.org/2000/svg">
<path d="M18.5434 7.03587C15.5298 7.03587 13.0868 9.47891 13.0868 12.4925C13.0868 15.5062 15.5298 17.9492 18.5434 17.9492C21.5571 17.9492 24.0001 15.5062 24.0001 12.4925C24.0001 9.47891 21.5571 7.03587 18.5434 7.03587Z" fill="#FF3D00"/>
<path d="M14.4732 13.1162C14.4732 13.1162 12.04 3.61234 21.4253 1.71321" stroke="#FF3D00" stroke-width="2" stroke-linecap="round"/>
<path d="M5.4567 7.03587C2.44306 7.03587 2.95639e-05 9.47891 2.95639e-05 12.4925C2.95639e-05 15.5062 2.44306 17.9492 5.4567 17.9492C8.47034 17.9492 10.9134 15.5062 10.9134 12.4925C10.9134 9.47891 8.47034 7.03587 5.4567 7.03587Z" fill="#FF3D00"/>
<path d="M1.38647 13.1162C1.38647 13.1162 -1.04671 3.61234 8.33858 1.71321" stroke="#FF3D00" stroke-width="2" stroke-linecap="round"/>
</svg>
