<svg width="381" height="267" viewBox="0 0 381 267" fill="none" xmlns="http://www.w3.org/2000/svg">
<path d="M374.278 266.62H25.3597C21.6476 266.62 18.6367 263.609 18.6367 259.897C18.6367 256.185 21.6476 253.174 25.3597 253.174H374.278C377.99 253.174 381 256.185 381 259.897C381 263.609 377.99 266.62 374.278 266.62Z" fill="#FF7129"/>
<path d="M340.711 185.966H121.391C110.689 185.966 102.016 177.289 102.016 166.586V20.211C102.016 9.50865 110.689 0.831055 121.391 0.831055H340.711C351.413 0.831055 360.086 9.50865 360.086 20.211V166.586C360.086 177.289 351.413 185.966 340.711 185.966Z" fill="#F5F5F5"/>
<path opacity="0.5" d="M360.086 28.9675H102.016V20.211C102.016 9.50865 110.689 0.831055 121.391 0.831055H340.711C351.413 0.831055 360.086 9.50865 360.086 20.211V28.9675Z" fill="#D6D6D6"/>
<path d="M316.904 19.1503H164.235C161.89 19.1503 159.988 17.2482 159.988 14.8991C159.988 12.5544 161.89 10.6523 164.235 10.6523H316.904C319.253 10.6523 321.155 12.5544 321.155 14.8991C321.155 17.2482 319.253 19.1503 316.904 19.1503Z" fill="#F5F5F5"/>
<path d="M120.546 14.8997C120.546 16.8193 118.994 18.3708 117.075 18.3708C115.159 18.3708 113.604 16.8193 113.604 14.8997C113.604 12.9845 115.159 11.4287 117.075 11.4287C118.994 11.4287 120.546 12.9845 120.546 14.8997Z" fill="#F5F5F5"/>
<path d="M133.505 14.8997C133.505 16.8193 131.953 18.3708 130.034 18.3708C128.118 18.3708 126.562 16.8193 126.562 14.8997C126.562 12.9845 128.118 11.4287 130.034 11.4287C131.953 11.4287 133.505 12.9845 133.505 14.8997Z" fill="#F5F5F5"/>
<path d="M146.251 14.8997C146.251 16.8193 144.695 18.3708 142.776 18.3708C140.861 18.3708 139.305 16.8193 139.305 14.8997C139.305 12.9845 140.861 11.4287 142.776 11.4287C144.695 11.4287 146.251 12.9845 146.251 14.8997Z" fill="#F5F5F5"/>
<path d="M249.474 69.498L227.652 91.3148L205.831 69.498L192.666 82.6635L214.487 104.485L192.666 126.301L205.831 139.471L227.652 117.65L249.474 139.471L262.639 126.301L240.818 104.485L262.639 82.6635L249.474 69.498Z" fill="#D6D6D6"/>
<path d="M318.238 253.174H228.867L235.928 152.071C236.348 146.04 241.577 141.149 247.612 141.149H315.143C321.174 141.149 325.719 146.04 325.298 152.071L318.238 253.174Z" fill="#1282D6"/>
<path d="M305.089 253.174H215.719L222.779 152.071C223.2 146.04 228.428 141.149 234.463 141.149H301.995C308.025 141.149 312.57 146.04 312.15 152.071L305.089 253.174Z" fill="#3897E9"/>
<path d="M268.87 141.15C272.205 144.257 273.52 147.202 274.072 149.451C275.194 154.035 274.234 160.175 274.234 160.232C275.956 162.279 278.156 165.035 280.514 168.432C280.514 168.432 285.787 176.022 289.507 183.902C294.144 193.715 301.656 209.628 298.15 226.558C295.463 239.527 286.291 253.174 286.291 253.174H235.443L241.671 141.137L268.87 141.15Z" fill="#1282D6"/>
<path d="M173.728 77.7286C173.978 76.931 178.067 64.3528 187.674 60.071C192.275 58.0243 197.456 57.8271 197.456 57.8271C197.99 57.8096 200.204 57.7395 203.184 58.2303C203.184 58.2303 210.06 59.063 215.078 62.6173C223.9 68.8757 229.015 84.5436 228.073 98.1692C227.739 103.012 226.591 107.991 229.738 111.711C231.438 113.719 234.256 114.385 238.258 115.612C246.563 118.158 260.232 121.375 265.724 132.494C271.219 143.617 271.89 159.294 268.27 163.58C264.654 167.87 178.312 167.467 175.258 164.115C172.199 160.766 166.571 144.555 165.901 131.692C165.305 120.258 173.316 115.52 175.258 101.425C176.607 91.6084 175.157 83.2463 173.728 77.7286Z" fill="#262626"/>
<path d="M222.979 76.4888C224.635 79.7144 227.011 84.9253 228.742 91.6614C231.476 102.311 229.316 104.007 231.823 108.109C237.389 117.217 249.476 111.655 261.033 122.042C267.519 127.871 269.763 135.054 270.521 137.587C273.808 148.579 270.74 158.01 269.443 161.411" stroke="#262626" stroke-width="2" stroke-linecap="round" stroke-linejoin="round"/>
<path d="M176.888 97.7925C175.271 101.439 172.663 107.215 169.254 114.271C163.022 127.165 161.282 129.505 161.755 134.103C162.57 142.061 169.363 150.402 169.363 150.402" stroke="#262626" stroke-width="2" stroke-linecap="round" stroke-linejoin="round"/>
<path d="M190.098 125.749C190.098 125.749 212.252 125.749 212.353 125.749C229.949 125.749 249.224 138.34 260.794 150.646C270.055 160.49 276.83 172.454 281.967 184.949C288.663 201.226 295.22 223.779 287.029 240.626C285.806 243.142 283.036 248.655 277.159 251.631C270.69 254.909 263.937 252.954 261.842 252.954C248.172 252.954 127.045 252.989 127.045 252.989C123.807 221.526 130.043 197.816 134.548 184.883C138.734 172.871 143.629 159.302 156.4 146.417C168.636 134.08 182.122 128.396 190.098 125.749Z" fill="#FEC02D"/>
<path d="M189.08 125.749L173.54 253.533L163.49 253.454L179.057 129.732L189.08 125.749Z" fill="#EAA418"/>
<path d="M201.179 135.154C207.412 135.176 212.482 130.14 212.509 123.908L212.601 99.6199L190.026 99.5322L189.934 123.825C189.912 130.057 194.943 135.128 201.179 135.154Z" fill="#F7A99C"/>
<path d="M189.961 117.024L204.665 109.473C204.516 110.744 203.678 116.708 198.432 120.824C195.089 123.453 191.569 124.054 189.943 124.225L189.961 117.024Z" fill="#FF7769"/>
<path d="M213.151 92.0949C213.221 91.7268 214.19 91.1746 214.488 90.9861C214.99 90.6618 215.526 90.4076 216.096 90.2235C217.2 89.8685 218.41 89.7897 219.541 90.0482C221.793 90.561 223.787 92.4543 224.16 94.7683C224.379 96.1138 224.068 97.5075 223.489 98.7434C222.626 100.597 221.154 102.157 219.379 103.183C217.906 104.029 216.232 104.507 214.54 104.607C214.203 104.629 210.732 104.55 210.758 104.414C211.556 100.309 212.353 96.2029 213.151 92.0949Z" fill="#F7A99C"/>
<path d="M216.244 92.332C215.977 94.142 214.386 103.701 205.77 110.454C204.183 111.699 193.63 119.969 183.975 115.932C171.572 110.748 172.922 90.373 173.01 89.2686C173.308 85.5389 174.176 74.5517 183.278 68.6877C190.702 63.9019 198.749 65.6637 199.893 65.9311C201.094 66.2116 208.754 68.1443 213.444 75.6561C217.695 82.4755 216.683 89.365 216.244 92.332Z" fill="#F7A99C"/>
<path d="M180.051 89.2808C179.849 90.8716 178.622 92.0287 177.312 91.8621C175.997 91.6956 175.094 90.2756 175.296 88.6847C175.493 87.0938 176.72 85.9368 178.035 86.1033C179.345 86.2655 180.248 87.6899 180.051 89.2808Z" fill="#262626"/>
<path d="M194.388 91.0827C194.187 92.6736 192.959 93.8262 191.645 93.6641C190.334 93.4975 189.431 92.0732 189.629 90.4867C189.83 88.8958 191.057 87.7387 192.372 87.9009C193.683 88.0674 194.585 89.4918 194.388 91.0827Z" fill="#262626"/>
<path d="M184.38 91.6611L182.184 94.6282C181.781 95.176 181.93 95.9517 182.513 96.3023L184.529 97.5338" stroke="#262626" stroke-width="2.7" stroke-linecap="round" stroke-linejoin="round"/>
<path d="M199.195 98.5723C198.972 100.36 197.341 101.623 195.558 101.399C193.769 101.176 192.507 99.5496 192.731 97.7615C192.954 95.9778 194.585 94.7112 196.368 94.9348C198.152 95.1626 199.419 96.7886 199.195 98.5723Z" fill="#FF7769"/>
<path d="M214.66 100.255C214.651 99.8997 214.62 97.4761 216.566 95.7275C218.087 94.3557 219.862 94.268 220.344 94.2593" stroke="#262626" stroke-width="2.7" stroke-linecap="round" stroke-linejoin="round"/>
<path d="M216.381 96.2059C216.49 96.1884 217.792 96.0087 218.704 96.9948C219.449 97.8056 219.383 98.8048 219.37 98.9713" stroke="#262626" stroke-width="2.7" stroke-linecap="round" stroke-linejoin="round"/>
<path d="M174.701 93.4223C174.083 93.3434 173.487 93.4574 172.961 93.694C173.022 95.4427 173.193 97.5639 173.575 99.8166C173.68 99.8385 173.78 99.8735 173.89 99.8867C175.674 100.11 177.304 98.8436 177.528 97.0599C177.751 95.2762 176.485 93.6458 174.701 93.4223Z" fill="#FF7769"/>
<path d="M181.395 103.48C181.771 103.025 182.942 101.727 184.962 101.219C187.254 100.649 189.09 101.482 189.586 101.723" stroke="#262626" stroke-width="2.7" stroke-linecap="round" stroke-linejoin="round"/>
<path d="M171.998 83.6536H186.202C186.202 83.6536 186.737 79.0299 188.144 76.7553C189.55 74.4763 191.698 73.0695 191.698 73.0695C191.374 73.8847 191.005 74.9672 190.725 76.2688C190.523 77.198 190.256 78.4295 190.274 80.0379C190.274 80.0379 190.278 80.6471 190.624 83.6536H202.952C202.668 82.9041 202.063 80.9933 202.584 78.6311C203.04 76.5668 204.123 75.2082 204.666 74.6122C204.245 78.3068 204.714 81.2563 205.161 83.1189C205.941 86.3664 207.239 88.7549 208.212 90.5387C209.141 92.2523 210.057 93.6196 210.758 94.597C210.758 94.597 212.432 92.4845 213.786 91.6606C215.145 90.8411 216.53 90.1004 216.53 90.1004C216.841 88.4832 217.121 86.0333 216.683 83.1189C215.789 77.1235 212.467 73.2098 211.073 71.746C206.358 66.7848 200.717 65.6716 198.662 65.2991C194.279 64.4971 190.764 65.1633 189.55 65.4306C188.604 65.641 186.404 66.1888 183.84 67.5255C182.065 68.4546 177.029 71.1543 174.045 77.0709C173.335 78.4733 172.414 80.7041 171.998 83.6536Z" fill="#262626"/>
<path d="M187.091 126.805C187.091 126.805 173.338 183.144 171.73 202.037C170.121 220.931 169.521 253.533 169.521 253.533L127.045 252.99C126.181 246.889 125.406 238.593 125.704 228.767C126.405 205.802 132.541 188.727 134.951 182.539C140.626 167.976 147.485 150.388 165.301 137.521C173.536 131.569 181.551 128.479 187.091 126.805Z" fill="#FDB6D6"/>
<path d="M159.067 162.375L141.379 253.174H151.967L159.067 162.375Z" fill="#FF94CA"/>
<path d="M162.15 146.164C161.181 151.624 159.66 160.753 158.302 172.161C156.641 186.129 156.89 189.481 154.156 225.191C153.336 235.893 151.969 253.174 151.969 253.174" stroke="#262626" stroke-width="2" stroke-linecap="round" stroke-linejoin="round"/>
<path d="M200.72 232.886C202.329 234.552 203.254 236.152 203.788 237.26C205.462 240.74 205.524 244.049 205.563 246.385C205.585 247.779 205.506 248.936 205.427 249.738C205.427 249.738 184.658 243.037 181.577 243.304C178.864 243.541 165.331 247.003 162.149 247.822C161.706 247.936 161.246 247.923 160.812 247.787L156.254 246.385L151.955 246.569C150.412 246.635 149.356 245.057 149.987 243.646C150.139 243.295 150.352 242.914 150.627 242.502C152.503 239.688 154.379 237.677 154.379 237.677L147.489 238.921C146.823 238.921 145.727 238.829 145.355 238.159C144.794 237.16 146.17 235.477 147.108 234.346C149.29 231.725 151.67 230.314 152.437 229.871C155.128 228.311 157.635 226.856 161.746 225.62C164.989 224.643 173.912 221.807 184.895 224.599C192.091 226.422 197.377 230.033 200.72 232.886Z" fill="#F7A99C"/>
<path d="M199.625 231.983C199.717 232.685 200.199 236.966 197.122 240.626C193.695 244.706 188.712 244.605 188.107 244.579L205.428 249.737C205.428 249.737 205.555 243.54 205.252 242.02C204.945 240.494 203.876 236.975 202.78 235.472C201.68 233.964 199.625 231.983 199.625 231.983Z" fill="#FF7769"/>
<path d="M156.254 246.385C158.248 244.207 161.684 240.981 166.781 238.435C171.589 236.037 175.967 235.191 178.833 234.863" stroke="#262626" stroke-width="2" stroke-linecap="round" stroke-linejoin="round"/>
<path d="M151.955 246.569C155.097 241.213 158.577 238.426 161.145 236.874C161.145 236.874 163.043 235.726 173.005 231.983" stroke="#262626" stroke-width="2" stroke-linecap="round" stroke-linejoin="round"/>
<path d="M154.068 237.734C156.593 234.004 159.231 232.273 161.146 231.379C164.552 229.792 169.723 228.968 169.723 228.968" stroke="#262626" stroke-width="2" stroke-linecap="round" stroke-linejoin="round"/>
<path d="M214.662 125.749C214.662 125.749 210.319 158.018 209.718 177.314C209.113 196.611 208.495 229.573 208.495 229.573L200.721 232.886C200.721 232.886 204.433 243.843 204.665 247.257C204.893 250.675 204.665 253.533 204.665 253.533C216.034 253.309 225.272 253.59 231.623 253.892C237.026 254.146 245.073 254.195 261.17 254.291C266.894 254.326 271.728 254.3 277.158 251.631C277.802 251.315 283.254 248.563 287.299 243.036C289.916 239.46 294.027 231.874 291.717 213.09C290.748 205.188 287.383 180.461 268.204 157.014C257.248 143.621 246.436 137.126 243.425 135.395C234.305 130.153 226.28 128.014 224.615 127.585C220.644 126.559 217.208 126.038 214.662 125.749Z" fill="#FDB6D6"/>
<path d="M240.761 187.43C240.967 192.478 240.62 201.542 235.979 211.35C233.494 216.596 230.479 220.58 227.941 223.402C233.478 221.974 239.016 220.546 244.556 219.12L240.761 187.43Z" fill="#FF94CA"/>
<path d="M263.449 214.901C263.449 214.901 214.934 226.826 208.495 229.574C202.057 232.317 200.721 232.887 200.721 232.887" stroke="#262626" stroke-width="2" stroke-linecap="round" stroke-linejoin="round"/>
<path d="M267.199 164.654C267.199 164.654 291.049 209.541 283.945 227.895C282.862 230.704 280.461 236.774 274.461 241.188C268.833 245.32 262.772 245.973 252.324 246.254C243.186 246.495 231.033 246.442 216.549 245.316" stroke="white" stroke-width="2" stroke-linecap="round" stroke-linejoin="round"/>
<path d="M260.222 148.319C250.383 152.215 245.799 157.466 243.48 161.033C243.48 161.033 236.372 171.986 245.128 219.484" stroke="#262626" stroke-width="2" stroke-linecap="round" stroke-linejoin="round"/>
<path d="M202.938 254.3H137.83V246.499H206.3V250.934C206.3 252.792 204.797 254.3 202.938 254.3Z" fill="#374ACC"/>
<path d="M144.956 254.3H55.1164C53.0609 254.3 51.1939 252.635 50.9441 250.579L42.7837 183.854C42.5339 181.798 43.9933 180.133 46.0487 180.133H135.888C137.944 180.133 139.811 181.798 140.06 183.854L148.221 250.579C148.471 252.635 147.011 254.3 144.956 254.3Z" fill="#374ACC"/>
<path d="M139.696 254.3H49.8566C47.8012 254.3 45.9342 252.635 45.6844 250.579L37.5239 183.854C37.2741 181.798 38.7335 180.133 40.789 180.133H130.628C132.684 180.133 134.551 181.798 134.801 183.854L142.961 250.579C143.211 252.635 141.751 254.3 139.696 254.3Z" fill="#4450E4"/>
<path d="M37.524 183.854C38.1771 183.674 40.5568 204.478 54.1517 223.205C56.5052 226.444 60.7475 232.203 67.9526 237.813C67.9526 237.813 75.2803 243.514 102.588 254.3C101.119 254.3 99.6477 254.3 98.1751 254.3C94.5522 254.3 90.9306 254.3 87.3106 254.3C82.7264 254.3 78.1436 254.3 73.5623 254.3C69.2031 254.3 64.8438 254.3 60.4846 254.3C58.1472 254.3 55.8098 254.3 53.4724 254.3C51.6098 254.3 49.2914 254.716 47.626 253.678C46.2498 252.814 45.6494 251.114 45.4522 249.501C45.312 248.362 45.3295 247.209 45.2024 246.069C45.0753 244.939 44.8562 243.817 44.7159 242.686C44.415 240.22 44.114 237.753 43.8131 235.284C43.3193 231.246 42.8256 227.208 42.3318 223.17C41.8 218.814 41.2683 214.459 40.7365 210.106C40.2398 206.062 39.7446 202.018 39.2508 197.974C38.8739 194.872 38.5496 191.76 38.1113 188.661C37.6117 185.107 37.3663 183.898 37.524 183.854Z" fill="#5D6FF4"/>
<path d="M40.791 180.133H130.63C132.686 180.133 134.553 181.798 134.803 183.854L142.963 250.579" stroke="#262626" stroke-width="2" stroke-linecap="round" stroke-linejoin="round"/>
<path d="M92.842 215.356C92.842 218.218 90.5236 220.532 87.6661 220.532C84.8086 220.532 82.4902 218.218 82.4902 215.356C82.4902 212.499 84.8086 210.18 87.6661 210.18C90.5236 210.18 92.842 212.499 92.842 215.356Z" fill="#FEC02D"/>
<path d="M284.617 147.233H294.592C298.97 147.233 302.428 150.958 302.099 155.323L299.054 195.871" stroke="white" stroke-width="2" stroke-linecap="round" stroke-linejoin="round"/>
<path d="M113.918 194.193H10.1684C5.10651 194.193 1 190.086 1 185.024V115.779C1 110.717 5.10651 106.615 10.1684 106.615H113.918C118.98 106.615 123.087 110.717 123.087 115.779V185.024C123.087 190.086 118.98 194.193 113.918 194.193Z" fill="#F5F5F5"/>
<path opacity="0.5" d="M123.087 119.925H1V115.779C1 110.717 5.10651 106.615 10.1684 106.615H113.918C118.98 106.615 123.087 110.717 123.087 115.779V119.925Z" fill="#D6D6D6"/>
<path d="M102.661 115.279H30.4394C29.3262 115.279 28.4277 114.381 28.4277 113.267C28.4277 112.159 29.3262 111.26 30.4394 111.26H102.661C103.769 111.26 104.668 112.159 104.668 113.267C104.668 114.381 103.769 115.279 102.661 115.279Z" fill="#F5F5F5"/>
<path d="M9.76891 113.268C9.76891 114.175 9.03263 114.911 8.12543 114.911C7.21823 114.911 6.48633 114.175 6.48633 113.268C6.48633 112.36 7.21823 111.628 8.12543 111.628C9.03263 111.628 9.76891 112.36 9.76891 113.268Z" fill="#F5F5F5"/>
<path d="M15.9002 113.268C15.9002 114.175 15.164 114.911 14.2568 114.911C13.3496 114.911 12.6133 114.175 12.6133 113.268C12.6133 112.36 13.3496 111.628 14.2568 111.628C15.164 111.628 15.9002 112.36 15.9002 113.268Z" fill="#F5F5F5"/>
<path d="M21.9271 113.268C21.9271 114.175 21.1952 114.911 20.288 114.911C19.3808 114.911 18.6445 114.175 18.6445 113.268C18.6445 112.36 19.3808 111.628 20.288 111.628C21.1952 111.628 21.9271 112.36 21.9271 113.268Z" fill="#F5F5F5"/>
<path d="M70.757 139.094L60.436 149.42L50.1105 139.094L43.8828 145.326L54.2039 155.647L43.8828 165.969L50.1105 172.196L60.436 161.875L70.757 172.196L76.9847 165.969L66.6637 155.647L76.9847 145.326L70.757 139.094Z" fill="#D6D6D6"/>
<path d="M113.918 194.193H10.1684C5.10651 194.193 1 190.086 1 185.024V115.779C1 110.717 5.10651 106.615 10.1684 106.615H113.918C118.98 106.615 123.087 110.717 123.087 115.779V185.024C123.087 190.086 118.98 194.193 113.918 194.193Z" stroke="#262626" stroke-width="2" stroke-linecap="round" stroke-linejoin="round"/>
<path d="M156.701 59.0591L170.261 64.682" stroke="#FF7129" stroke-width="2" stroke-linecap="round" stroke-linejoin="round"/>
<path d="M156.117 44.2148L173.28 60.5138" stroke="#FF7129" stroke-width="2" stroke-linecap="round" stroke-linejoin="round"/>
<path d="M171.025 43.9741L177.341 57.2272" stroke="#FF7129" stroke-width="2" stroke-linecap="round" stroke-linejoin="round"/>
<path d="M335.244 116.787C336.474 113.564 337.71 111.061 338.952 109.279C340.194 107.5 341.839 106.062 343.887 104.967C345.082 104.295 346.334 103.801 347.643 103.485C348.952 103.173 350.195 102.787 351.372 102.328C352.547 101.87 353.622 101.263 354.598 100.51C355.577 99.7528 356.369 98.5827 356.973 96.9991C357.993 94.3227 357.968 92.1694 356.899 90.5391C355.83 88.9117 354.284 87.7123 352.262 86.9409C349.367 85.8365 347.066 85.8818 345.359 87.0768C343.65 88.2718 342.138 90.1826 340.823 92.8093L330.248 88.7773C331.268 86.1009 332.632 83.8366 334.342 81.9842C336.051 80.1318 338.003 78.7469 340.197 77.8295C342.394 76.915 344.782 76.4811 347.362 76.5278C349.942 76.5717 352.6 77.1151 355.334 78.1582C361.233 80.4079 365.433 83.3866 367.934 87.0943C370.43 90.802 370.646 95.3614 368.583 100.773C367.917 102.52 367.156 103.982 366.3 105.16C365.444 106.334 364.458 107.319 363.341 108.113C362.225 108.908 360.97 109.573 359.577 110.108C358.183 110.639 356.643 111.148 354.957 111.633C353.4 112.103 352.103 112.592 351.066 113.101C350.023 113.612 349.145 114.233 348.432 114.963C347.713 115.691 347.117 116.512 346.644 117.426C346.17 118.341 345.704 119.399 345.246 120.6L335.244 116.787ZM328.881 132.485L332.979 121.748L344.045 125.968L339.947 136.706L328.881 132.485Z" fill="#FFB199"/>
<path d="M49.9131 61.2722C49.1272 59.2679 48.648 57.5952 48.4756 56.2541C48.3032 54.9101 48.4596 53.5558 48.9446 52.1914C49.2163 51.3821 49.5888 50.6297 50.0621 49.9343C50.5325 49.2419 50.943 48.5421 51.2937 47.8351C51.6443 47.1309 51.8882 46.399 52.0256 45.6394C52.16 44.8826 52.0343 44.0119 51.6486 43.0273C50.9971 41.3619 50.0826 40.3773 48.9051 40.0734C47.7306 39.7696 46.5137 39.8631 45.2544 40.3539C43.4546 41.0581 42.4115 42.0441 42.1252 43.3122C41.836 44.5802 41.9397 46.0966 42.4364 47.8614L35.8624 50.434C35.2109 48.7686 34.891 47.1499 34.9027 45.578C34.9143 44.009 35.2357 42.5525 35.8668 41.2085C36.495 39.8645 37.4154 38.6622 38.6279 37.6016C39.8375 36.541 41.2911 35.6776 42.9886 35.0115C46.6583 33.5769 49.8474 33.1927 52.5559 33.8589C55.2643 34.5221 57.2759 36.5352 58.5907 39.8981C59.0173 40.985 59.2788 41.9799 59.3752 42.8827C59.4745 43.7855 59.4322 44.6533 59.2481 45.486C59.067 46.3216 58.766 47.1543 58.3453 47.9841C57.9275 48.8168 57.4308 49.6977 56.8552 50.6268C56.3322 51.4975 55.9378 52.2688 55.6719 52.9408C55.406 53.6128 55.2599 54.2673 55.2336 54.9042C55.2103 55.5412 55.2804 56.1693 55.444 56.7888C55.6076 57.4111 55.8355 58.0948 56.1277 58.8398L49.9131 61.2722ZM53.5595 71.1901L50.9474 64.5153L57.8281 61.8244L60.4358 68.4991L53.5595 71.1901Z" fill="#FFB199"/>
<path d="M357.219 253.174H329.254L327.387 223.402H359.082L357.219 253.174Z" fill="#FEC02D"/>
<path d="M355.29 223.403H331.182V198.019C331.182 191.361 336.577 185.966 343.234 185.966C349.891 185.966 355.29 191.361 355.29 198.019V223.403Z" fill="#94E261"/>
<mask id="mask0_2459_4586" style="mask-type:luminance" maskUnits="userSpaceOnUse" x="331" y="185" width="25" height="39">
<path d="M355.29 223.403H331.182V198.019C331.182 191.361 336.577 185.966 343.234 185.966C349.891 185.966 355.29 191.361 355.29 198.019V223.403Z" fill="white"/>
</mask>
<g mask="url(#mask0_2459_4586)">
<path d="M335.587 189.639C335.587 193.014 333.562 193.014 333.562 196.388C333.562 199.767 335.587 199.767 335.587 203.142C335.587 206.517 333.562 206.517 333.562 209.891C333.562 213.27 335.587 213.27 335.587 216.649C335.587 220.024 333.562 220.024 333.562 223.403" stroke="#262626" stroke-linecap="round" stroke-linejoin="round"/>
<path d="M340.891 186.47C340.891 190.16 338.674 190.16 338.674 193.855C338.674 197.545 340.891 197.545 340.891 201.24C340.891 204.93 338.674 204.93 338.674 208.624C338.674 212.319 340.891 212.319 340.891 216.014C340.891 219.708 338.674 219.708 338.674 223.403" stroke="#262626" stroke-linecap="round" stroke-linejoin="round"/>
<path d="M348.686 186.777C348.686 190.436 346.49 190.436 346.49 194.1C346.49 197.76 348.686 197.76 348.686 201.424C348.686 205.083 346.49 205.083 346.49 208.747C346.49 212.411 348.686 212.411 348.686 216.075C348.686 219.739 346.49 219.739 346.49 223.402" stroke="#262626" stroke-linecap="round" stroke-linejoin="round"/>
<path d="M354.134 191.19C354.134 194.411 352.201 194.411 352.201 197.632C352.201 200.854 354.134 200.854 354.134 204.075C354.134 207.292 352.201 207.292 352.201 210.513C352.201 213.734 354.134 213.734 354.134 216.955C354.134 220.181 352.201 220.181 352.201 223.402" stroke="#262626" stroke-linecap="round" stroke-linejoin="round"/>
</g>
<path d="M359.082 223.402L357.219 253.174H329.254C332.988 252.161 340.338 249.624 347.236 243.142C355.173 235.674 358.056 227.154 359.082 223.402Z" fill="#EAA418"/>
<path d="M357.483 228.131C356.347 230.954 354.428 234.837 351.202 238.851C347.977 242.861 344.593 245.561 342.082 247.275" stroke="#262626" stroke-linecap="round" stroke-linejoin="round"/>
</svg>
