<svg width="36" height="40" viewBox="0 0 36 40" fill="none" xmlns="http://www.w3.org/2000/svg">
  <g clip-path="url(#clip0_1576_6627)">
    <path fill-rule="evenodd" clip-rule="evenodd"
      d="M20.4636 38.8595L35.7114 22.3279H28.6401L20.4636 38.8595ZM16.9282 1.59872C16.9282 1.05063 17.3837 0.605957 17.9449 0.605957C18.5062 0.605957 18.9617 1.05066 18.9617 1.59872V6.11279C18.9617 6.66089 18.5062 7.10556 17.9449 7.10556C17.3837 7.10556 16.9282 6.66085 16.9282 6.11279V1.59872ZM11.8361 7.02071C12.2141 7.42407 12.1854 8.04935 11.7723 8.41688C11.3592 8.78598 10.7201 8.7579 10.3424 8.35454L6.78101 4.55712C6.403 4.15376 6.43176 3.52974 6.84485 3.16095C7.25668 2.79185 7.89702 2.81993 8.27472 3.22205L11.8361 7.01947V7.02071ZM25.5473 8.35604C25.1693 8.7594 24.5306 8.78593 24.1175 8.41838C23.7044 8.04928 23.6772 7.42435 24.0536 7.02222L27.615 3.22479C27.993 2.82268 28.633 2.7949 29.0449 3.16369C29.4579 3.53279 29.4851 4.15645 29.1087 4.55986L25.5473 8.35728V8.35604ZM35.8878 20.3418L29.987 12.405L29.1305 20.3418H35.8878ZM28.077 11.2073H19.3572L27.2223 19.126L28.077 11.2073ZM16.531 11.2073H7.81118L8.66608 19.126L16.531 11.2073ZM5.90086 12.4044L0 20.3411H6.75706L5.90086 12.4044ZM0.178006 22.3273L15.4258 38.8589L7.24966 22.3273H0.178006ZM10.2846 20.3417H25.6044L17.9446 12.6302L10.2846 20.3417ZM26.386 22.3273H9.50303L17.9445 39.3938L26.386 22.3273Z"
      fill="#FF3D00" />
  </g>
  <defs>
    <clipPath id="clip0_1576_6627">
      <rect width="36" height="40" fill="white" />
    </clipPath>
  </defs>
</svg>