<svg width="40" height="40" viewBox="0 0 40 40" fill="none" xmlns="http://www.w3.org/2000/svg">
  <path
    d="M6.58004 22.1967C6.43083 22.604 6.12866 22.9372 5.73774 23.1253C5.34681 23.3134 4.89795 23.3416 4.48651 23.2041C4.07508 23.0665 3.7335 22.7739 3.53436 22.3885C3.33522 22.0031 3.29421 21.5552 3.42004 21.14C3.48109 20.9571 3.55004 20.7736 3.62671 20.5967C3.76004 20.28 3.95671 19.8433 4.22671 19.3267C4.77671 18.2933 5.63338 16.9167 6.89671 15.54C9.44671 12.7567 13.6234 10 20 10C26.3767 10 30.5534 12.7567 33.1034 15.54C34.4635 17.034 35.5672 18.7426 36.37 20.5967L36.5234 20.9733C36.5334 21 36.5667 21.1733 36.6 21.34L36.6667 21.6667C36.6667 21.6667 36.9467 22.7767 35.5267 23.2467C35.1085 23.3863 34.652 23.3546 34.2572 23.1584C33.8624 22.9622 33.5613 22.6176 33.42 22.2V22.19L33.4 22.1367L33.2967 21.8767C32.6419 20.3792 31.7468 18.9988 30.6467 17.79C28.6134 15.58 25.29 13.3333 20 13.3333C14.71 13.3333 11.3867 15.5767 9.35338 17.7933C8.2536 19.0011 7.35849 20.3803 6.70338 21.8767L6.60338 22.1367L6.58004 22.1967ZM13.3334 23.3333C13.3334 21.5652 14.0358 19.8695 15.286 18.6193C16.5362 17.369 18.2319 16.6667 20 16.6667C21.7682 16.6667 23.4638 17.369 24.7141 18.6193C25.9643 19.8695 26.6667 21.5652 26.6667 23.3333C26.6667 25.1014 25.9643 26.7971 24.7141 28.0474C23.4638 29.2976 21.7682 30 20 30C18.2319 30 16.5362 29.2976 15.286 28.0474C14.0358 26.7971 13.3334 25.1014 13.3334 23.3333Z"
    fill="#FF3D00" />
</svg>