<svg width="40" height="40" viewBox="0 0 40 40" fill="none" xmlns="http://www.w3.org/2000/svg">
  <g clip-path="url(#clip0_1576_6604)">
    <path fill-rule="evenodd" clip-rule="evenodd"
      d="M34.9979 5.45615L34.1053 1.12591C34.0818 1.01118 34.0266 0.904794 33.9456 0.818116C33.8646 0.731437 33.7608 0.66772 33.6453 0.633766C33.5299 0.59981 33.4072 0.596894 33.2901 0.625327C33.1731 0.65376 33.0662 0.712475 32.9809 0.795202L29.3201 4.34517C29.1036 4.55524 28.9319 4.80461 28.8149 5.07902C28.6979 5.35344 28.6378 5.64751 28.6379 5.94447V8.8821L21.0151 16.2766C20.4228 16.1234 19.8022 16.1043 19.2012 16.2205C18.6001 16.3367 18.0346 16.5854 17.5482 16.947C17.0619 17.3089 16.6677 17.7741 16.3962 18.3069C16.1247 18.8398 15.9829 19.426 15.9819 20.0204C15.9839 20.5709 16.1067 21.1149 16.3424 21.6159C16.5781 22.1169 16.9212 22.5634 17.3487 22.9257C17.7763 23.288 18.2787 23.5578 18.8222 23.7172C19.3658 23.8765 19.9381 23.9217 20.5011 23.8497C21.0641 23.7777 21.6048 23.5902 22.0872 23.2998C22.5696 23.0092 22.9826 22.6223 23.2987 22.1649C23.6148 21.7075 23.8268 21.19 23.9204 20.6469C24.0142 20.1038 23.9874 19.5475 23.8421 19.0153L31.4622 11.6234H34.4943C34.8006 11.6236 35.1038 11.5653 35.3868 11.4518C35.6698 11.3383 35.9269 11.1718 36.1436 10.962L39.8018 7.41199C39.8872 7.32929 39.9477 7.22567 39.9771 7.1122C40.0063 6.99872 40.0033 6.87965 39.9683 6.76771C39.9333 6.65578 39.8676 6.55514 39.7782 6.4766C39.6888 6.39804 39.5792 6.34449 39.4608 6.32168L34.9953 5.45615H34.9979Z"
      fill="#FF3D00" />
    <path fill-rule="evenodd" clip-rule="evenodd"
      d="M3.99245 20.0203C3.9916 17.6187 4.5662 15.2497 5.67091 13.1003C6.77564 10.9508 8.38027 9.07965 10.3582 7.63435C12.3362 6.18906 14.6335 5.20918 17.0688 4.77198C19.504 4.33479 22.0107 4.45224 24.3913 5.11509C24.8996 5.25341 25.4439 5.19091 25.905 4.94129C26.3661 4.69166 26.7066 4.27519 26.852 3.78289C26.9974 3.2906 26.9359 2.7625 26.681 2.31401C26.4261 1.86553 25.9985 1.53312 25.4916 1.38943C21.2344 0.205588 16.6921 0.426711 12.5785 2.01806C8.46493 3.60942 5.01306 6.48084 2.76521 10.1812C0.517354 13.8816 -0.399114 18.2012 0.159783 22.4616C0.718679 26.7218 2.72126 30.6815 5.85295 33.7182C8.98462 36.755 13.0679 38.6969 17.4614 39.2389C21.8549 39.7809 26.3095 38.8921 30.1255 36.7124C33.9415 34.5326 36.9026 31.1853 38.5437 27.1965C40.1849 23.2075 40.4129 18.8029 39.192 14.6747C39.1209 14.4289 39.0004 14.199 38.8374 13.9984C38.6744 13.798 38.472 13.6306 38.2421 13.5061C38.0121 13.3816 37.7591 13.3024 37.4975 13.2731C37.2359 13.2438 36.9709 13.2649 36.7178 13.3352C36.4646 13.4055 36.2282 13.5237 36.0224 13.6828C35.8165 13.842 35.645 14.039 35.5179 14.2627C35.3908 14.4863 35.3105 14.7321 35.2816 14.986C35.2529 15.2398 35.276 15.4966 35.35 15.7417C35.9781 17.8731 36.1276 20.1103 35.7884 22.3024C35.4491 24.4946 34.629 26.5907 33.3833 28.4493C32.1375 30.308 30.4953 31.886 28.5672 33.0769C26.6391 34.2677 24.4701 35.0437 22.2064 35.3526C19.9428 35.6615 17.6371 35.4959 15.445 34.8673C13.2529 34.2386 11.2253 33.1614 9.49906 31.7083C7.7728 30.255 6.388 28.4598 5.43808 26.4435C4.48814 24.4273 3.99519 22.237 3.99245 20.0203Z"
      fill="#FF3D00" />
    <path fill-rule="evenodd" clip-rule="evenodd"
      d="M11.9862 20.0204C11.9862 18.9271 12.2247 17.8461 12.6861 16.8486C13.1475 15.851 13.8212 14.9592 14.6632 14.2321C15.5052 13.5049 16.4962 12.9587 17.5714 12.6294C18.6465 12.3001 19.7814 12.195 20.9012 12.321C21.1649 12.3557 21.4329 12.339 21.6897 12.2718C21.9465 12.2047 22.1869 12.0885 22.3969 11.9302C22.6067 11.7718 22.7819 11.5744 22.9121 11.3495C23.0424 11.1246 23.1249 10.8767 23.1551 10.6205C23.1852 10.3643 23.1622 10.1047 23.0877 9.85721C23.0131 9.60966 22.8882 9.37904 22.7205 9.17888C22.5527 8.97871 22.3456 8.81302 22.111 8.69155C21.8764 8.57006 21.6191 8.49519 21.3542 8.47138C18.881 8.19427 16.3801 8.67067 14.1987 9.83443C12.0173 10.9982 10.2636 12.7916 9.18104 14.9657C8.09847 17.1398 7.74071 19.5867 8.15742 21.967C8.57414 24.3472 9.74464 26.5426 11.5065 28.2486C13.2684 29.9544 15.5341 31.0861 17.9894 31.4865C20.4446 31.887 22.9675 31.5363 25.2079 30.4834C27.4484 29.4303 29.2951 27.727 30.4919 25.6099C31.6887 23.4929 32.1762 21.067 31.8866 18.6692C31.8595 18.4141 31.7804 18.1669 31.6539 17.9417C31.5274 17.7164 31.3561 17.5179 31.1499 17.3574C30.9437 17.1969 30.7067 17.0777 30.4526 17.0066C30.1986 16.9356 29.9325 16.9141 29.6699 16.9436C29.4071 16.9729 29.1531 17.0526 28.9224 17.1779C28.6917 17.3032 28.489 17.4717 28.3259 17.6735C28.1629 17.8754 28.0427 18.1065 27.9725 18.3538C27.9022 18.6009 27.8832 18.8592 27.9167 19.1135C28.0454 20.163 27.9515 21.2269 27.6406 22.2398C27.3297 23.2528 26.8085 24.1934 26.109 25.0038C25.4095 25.8143 24.5464 26.4774 23.5729 26.9526C22.5994 27.4277 21.5359 27.7048 20.4479 27.7667C19.3599 27.8287 18.2702 27.6741 17.2461 27.3128C16.2219 26.9514 15.2847 26.3906 14.4922 25.6652C13.6997 24.9396 13.0686 24.0647 12.6376 23.0939C12.2067 22.1232 11.985 21.0773 11.9862 20.0204Z"
      fill="#FF3D00" />
  </g>
  <defs>
    <clipPath id="clip0_1576_6604">
      <rect width="40" height="40" fill="white" />
    </clipPath>
  </defs>
</svg>