<svg width="14" height="15" viewBox="0 0 14 15" fill="none" xmlns="http://www.w3.org/2000/svg">
<path d="M6.61453 1.22208C6.72285 0.831173 7.27715 0.831173 7.38547 1.22208L8.10882 3.83235C8.18219 4.09712 8.49452 4.2108 8.72092 4.05514L10.9529 2.52051C11.2871 2.29069 11.7117 2.64698 11.5435 3.01606L10.4197 5.4806C10.3057 5.73059 10.4719 6.01844 10.7454 6.04472L13.4416 6.3038C13.8454 6.3426 13.9417 6.88847 13.5755 7.06304L11.1305 8.22866C10.8825 8.34689 10.8248 8.67422 11.0174 8.87014L12.9163 10.8017C13.2006 11.091 12.9235 11.571 12.5308 11.4694L9.90857 10.7907C9.64259 10.7218 9.38797 10.9355 9.40958 11.2094L9.62263 13.9096C9.65453 14.314 9.13367 14.5036 8.89818 14.1733L7.32569 11.9678C7.16619 11.7441 6.83381 11.7441 6.67431 11.9678L5.10182 14.1733C4.86633 14.5036 4.34547 14.314 4.37737 13.9096L4.59042 11.2094C4.61203 10.9355 4.35741 10.7218 4.09143 10.7907L1.4692 11.4694C1.0765 11.571 0.799352 11.091 1.08372 10.8017L2.98261 8.87014C3.17523 8.67422 3.11751 8.34689 2.8695 8.22866L0.424494 7.06304C0.0583364 6.88847 0.154589 6.3426 0.558367 6.3038L3.25459 6.04472C3.52808 6.01844 3.69427 5.73059 3.58028 5.4806L2.45654 3.01606C2.28826 2.64698 2.71287 2.29069 3.04712 2.52051L5.27908 4.05514C5.50548 4.2108 5.81781 4.09712 5.89118 3.83235L6.61453 1.22208Z" fill="#FF3D00"/>
</svg>
