<svg width="30" height="30" viewBox="0 0 30 30" fill="none" xmlns="http://www.w3.org/2000/svg">
<mask id="mask0_1641_3779" style="mask-type:luminance" maskUnits="userSpaceOnUse" x="0" y="0" width="30" height="30">
<path d="M29.6296 0H0V29.6296H29.6296V0Z" fill="white"/>
</mask>
<g mask="url(#mask0_1641_3779)">
<path fill-rule="evenodd" clip-rule="evenodd" d="M0.352008 11.098L6.28904 3.03872C6.34976 2.95648 6.42685 2.8877 6.51545 2.83671C6.60405 2.78572 6.70225 2.75361 6.80385 2.74243L14.7335 1.86095C14.7876 1.85495 14.8423 1.85495 14.8964 1.86095L22.826 2.7415C22.9276 2.75269 23.0259 2.78479 23.1145 2.83578C23.203 2.88678 23.2802 2.95556 23.3409 3.03779L29.2788 11.098C29.3782 11.2333 29.4286 11.3983 29.4219 11.566C29.4151 11.7338 29.3517 11.8942 29.2418 12.0211L15.2362 28.2174C15.1841 28.2778 15.1195 28.3262 15.0471 28.3594C14.9745 28.3926 14.8957 28.4097 14.8159 28.4097C14.7361 28.4097 14.6573 28.3926 14.5848 28.3594C14.5122 28.3262 14.4477 28.2778 14.3955 28.2174L0.387193 12.0211C0.277476 11.8941 0.21415 11.7336 0.207589 11.5659C0.201029 11.3981 0.252548 11.2332 0.352008 11.098ZM16.8575 4.24335L22.4566 9.53222C22.5109 9.58367 22.5794 9.6174 22.6533 9.62912C22.727 9.64091 22.8027 9.63 22.8702 9.59794C22.9377 9.56589 22.994 9.51417 23.0315 9.44952C23.0691 9.38495 23.0862 9.31047 23.0807 9.23592L22.8122 5.48224C22.8084 5.43631 22.8219 5.39064 22.85 5.35413C22.8781 5.31762 22.9188 5.2929 22.9642 5.2848C23.0096 5.2767 23.0563 5.2858 23.0953 5.31033C23.1343 5.33485 23.1628 5.37303 23.1751 5.41742L24.4029 9.71559C24.4443 9.8603 24.5203 9.99276 24.6243 10.1015C24.7284 10.2103 24.8574 10.292 25.0001 10.3396L27.6205 11.2128C27.6623 11.2266 27.6979 11.2547 27.7208 11.2923C27.7437 11.3299 27.7525 11.3743 27.7456 11.4178C27.7387 11.4612 27.7165 11.5008 27.6831 11.5295C27.6497 11.558 27.6071 11.5738 27.5631 11.5739H25.0446C24.8889 11.574 24.7358 11.6133 24.5994 11.6882C24.4629 11.7632 24.3476 11.8713 24.264 12.0026L17.3992 22.7897C17.3608 22.8485 17.3015 22.8906 17.2333 22.9074C17.165 22.9243 17.093 22.9147 17.0315 22.8806C16.9701 22.8464 16.924 22.7902 16.9023 22.7233C16.8807 22.6565 16.8852 22.5839 16.915 22.5202L21.8353 12.3721C21.8765 12.2874 21.8953 12.1936 21.8903 12.0996C21.8852 12.0056 21.8563 11.9143 21.8063 11.8345C21.7563 11.7547 21.6869 11.6889 21.6045 11.6433C21.5221 11.5977 21.4295 11.5739 21.3353 11.5739H8.29456C8.20041 11.5739 8.10782 11.5977 8.0254 11.6433C7.94305 11.6889 7.87357 11.7547 7.82356 11.8345C7.77362 11.9143 7.74471 12.0056 7.73963 12.0996C7.73455 12.1936 7.75351 12.2874 7.79458 12.3721L12.715 22.5202C12.7459 22.584 12.7513 22.6572 12.7299 22.7248C12.7086 22.7924 12.6623 22.8493 12.6004 22.8839C12.5385 22.9184 12.4657 22.928 12.397 22.9107C12.3283 22.8933 12.2688 22.8503 12.2307 22.7906L5.36589 12.0035C5.28233 11.8719 5.1669 11.7635 5.03028 11.6884C4.89367 11.6134 4.74031 11.574 4.58441 11.5739H1.98904C1.94504 11.5738 1.90251 11.558 1.86908 11.5295C1.83564 11.5008 1.81348 11.4612 1.80657 11.4178C1.79966 11.3743 1.80845 11.3299 1.83137 11.2923C1.85429 11.2547 1.88983 11.2266 1.93164 11.2128L4.62423 10.3378C4.76852 10.2908 4.89905 10.2091 5.00432 10.0997C5.10958 9.9904 5.18638 9.85693 5.22793 9.71094L6.45478 5.41742C6.46714 5.37303 6.49561 5.33485 6.53461 5.31033C6.57362 5.2858 6.62037 5.2767 6.66573 5.2848C6.71109 5.2929 6.7518 5.31762 6.77991 5.35413C6.80802 5.39064 6.82151 5.43631 6.81775 5.48224L6.54922 9.23592C6.54369 9.31047 6.56084 9.38495 6.59841 9.44952C6.63598 9.51417 6.69221 9.56589 6.75973 9.59794C6.82725 9.63 6.90288 9.64091 6.97669 9.62912C7.0505 9.6174 7.11905 9.58367 7.17332 9.53222L12.7724 4.24335C12.8062 4.20919 12.852 4.18952 12.9001 4.18851C12.9481 4.1875 12.9947 4.20523 13.0299 4.23794C13.0652 4.27065 13.0863 4.31578 13.0889 4.36379C13.0914 4.4118 13.0752 4.45893 13.0437 4.4952L9.28716 9.11835C9.24316 9.17269 9.21533 9.23835 9.20703 9.30777C9.1988 9.3772 9.21032 9.44757 9.2403 9.51074C9.27035 9.5739 9.31764 9.62723 9.37674 9.66461C9.43584 9.70205 9.50431 9.72192 9.57421 9.72205H20.0557C20.1257 9.72192 20.1941 9.70205 20.2532 9.66461C20.3123 9.62723 20.3595 9.5739 20.3896 9.51074C20.4196 9.44757 20.4312 9.3772 20.4229 9.30777C20.4146 9.23835 20.3868 9.17269 20.3427 9.11835L16.5863 4.4952C16.5547 4.45893 16.5385 4.4118 16.5411 4.36379C16.5436 4.31578 16.5647 4.27065 16.6 4.23794C16.6352 4.20523 16.6818 4.1875 16.7299 4.18851C16.778 4.18952 16.8237 4.20919 16.8575 4.24335Z" fill="black"/>
</g>
</svg>
