<svg width="30" height="30" viewBox="0 0 30 30" fill="none" xmlns="http://www.w3.org/2000/svg">
<mask id="mask0_1641_3788" style="mask-type:luminance" maskUnits="userSpaceOnUse" x="0" y="0" width="30" height="30">
<path d="M29.6296 0H0V29.6296H29.6296V0Z" fill="white"/>
</mask>
<g mask="url(#mask0_1641_3788)">
<path fill-rule="evenodd" clip-rule="evenodd" d="M26.9444 0.000129002H2.6858C1.97349 0.000129002 1.29034 0.283097 0.786651 0.786782C0.282967 1.29047 0 1.97361 0 2.68593V26.9439C-6.73401e-10 27.6563 0.282967 28.3394 0.786651 28.8431C1.29034 29.3468 1.97349 29.6297 2.6858 29.6297H26.9438C27.6561 29.6297 28.3393 29.3468 28.8429 28.8431C29.3466 28.3394 29.6296 27.6563 29.6296 26.9439V2.68531C29.6296 1.973 29.3466 1.28985 28.8429 0.786163C28.3393 0.282479 27.6561 -0.000488281 26.9438 -0.000488281L26.9444 0.000129002ZM9.90308 9.32232C10.8877 9.32232 11.713 8.55074 11.713 7.53842C11.713 6.52729 10.8877 5.75568 9.90308 5.75568C8.9179 5.75568 8.09318 6.52729 8.09318 7.53842C8.09318 8.55074 8.9179 9.32232 9.90308 9.32232ZM6.15 18.8736C6.04739 19.3128 5.99357 19.7621 5.98951 20.2131C5.98951 21.7841 6.84133 22.8267 8.65184 22.8267C10.1531 22.8267 11.3704 21.9353 12.2463 20.4958L11.7111 22.6433H14.6926L16.3963 15.81C16.8222 14.0798 17.6469 13.1816 18.8982 13.1816C19.8827 13.1816 20.4951 13.794 20.4951 14.8051C20.4951 15.0983 20.4685 15.4174 20.3617 15.7637L19.4834 18.9045C19.3582 19.3369 19.2957 19.7851 19.2976 20.2353C19.2976 21.7267 20.1753 22.8168 22.0124 22.8168C23.5827 22.8168 24.8333 21.8063 25.5259 19.3835L24.3549 18.9316C23.7685 20.5544 23.2629 20.8476 22.8642 20.8476C22.4648 20.8476 22.2518 20.5823 22.2518 20.0495C22.2518 19.81 22.305 19.5445 22.3846 19.2242L23.2364 16.1643C23.4494 15.4458 23.5296 14.8088 23.5296 14.223C23.5296 11.9341 22.145 10.7396 20.4679 10.7396C18.8982 10.7396 17.3013 12.1557 16.5025 13.647L17.0877 10.9711H12.5364L11.8976 13.3279H14.0272L12.7161 18.5779C11.6858 20.8668 9.79446 20.9038 9.55682 20.8507C9.16726 20.7631 8.9179 20.6149 8.9179 20.1082C8.9179 19.8162 8.97096 19.3964 9.10429 18.8903L11.1006 10.9705H6.04321L5.40432 13.3279H7.50739L6.15 18.8736Z" fill="#FF2A63"/>
</g>
</svg>
