<svg width="29" height="29" viewBox="0 0 29 29" fill="none" xmlns="http://www.w3.org/2000/svg">
<rect width="29" height="29" rx="4" fill="#010059"/>
<path d="M10.1416 10.0306C10.1696 10.0304 10.1696 10.0304 10.1982 10.0303C10.2289 10.0305 10.2289 10.0305 10.2603 10.0306C10.2821 10.0306 10.304 10.0305 10.3258 10.0305C10.385 10.0303 10.4443 10.0305 10.5035 10.0307C10.5655 10.0309 10.6275 10.0308 10.6895 10.0308C10.7936 10.0308 10.8977 10.0309 11.0018 10.0312C11.1222 10.0316 11.2425 10.0316 11.3629 10.0315C11.4787 10.0314 11.5944 10.0315 11.7102 10.0317C11.7595 10.0318 11.8087 10.0318 11.858 10.0318C11.9161 10.0317 11.9741 10.0319 12.0321 10.0321C12.0636 10.0322 12.0951 10.0322 12.1265 10.0321C12.1546 10.0323 12.1546 10.0323 12.1833 10.0324C12.1996 10.0325 12.2158 10.0325 12.2326 10.0325C12.2769 10.0368 12.3029 10.0438 12.3396 10.0689C12.356 10.107 12.3685 10.142 12.3798 10.1816C12.401 10.2515 12.423 10.3192 12.4506 10.3868C12.4884 10.4797 12.5207 10.5741 12.553 10.669C12.6383 10.9173 12.7277 11.164 12.8204 11.4097C12.85 11.4884 12.8785 11.5675 12.9065 11.6467C12.9103 11.6576 12.9141 11.6685 12.9181 11.6797C12.9371 11.7338 12.9556 11.7881 12.9734 11.8427C13.0047 11.9368 13.0395 12.0296 13.074 12.1226C13.1324 12.2803 13.1897 12.4381 13.2418 12.5981C13.2709 12.6872 13.3033 12.7748 13.3367 12.8624C13.36 12.9236 13.3818 12.9851 13.4019 13.0474C13.4275 13.1259 13.4569 13.2023 13.4875 13.279C13.541 13.4139 13.5874 13.5507 13.6324 13.6887C13.6576 13.7656 13.6833 13.8419 13.7122 13.9175C13.7406 13.9923 13.7674 14.0677 13.7946 14.143C13.801 14.1606 13.8073 14.1783 13.8139 14.1965C13.8563 14.3144 13.8972 14.4326 13.9355 14.5518C13.9584 14.6222 13.9859 14.6893 14.0151 14.7572C14.0269 14.7916 14.0383 14.8262 14.0493 14.8609C14.0839 14.9672 14.1225 15.0716 14.1621 15.1761C14.2206 15.3306 14.2771 15.4856 14.3323 15.6413C14.338 15.6574 14.338 15.6574 14.3438 15.6737C14.3923 15.8107 14.4395 15.948 14.4847 16.086C14.5076 16.1554 14.5331 16.2229 14.5611 16.2904C14.5863 16.3547 14.6087 16.4199 14.6314 16.4851C14.6714 16.6006 14.7123 16.7157 14.7542 16.8305C14.8598 17.1199 14.9639 17.4099 15.0666 17.7004C15.1152 17.8376 15.1644 17.9746 15.2144 18.1113C15.2522 18.2147 15.2892 18.3181 15.3232 18.4229C15.332 18.4499 15.3412 18.4768 15.3508 18.5037C15.3952 18.6295 15.3952 18.6295 15.3846 18.6883C15.333 18.7227 15.3197 18.7246 15.2605 18.7248C15.2449 18.725 15.2294 18.7251 15.2133 18.7253C15.1963 18.7252 15.1792 18.7252 15.1617 18.7252C15.1437 18.7253 15.1257 18.7254 15.1072 18.7255C15.0476 18.7258 14.9881 18.7259 14.9285 18.7259C14.8872 18.726 14.8458 18.7262 14.8045 18.7263C14.7179 18.7265 14.6312 18.7265 14.5445 18.7265C14.4444 18.7265 14.3442 18.7268 14.244 18.7273C14.1477 18.7278 14.0513 18.7279 13.9549 18.7279C13.9139 18.7279 13.8729 18.7281 13.8319 18.7283C13.7746 18.7286 13.7174 18.7286 13.6601 18.7284C13.6431 18.7285 13.626 18.7287 13.6085 18.7289C13.4936 18.7279 13.4936 18.7279 13.4412 18.6899C13.4186 18.6555 13.4033 18.6252 13.3903 18.5861C13.3857 18.5726 13.3811 18.5592 13.3764 18.5453C13.3718 18.5314 13.3673 18.5174 13.3626 18.503C13.3581 18.4896 13.3535 18.4761 13.3488 18.4623C13.3344 18.4195 13.3203 18.3767 13.3062 18.3339C13.2623 18.2012 13.2172 18.0691 13.1713 17.9371C13.1288 17.8149 13.0868 17.6925 13.0464 17.5696C13.0137 17.4701 12.9784 17.3717 12.9417 17.2736C12.8977 17.1555 12.8586 17.0369 12.8229 16.9161C12.8054 16.8601 12.7879 16.8042 12.7703 16.7482C12.7584 16.7066 12.7584 16.7066 12.7584 16.6744C11.727 16.6744 10.6956 16.6744 9.63289 16.6744C9.62226 16.7329 9.61162 16.7914 9.60067 16.8516C9.58524 16.8895 9.56907 16.9271 9.55234 16.9644C9.52174 17.0562 9.49508 17.1492 9.46794 17.2421C9.41367 17.4267 9.35412 17.6093 9.29287 17.7917C9.24515 17.9339 9.19843 18.0763 9.15258 18.2191C9.14654 18.2378 9.14051 18.2565 9.13429 18.2757C9.10887 18.3548 9.08382 18.4339 9.06101 18.5137C9.05751 18.5258 9.054 18.5378 9.05039 18.5502C9.04167 18.5806 9.03329 18.611 9.02495 18.6415C8.99908 18.7009 8.97972 18.7191 8.924 18.7528C8.86885 18.7621 8.81442 18.7612 8.7586 18.7606C8.73367 18.7607 8.73367 18.7607 8.70824 18.7608C8.65339 18.7609 8.59855 18.7605 8.54369 18.7602C8.50559 18.7601 8.4675 18.7601 8.4294 18.7601C8.34962 18.7601 8.26984 18.7598 8.19005 18.7594C8.0876 18.7588 7.98515 18.7587 7.8827 18.7587C7.80407 18.7587 7.72544 18.7586 7.64681 18.7583C7.60902 18.7582 7.57123 18.7582 7.53344 18.7581C7.48075 18.7581 7.42806 18.7578 7.37537 18.7574C7.35178 18.7575 7.35178 18.7575 7.32772 18.7575C7.31342 18.7573 7.29912 18.7572 7.28439 18.7571C7.2657 18.757 7.2657 18.757 7.24663 18.7569C7.21622 18.7528 7.21622 18.7528 7.184 18.7205C7.17304 18.6106 7.20163 18.528 7.2414 18.4265C7.25341 18.3947 7.26541 18.3628 7.2774 18.331C7.28343 18.3151 7.28946 18.2992 7.29568 18.2829C7.32024 18.2177 7.34339 18.152 7.36626 18.0862C7.37075 18.0733 7.37525 18.0604 7.37988 18.0471C7.42649 17.9132 7.47234 17.7791 7.51832 17.645C7.58507 17.4504 7.65272 17.2562 7.7207 17.0621C7.72538 17.0487 7.73006 17.0354 7.73488 17.0216C7.74854 16.9826 7.76222 16.9436 7.7759 16.9046C7.78032 16.892 7.78474 16.8794 7.78929 16.8664C7.81057 16.8057 7.83194 16.7451 7.85348 16.6845C7.91373 16.515 7.97098 16.3446 8.02707 16.1737C8.06532 16.0572 8.10416 15.9417 8.15086 15.8283C8.18414 15.7447 8.21224 15.6591 8.24129 15.5738C8.24829 15.5534 8.25529 15.533 8.2623 15.5126C8.27685 15.4702 8.29139 15.4277 8.30591 15.3853C8.34128 15.2819 8.37687 15.1787 8.41247 15.0754C8.41921 15.0559 8.42594 15.0363 8.43288 15.0162C8.59125 14.5572 8.59125 14.5572 8.67384 14.3403C8.67807 14.3292 8.68229 14.318 8.68665 14.3066C8.69486 14.2849 8.70312 14.2633 8.71144 14.2418C8.73313 14.1847 8.75239 14.1275 8.76962 14.0689C8.79784 13.973 8.83061 13.8788 8.86358 13.7845C8.86998 13.7661 8.87638 13.7477 8.88296 13.7288C8.89592 13.6916 8.9089 13.6544 8.92189 13.6172C8.93802 13.571 8.95409 13.5248 8.97013 13.4785C9.01897 13.338 9.06911 13.1981 9.12036 13.0585C9.16086 12.9481 9.1993 12.8378 9.23194 12.7248C9.25037 12.6655 9.2724 12.6079 9.29456 12.55C9.36367 12.3671 9.42813 12.1832 9.48925 11.9975C9.52328 11.8946 9.55941 11.7929 9.59828 11.6918C9.63284 11.6013 9.6632 11.5095 9.69332 11.4174C9.71941 11.3382 9.74779 11.2603 9.77789 11.1825C9.83085 11.0451 9.87185 10.9044 9.91279 10.763C9.92129 10.7347 9.93088 10.7068 9.9407 10.6789C9.95765 10.6246 9.96531 10.5725 9.97223 10.516C9.97359 10.505 9.97495 10.494 9.97636 10.4827C9.98365 10.4203 9.98855 10.3582 9.99124 10.2954C9.9918 10.2823 9.99236 10.2692 9.99293 10.2557C9.99388 10.2302 9.99462 10.2048 9.99511 10.1793C9.99812 10.0927 9.99812 10.0927 10.0224 10.0575C10.0633 10.0285 10.0917 10.0306 10.1416 10.0306Z" fill="#9A96FE"/>
<path d="M11.1478 11.5513C11.1584 11.5513 11.1691 11.5513 11.18 11.5513C11.1879 11.5797 11.1879 11.5797 11.196 11.6087C11.3695 12.244 11.3695 12.244 11.5669 12.872C11.6114 13.0038 11.651 13.1367 11.6886 13.2707C11.7145 13.3621 11.7443 13.4511 11.7774 13.5402C11.7976 13.5959 11.8144 13.6522 11.8305 13.7092C11.8374 13.7328 11.8442 13.7565 11.8511 13.7801C11.8564 13.7985 11.8564 13.7985 11.8618 13.8171C11.9391 14.0839 12.0233 14.3477 12.1165 14.6094C12.2273 14.921 12.2273 14.921 12.2273 15.0152C11.5361 15.0152 10.8449 15.0152 10.1328 15.0152C10.1437 14.9498 10.1519 14.9042 10.1747 14.8451C10.1825 14.8246 10.1825 14.8246 10.1904 14.8036C10.1988 14.7817 10.1988 14.7817 10.2073 14.7594C10.2735 14.5822 10.3265 14.4026 10.3781 14.2208C10.3956 14.16 10.4146 14.0997 10.4339 14.0394C10.4657 13.9389 10.4936 13.838 10.5196 13.7359C10.5385 13.6673 10.5609 13.6002 10.5839 13.5329C10.6327 13.3901 10.6805 13.2477 10.7199 13.102C10.7488 12.995 10.7806 12.8893 10.8145 12.7838C10.8192 12.769 10.824 12.7543 10.8288 12.7392C10.8387 12.7084 10.8486 12.6775 10.8585 12.6467C10.974 12.286 11.0797 11.9243 11.1478 11.5513Z" fill="#02015B"/>
<path d="M19.6861 12.0992C19.7005 12.1023 19.715 12.1054 19.7299 12.1086C19.9076 12.1471 20.0693 12.1991 20.2339 12.2764C20.2714 12.2926 20.309 12.3087 20.3467 12.3248C20.3732 12.3364 20.3997 12.3482 20.4262 12.36C20.4449 12.3683 20.4449 12.3683 20.4639 12.3768C20.4776 12.3829 20.4776 12.3829 20.4917 12.3892C20.4917 12.3998 20.4917 12.4105 20.4917 12.4214C20.5059 12.4256 20.5202 12.4298 20.5349 12.4341C20.8482 12.5489 21.1621 12.9207 21.3294 13.1948C21.341 13.2402 21.341 13.2402 21.3455 13.2753C21.3562 13.2753 21.3668 13.2753 21.3778 13.2753C21.387 13.2939 21.3963 13.3125 21.4059 13.3317C21.4288 13.3774 21.4518 13.4231 21.475 13.4686C21.4859 13.4901 21.4968 13.5116 21.5077 13.5331C21.5131 13.5437 21.5186 13.5544 21.5242 13.5653C21.5613 13.6389 21.5919 13.7132 21.6194 13.7909C21.6233 13.8015 21.6272 13.8121 21.6312 13.823C21.8267 14.361 21.84 14.9255 21.7994 15.492C21.7975 15.5195 21.7957 15.5471 21.794 15.5746C21.7913 15.6191 21.788 15.6636 21.7846 15.7081C21.7838 15.7217 21.783 15.7353 21.7822 15.7493C21.7763 15.8162 21.7734 15.8439 21.7249 15.8934C21.6724 15.9243 21.6429 15.9358 21.5826 15.9382C21.5618 15.9391 21.5618 15.9391 21.5406 15.94C21.5261 15.9406 21.5115 15.9411 21.4966 15.9417C21.3832 15.9461 21.3832 15.9461 21.2704 15.9582C21.1746 15.9712 21.0776 15.9683 20.9812 15.968C20.9471 15.9679 20.913 15.968 20.8789 15.9681C20.8567 15.9681 20.8344 15.968 20.8121 15.968C20.7923 15.968 20.7726 15.968 20.7522 15.9679C20.7017 15.9671 20.6521 15.9628 20.6018 15.9579C20.4706 15.9468 20.3395 15.9469 20.2079 15.9464C20.1798 15.9463 20.1517 15.9461 20.1236 15.946C20.0478 15.9455 19.972 15.9452 19.8962 15.9449C19.8168 15.9445 19.7374 15.9441 19.658 15.9436C19.5079 15.9428 19.3578 15.9421 19.2076 15.9414C19.0366 15.9406 18.8656 15.9397 18.6946 15.9388C18.3431 15.937 17.9915 15.9353 17.64 15.9336C17.6451 15.9568 17.6502 15.98 17.6554 16.0032C17.6582 16.0161 17.6611 16.0291 17.664 16.0424C17.7459 16.4062 17.9087 16.785 18.2243 17.0065C18.2571 17.0258 18.2571 17.0258 18.3005 17.0453C18.3005 17.0559 18.3005 17.0666 18.3005 17.0775C18.3136 17.0816 18.3266 17.0856 18.34 17.0897C18.3827 17.1047 18.4228 17.1205 18.464 17.1388C18.633 17.2141 18.7958 17.2674 18.9772 17.3031C18.9932 17.3065 19.0091 17.3099 19.0255 17.3135C19.1486 17.3395 19.2695 17.3539 19.3953 17.3541C19.4072 17.3542 19.419 17.3543 19.4312 17.3543C19.4691 17.3545 19.5071 17.3545 19.5451 17.3544C19.5581 17.3544 19.5712 17.3544 19.5846 17.3544C19.9153 17.3537 20.2308 17.3142 20.5561 17.2548C20.5694 17.2524 20.5827 17.25 20.5963 17.2475C20.7051 17.2271 20.8105 17.1975 20.9166 17.1661C20.9338 17.1612 20.9509 17.1562 20.9686 17.1511C21.0552 17.1272 21.0552 17.1272 21.1374 17.092C21.1683 17.0775 21.1683 17.0775 21.2328 17.0775C21.253 17.1399 21.2513 17.2024 21.2512 17.2673C21.2513 17.2861 21.2513 17.2861 21.2514 17.3053C21.2515 17.3468 21.2516 17.3883 21.2516 17.4298C21.2516 17.4587 21.2517 17.4876 21.2517 17.5165C21.2518 17.577 21.2519 17.6376 21.2519 17.6982C21.2519 17.7757 21.2521 17.8531 21.2524 17.9306C21.2525 17.9903 21.2526 18.05 21.2526 18.1097C21.2526 18.1382 21.2526 18.1668 21.2528 18.1953C21.2529 18.2354 21.2529 18.2754 21.2528 18.3154C21.2529 18.3271 21.253 18.3388 21.2531 18.3508C21.2526 18.427 21.2438 18.4892 21.2167 18.5598C21.2007 18.5651 21.1848 18.5704 21.1683 18.5759C21.1683 18.5865 21.1683 18.5971 21.1683 18.6081C20.8118 18.7367 20.465 18.8356 20.0899 18.8908C20.058 18.8955 20.0262 18.9004 19.9945 18.9055C19.3082 19.0152 18.5109 18.9918 17.8494 18.7692C17.8365 18.7649 17.8235 18.7606 17.8102 18.7562C17.6035 18.6869 17.4091 18.6061 17.2211 18.4953C17.2091 18.4883 17.1972 18.4814 17.1848 18.4742C17.173 18.4671 17.1612 18.46 17.149 18.4527C17.1381 18.4462 17.1273 18.4397 17.1161 18.4331C17.1043 18.424 17.1043 18.424 17.0922 18.4148C17.0922 18.4041 17.0922 18.3935 17.0922 18.3825C17.0807 18.3786 17.0692 18.3747 17.0573 18.3706C17.0056 18.3476 16.9693 18.3192 16.9261 18.2828C16.9106 18.2698 16.8951 18.2568 16.8792 18.2434C16.8644 18.2309 16.8496 18.2183 16.8344 18.2053C16.8225 18.1954 16.8105 18.1855 16.7982 18.1752C16.7342 18.121 16.6779 18.0637 16.6237 17.9997C16.5869 17.9568 16.5486 17.9155 16.5102 17.874C16.3511 17.6994 16.3511 17.6994 16.3511 17.6414C16.3405 17.6414 16.3298 17.6414 16.3189 17.6414C16.3136 17.6148 16.3082 17.5883 16.3028 17.5609C16.2921 17.5609 16.2815 17.5609 16.2705 17.5609C16.0364 17.1258 16.0364 17.1258 15.9644 16.9003C15.961 16.8895 15.9575 16.8788 15.9539 16.8677C15.8826 16.6442 15.8318 16.4164 15.7922 16.1854C15.7894 16.1687 15.7894 16.1687 15.7864 16.1518C15.757 15.9718 15.7517 15.7915 15.752 15.6094C15.752 15.5982 15.752 15.5871 15.752 15.5756C15.7528 15.2436 15.7757 14.9203 15.8517 14.5964C15.8565 14.5745 15.8614 14.5525 15.8662 14.5306C15.944 14.189 16.0768 13.8512 16.2544 13.5492C16.264 13.5327 16.2735 13.5163 16.2834 13.4993C16.3506 13.3865 16.4244 13.282 16.5057 13.1792C16.5499 13.1234 16.5925 13.0666 16.6351 13.0097C16.6424 13.0016 16.6497 12.9936 16.6572 12.9853C16.6678 12.9853 16.6785 12.9853 16.6894 12.9853C16.6931 12.9764 16.6968 12.9675 16.7006 12.9583C16.7276 12.9103 16.7614 12.8763 16.8002 12.8373C16.8141 12.8231 16.828 12.8089 16.8424 12.7943C16.8817 12.7607 16.899 12.7543 16.9472 12.7436C16.9525 12.7277 16.9578 12.7117 16.9633 12.6953C16.9855 12.6741 16.9855 12.6741 17.0139 12.6528C17.0244 12.6449 17.0349 12.637 17.0457 12.6289C17.0571 12.6206 17.0684 12.6122 17.0801 12.6037C17.0918 12.5951 17.1035 12.5864 17.1155 12.5775C17.4837 12.3088 17.8842 12.1412 18.3348 12.072C18.3473 12.0701 18.3597 12.0682 18.3726 12.0662C18.8022 12.0045 19.2625 12.0032 19.6861 12.0992Z" fill="#9A96FD"/>
<path d="M18.9164 13.4776C18.9448 13.4773 18.9448 13.4773 18.9738 13.4771C19.2736 13.4801 19.5378 13.5958 19.7512 13.8068C19.9726 14.0477 20.0691 14.3207 20.0573 14.6446C19.9209 14.7058 19.8027 14.7181 19.6544 14.7164C19.6323 14.7163 19.6102 14.7164 19.5881 14.7164C19.5287 14.7164 19.4693 14.716 19.4099 14.7156C19.3476 14.7152 19.2853 14.7151 19.223 14.7151C19.1053 14.7149 18.9876 14.7143 18.8699 14.7137C18.7358 14.713 18.6017 14.7126 18.4676 14.7123C18.1919 14.7116 17.9163 14.7105 17.6406 14.709C17.6431 14.6859 17.6456 14.6628 17.6481 14.6397C17.6495 14.6268 17.6509 14.6139 17.6523 14.6006C17.6937 14.2595 17.8838 13.9348 18.1415 13.7123C18.3754 13.5411 18.6303 13.4796 18.9164 13.4776Z" fill="#02015C"/>
</svg>
