<svg width="39" height="39" viewBox="0 0 39 39" fill="none" xmlns="http://www.w3.org/2000/svg">
<mask id="mask0_1641_3768" style="mask-type:luminance" maskUnits="userSpaceOnUse" x="0" y="0" width="39" height="39">
<path d="M38.8889 0H0V38.8889H38.8889V0Z" fill="white"/>
</mask>
<g mask="url(#mask0_1641_3768)">
<path d="M32.0024 38.8889H6.88644C3.07845 38.8889 0 35.7316 0 31.8259V7.06302C0 3.15738 3.07845 0 6.88644 0H32.0024C35.8105 0 38.8889 3.15738 38.8889 7.06302V31.8259C38.8889 35.7316 35.8105 38.8889 32.0024 38.8889Z" fill="#FF26BE"/>
<path d="M31.3866 37.2261H7.50265C4.26243 37.2261 1.62109 34.517 1.62109 31.1937V7.69447C1.62109 4.37117 4.26243 1.66211 7.50265 1.66211H31.3711C34.6284 1.66211 37.2526 4.37117 37.2526 7.69447V31.1778C37.2682 34.5171 34.6269 37.2261 31.3866 37.2261Z" fill="#2E001F"/>
<path d="M15.3768 18.1974L19.9144 27.1382C19.9953 27.2707 19.947 27.4047 19.8164 27.4047H16.9961C16.8173 27.4047 16.7363 27.3552 16.6555 27.1893C15.618 24.9955 14.5648 22.8018 13.479 20.4421H13.4464C12.4742 22.6694 11.404 25.0131 10.368 27.2069C10.2871 27.3392 10.2061 27.3902 10.0755 27.3902H7.40459C7.24282 27.3902 7.22571 27.2578 7.30815 27.1574L11.7477 18.4813L7.45438 9.70641C7.35637 9.57401 7.45438 9.47352 7.55081 9.47352H10.3384C10.5002 9.47352 10.5655 9.50701 10.6293 9.65691C11.6497 11.8507 12.6873 14.1115 13.6595 16.3211H13.6921C14.6317 14.1274 15.6692 11.8507 16.6741 9.67291C16.755 9.54051 16.8033 9.45752 16.9666 9.45752H19.5753C19.7043 9.45752 19.7542 9.55801 19.6732 9.6905L15.3768 18.1974ZM20.7092 20.9064C20.7092 17.0343 23.2215 14.0093 27.2069 14.0093C27.5475 14.0093 27.7248 14.0093 28.0499 14.0428V9.63941C28.0499 9.53892 28.1308 9.47352 28.2117 9.47352H30.7721C30.9012 9.47352 30.9339 9.52292 30.9339 9.60592V24.8631C30.9339 25.3115 30.934 25.8762 31.0148 26.4921C31.0148 26.5926 30.9821 26.6245 30.8857 26.6755C29.5246 27.3408 28.0982 27.6391 26.737 27.6391C23.2199 27.6535 20.7077 25.4279 20.7092 20.9064ZM28.0483 16.6529C27.8213 16.5524 27.4977 16.487 27.1088 16.487C25.0664 16.487 23.6415 18.0985 23.6415 20.7756C23.6415 23.834 25.1006 25.0642 26.9315 25.0642C27.3203 25.0642 27.7419 25.0147 28.0499 24.8807V16.6529H28.0483Z" fill="#FFD9F2"/>
</g>
</svg>
