<svg width="29" height="29" viewBox="0 0 29 29" fill="none" xmlns="http://www.w3.org/2000/svg">
<g clip-path="url(#clip0_1641_3794)">
<path d="M0 0C9.57 0 19.14 0 29 0C29 9.57 29 19.14 29 29C19.43 29 9.86 29 0 29C0 19.43 0 9.86 0 0Z" fill="black"/>
<path d="M9.00123 6.75537C11.8395 6.75537 14.6778 6.75537 17.602 6.75537C17.602 8.55294 17.602 10.3505 17.602 12.2025C16.1925 12.2025 14.7831 12.2025 13.3309 12.2025C13.4562 12.3839 13.5791 12.5594 13.7135 12.7285C13.7302 12.7496 13.7469 12.7707 13.764 12.7925C13.8191 12.8622 13.8743 12.9318 13.9295 13.0015C13.9693 13.0518 14.0091 13.1022 14.0489 13.1526C14.1342 13.2605 14.2196 13.3684 14.305 13.4762C14.4399 13.6466 14.5747 13.8171 14.7094 13.9877C14.9952 14.3492 15.2811 14.7106 15.567 15.072C15.8764 15.4631 16.1858 15.8542 16.495 16.2455C16.6291 16.4152 16.7633 16.5848 16.8976 16.7543C16.9807 16.8594 17.0639 16.9646 17.147 17.0698C17.1857 17.1187 17.2244 17.1677 17.2631 17.2165C17.3158 17.283 17.3683 17.3495 17.4209 17.4161C17.4364 17.4356 17.452 17.4552 17.4681 17.4754C17.5728 17.6084 17.5728 17.6084 17.5728 17.6497C16.1633 17.6497 14.7538 17.6497 13.3016 17.6497C13.3016 19.4473 13.3016 21.2448 13.3016 23.0969C13.234 23.0235 13.1665 22.9501 13.0968 22.8745C13.037 22.812 12.9769 22.7498 12.9167 22.6878C12.272 22.0202 11.6474 21.326 11.0362 20.6095C11.012 20.5812 10.9878 20.5529 10.9629 20.5237C9.89389 19.271 8.85206 18.0474 8.73005 16.122C8.72808 16.0926 8.7261 16.0632 8.72406 16.0329C8.64315 14.7582 8.86967 13.4452 9.00123 12.2025C10.4011 12.1903 11.8009 12.1781 13.2431 12.1655C12.9369 11.778 12.6307 11.3906 12.3152 10.9914C12.1219 10.7467 11.9286 10.5021 11.7353 10.2573C11.4281 9.86845 11.1209 9.47958 10.8136 9.09084C10.5898 8.80778 10.3661 8.52465 10.1424 8.24144C10.0239 8.09138 9.9054 7.94136 9.78681 7.79141C9.67533 7.65046 9.56393 7.50942 9.45257 7.36832C9.41156 7.31638 9.37051 7.26446 9.32945 7.21259C9.27365 7.1421 9.21795 7.0715 9.16227 7.00086C9.14576 6.98007 9.12926 6.95927 9.11225 6.93784C9.00123 6.79666 9.00123 6.79666 9.00123 6.75537Z" fill="#FEFEFE"/>
</g>
<defs>
<clipPath id="clip0_1641_3794">
<rect width="29" height="29" rx="4" fill="white"/>
</clipPath>
</defs>
</svg>
