<svg width="21" height="31" viewBox="0 0 21 31" fill="none" xmlns="http://www.w3.org/2000/svg">
<path fill-rule="evenodd" clip-rule="evenodd" d="M0 5.09259C0 7.90509 2.28 10.1852 5.09259 10.1852H10.1852V0H5.09259C2.28 0 0 2.28003 0 5.09259Z" fill="#F24E1E"/>
<path fill-rule="evenodd" clip-rule="evenodd" d="M10.1855 0V10.1852H15.2781C18.0906 10.1852 20.3707 7.90509 20.3707 5.09259C20.3707 2.28003 18.0906 0 15.2781 0H10.1855Z" fill="#FF7262"/>
<path fill-rule="evenodd" clip-rule="evenodd" d="M0 15.2777C0 18.0902 2.28 20.3702 5.09259 20.3702H10.1852V10.1851H5.09259C2.28 10.1851 0 12.4652 0 15.2777Z" fill="#A259FF"/>
<path fill-rule="evenodd" clip-rule="evenodd" d="M10.1855 15.2777C10.1855 12.4652 12.4656 10.1851 15.2781 10.1851C18.0906 10.1851 20.3707 12.4652 20.3707 15.2777C20.3707 18.0902 18.0906 20.3702 15.2781 20.3702C12.4656 20.3702 10.1855 18.0902 10.1855 15.2777Z" fill="#1ABCFE"/>
<path fill-rule="evenodd" clip-rule="evenodd" d="M0 25.4632C0 22.6507 2.28 20.3706 5.09259 20.3706H10.1852V25.4632C10.1852 28.2757 7.90509 30.5558 5.09259 30.5558C2.28 30.5558 0 28.2757 0 25.4632Z" fill="#0ACF83"/>
</svg>
