<svg width="30" height="30" viewBox="0 0 30 30" fill="none" xmlns="http://www.w3.org/2000/svg">
<path d="M6.02051 0.925781H23.6084C26.3916 0.925781 28.7041 3.27342 28.7041 6.23828V23.3916C28.7041 26.3565 26.3916 28.7041 23.6084 28.7041H6.02051C3.23746 28.704 0.925781 26.3564 0.925781 23.3916V6.23828C0.925781 3.27351 3.23746 0.925919 6.02051 0.925781Z" fill="#3B3323" stroke="#FFAA2B" stroke-width="1.85185"/>
<path d="M11.1975 17.7082L10.154 21.2965H7.86914L11.7552 8.63416H14.5798L18.5199 21.2965H16.145L15.0476 17.7082H11.1975ZM14.6698 15.961L13.7163 12.8424C13.4824 12.0721 13.2845 11.208 13.1046 10.4753H13.0686C12.8887 11.208 12.7088 12.0909 12.4929 12.8424L11.5573 15.961H14.6698ZM21.758 9.59217C21.758 10.2873 21.2723 10.8321 20.4987 10.8321C19.761 10.8321 19.2753 10.2873 19.2753 9.59217C19.2753 8.87829 19.779 8.3335 20.5166 8.3335C21.2723 8.3335 21.74 8.87829 21.758 9.59217ZM19.4012 21.2964V12.1472H21.6321V21.2964H19.4012Z" fill="#FFAA2B"/>
</svg>
