<svg width="37" height="36" viewBox="0 0 37 36" fill="none" xmlns="http://www.w3.org/2000/svg">
<path d="M0 8.38547C0 3.75431 3.69061 0 8.24319 0H28.1204C32.673 0 36.3636 3.75431 36.3636 8.38547V27.597C36.3636 32.2281 32.6729 35.9824 28.1204 35.9824H8.24319C3.6906 35.9824 0 32.2281 0 27.597V8.38547Z" fill="#0C0824"/>
<path d="M4.60407 10.9479C4.60407 7.46046 7.36056 4.63329 10.7608 4.63329H25.6071C29.0074 4.63329 31.7639 7.46046 31.7639 10.9479V25.4151C31.7639 28.9026 29.0074 31.7298 25.6071 31.7298H10.7608C7.36055 31.7298 4.60407 28.9026 4.60407 25.4151V10.9479ZM3.36914 26.6817C3.36914 30.1692 6.12564 32.9963 9.52595 32.9963H26.842C30.2423 32.9963 32.9988 30.1692 32.9988 26.6817V9.68137C32.9988 6.19388 30.2423 3.3667 26.842 3.3667H9.52595C6.12564 3.3667 3.36914 6.19387 3.36914 9.68137V26.6817ZM23.3432 15.5236L23.3429 15.5224C22.3687 15.5231 22.0358 16.0296 22.0358 16.4472C22.0358 16.903 22.258 17.2199 23.567 17.9156C25.5056 18.8783 26.1067 19.8019 26.1067 21.1575C26.1067 23.1838 24.6009 24.2724 22.5638 24.2724C21.6896 24.3056 20.8207 24.1193 20.0326 23.7297C19.9459 23.6917 19.9342 23.6288 19.9342 23.5268V21.6633C19.9342 21.5363 19.9956 21.4983 20.0824 21.5624C20.8225 22.0505 21.6839 22.3097 22.5638 22.3091C23.5395 22.3091 23.9469 21.8912 23.9469 21.3214C23.9469 20.8655 23.6634 20.4608 22.4157 19.8019C20.6623 18.9413 19.9342 18.0654 19.9342 16.611C19.9342 14.9776 21.1808 13.6231 23.3417 13.6231C24.0456 13.5921 24.7487 13.6958 25.4149 13.9285C25.5059 13.9602 25.6034 13.9991 25.6465 14.0872C25.6682 14.1317 25.6781 14.1813 25.6749 14.2309V15.9675C25.6749 16.046 25.6378 16.1022 25.5629 16.1054C25.5136 16.1074 25.4683 16.0815 25.4251 16.057C24.7887 15.6967 24.0712 15.5128 23.3436 15.5246L23.3432 15.5236ZM12.7268 16.0026C12.7268 16.5831 13.1608 17.0538 13.7268 17.0538C15.1713 17.0538 16.5289 16.5351 16.5289 14.5218C16.5289 12.9133 15.5533 12.1037 13.912 12.1037C13.2464 12.1037 12.7268 12.6752 12.7268 13.3579V16.0026ZM10.5294 10.3025C10.5291 10.3008 10.5289 10.2989 10.529 10.2971C10.5325 10.2095 10.7024 10.1479 10.8009 10.1479C11.5913 10.1099 12.7639 10.085 13.9861 10.085C17.4062 10.085 18.7395 12.0092 18.7395 14.4664C18.7395 17.6823 16.4675 19.0628 13.6781 19.0628C13.1461 19.0628 12.7152 19.4802 12.7152 20.0259V23.9001C12.7152 24.0011 12.6782 24.0521 12.567 24.0521H10.6781C10.5797 24.0521 10.53 24.0141 10.53 23.9001V10.308C10.53 10.3062 10.5298 10.3043 10.5294 10.3025Z" fill="#31C5F0"/>
</svg>
