<svg width="24" height="25" viewBox="0 0 24 25" fill="none" xmlns="http://www.w3.org/2000/svg">
<g clip-path="url(#clip0_2720_3728)">
<mask id="mask0_2720_3728" style="mask-type:luminance" maskUnits="userSpaceOnUse" x="0" y="0" width="24" height="25">
<path d="M24 0.915039H0V24.915H24V0.915039Z" fill="white"/>
</mask>
<g mask="url(#mask0_2720_3728)">
<path d="M11.9999 1.71463L12.2191 0.946632C12.0758 0.90581 11.924 0.90581 11.7807 0.946632L11.9999 1.71463ZM0.799907 4.91463L0.580707 4.14663C0.399118 4.19839 0.24169 4.31271 0.136276 4.46937C0.030862 4.62603 -0.0157429 4.81492 0.00470725 5.00263L0.799907 4.91463ZM2.39991 19.3146L1.60471 19.4026C1.6194 19.5353 1.66707 19.6622 1.74336 19.7718C1.81965 19.8813 1.92215 19.97 2.04151 20.0298L2.39991 19.3146ZM11.9999 24.1146L11.6415 24.8298C11.7528 24.8856 11.8755 24.9146 11.9999 24.9146C12.1243 24.9146 12.2471 24.8856 12.3583 24.8298L11.9999 24.1146ZM21.5999 19.3146L21.9583 20.0298C22.0777 19.97 22.1802 19.8813 22.2565 19.7718C22.3327 19.6622 22.3804 19.5353 22.3951 19.4026L21.5999 19.3146ZM23.1999 4.91463L23.9951 5.00263C24.016 4.81466 23.9695 4.62539 23.8641 4.46839C23.7586 4.3114 23.601 4.19683 23.4191 4.14503L23.1999 4.91463ZM11.9999 5.71463L12.7327 5.39463L11.9999 3.71943L11.2671 5.39463L11.9999 5.71463ZM11.7807 0.946632L0.580707 4.14663L1.01911 5.68263L12.2191 2.48263L11.7807 0.946632ZM0.00470725 5.00103L1.60471 19.401L3.19511 19.225L1.59511 4.82503L0.00470725 5.00103ZM2.04151 20.0298L11.6415 24.8298L12.3583 23.3978L2.75831 18.5978L2.04151 20.0298ZM12.3583 24.8298L21.9583 20.0298L21.2415 18.5978L11.6415 23.3978L12.3583 24.8298ZM22.3951 19.401L23.9951 5.00103L22.4047 4.82503L20.8047 19.225L22.3951 19.401ZM23.4191 4.14343L12.2191 0.943432L11.7807 2.48263L22.9807 5.68263L23.4191 4.14343ZM7.13271 18.8346L12.7327 6.03463L11.2671 5.39463L5.66711 18.1946L7.13271 18.8346ZM11.2671 6.03463L16.8671 18.8346L18.3327 18.1946L12.7327 5.39463L11.2671 6.03463ZM7.99991 15.3146H15.9999V13.7146H7.99991V15.3146Z" fill="#FF3D00"/>
</g>
</g>
<defs>
<clipPath id="clip0_2720_3728">
<rect width="24" height="25" fill="white"/>
</clipPath>
</defs>
</svg>
