<svg width="24" height="25" viewBox="0 0 24 25" fill="none" xmlns="http://www.w3.org/2000/svg">
<g clip-path="url(#clip0_2720_2457)">
<path d="M4.63438 8.25978C4.74366 7.22457 5.16676 6.305 5.82706 5.67052C6.37653 5.14254 7.03165 4.86264 7.72355 4.86264C8.70078 4.86264 9.60191 5.41985 10.1964 6.39138L11.3068 8.20649C11.7589 7.88507 12.2658 7.71621 12.7931 7.70642C13.5289 5.88288 13.2913 3.59951 12.0758 2.07727C10.5662 0.183552 8.12026 0.180305 6.60544 2.06363C5.09167 0.180305 2.64624 0.182903 1.13454 2.07727C-0.378181 3.97358 -0.378181 7.05249 1.13454 8.95078C1.20912 9.04235 4.80062 13.5266 6.12329 15.1781C6.39052 15.5112 6.82139 15.5112 7.08812 15.1781C7.19217 15.0482 7.31492 14.8943 7.44438 14.7319L5.25169 11.1484C4.74573 10.3211 4.52615 9.29492 4.63438 8.25978Z" fill="#FF3D00"/>
<path d="M23.6773 15.995L19.6027 9.3345C19.2945 8.83186 18.831 8.56757 18.3618 8.56757C18.0293 8.56757 17.6953 8.69943 17.411 8.97278C17.2209 9.15593 17.0733 9.38321 16.9708 9.63521C16.6631 9.178 16.2219 8.939 15.775 8.939C15.4425 8.939 15.1084 9.07086 14.8252 9.34428C14.4782 9.67807 14.2742 10.1586 14.2245 10.6626L14.0747 10.4178C13.7671 9.91514 13.3041 9.65078 12.8344 9.65078C12.5025 9.65078 12.1684 9.78264 11.8852 10.0554C11.5382 10.3899 11.3331 10.8711 11.2855 11.3731L8.96225 7.57586C8.65463 7.07388 8.19115 6.80957 7.72195 6.80957C7.38948 6.80957 7.05543 6.94141 6.77111 7.21478C6.08699 7.87336 5.95804 9.104 6.48265 9.96121L12.3036 19.4766L11.2254 19.0914C11.083 19.0414 10.9385 19.0168 10.7976 19.0168C10.1176 19.0168 9.49209 19.5772 9.29628 20.4403C9.06016 21.4813 9.54178 22.5646 10.3719 22.8607L15.9904 24.8648C16.1313 24.9148 16.2758 24.9395 16.4167 24.9395C16.7512 24.9395 17.0754 24.8044 17.3442 24.5564L23.3878 18.7408C24.073 18.0829 24.2025 16.8529 23.6773 15.995Z" fill="#FF3D00"/>
</g>
<defs>
<clipPath id="clip0_2720_2457">
<rect width="24" height="25" fill="white"/>
</clipPath>
</defs>
</svg>
