<svg width="24" height="25" viewBox="0 0 24 25" fill="none" xmlns="http://www.w3.org/2000/svg">
<g clip-path="url(#clip0_2720_169)">
<mask id="mask0_2720_169" style="mask-type:luminance" maskUnits="userSpaceOnUse" x="0" y="0" width="24" height="25">
<path d="M24 0.915039H0V24.915H24V0.915039Z" fill="white"/>
</mask>
<g mask="url(#mask0_2720_169)">
<path d="M7.2 8.11504L7.848 7.64624C7.74888 7.50933 7.60893 7.40733 7.44825 7.35488C7.28757 7.30242 7.1144 7.30221 6.95359 7.35428C6.79278 7.40634 6.65259 7.508 6.55313 7.64468C6.45368 7.78135 6.40007 7.94601 6.4 8.11504H7.2ZM12 23.315C9.24175 23.315 6.59647 22.2193 4.64609 20.2689C2.69571 18.3186 1.6 15.6733 1.6 12.915H0C0 16.0976 1.26428 19.1499 3.51472 21.4003C5.76516 23.6508 8.8174 24.915 12 24.915V23.315ZM22.4 12.915C22.4 14.2808 22.131 15.6332 21.6083 16.8949C21.0857 18.1567 20.3196 19.3032 19.3539 20.2689C18.3882 21.2347 17.2417 22.0007 15.9799 22.5234C14.7181 23.046 13.3657 23.315 12 23.315V24.915C15.1826 24.915 18.2348 23.6508 20.4853 21.4003C22.7357 19.1499 24 16.0976 24 12.915H22.4ZM12 2.51504C13.3657 2.51504 14.7181 2.78404 15.9799 3.30669C17.2417 3.82934 18.3882 4.5954 19.3539 5.56113C20.3196 6.52686 21.0857 7.67335 21.6083 8.93513C22.131 10.1969 22.4 11.5493 22.4 12.915H24C24 9.73244 22.7357 6.68019 20.4853 4.42976C18.2348 2.17932 15.1826 0.915039 12 0.915039V2.51504ZM12 0.915039C8.8174 0.915039 5.76516 2.17932 3.51472 4.42976C1.26428 6.68019 0 9.73244 0 12.915H1.6C1.6 10.1568 2.69571 7.51151 4.64609 5.56113C6.59647 3.61075 9.24175 2.51504 12 2.51504V0.915039ZM8 20.115V8.11504H6.4V20.115H8ZM6.552 8.58384L16.952 22.9838L18.248 22.0462L7.848 7.64624L6.552 8.58384ZM16 7.31504V16.915H17.6V7.31504H16Z" fill="#FF3D00"/>
</g>
</g>
<defs>
<clipPath id="clip0_2720_169">
<rect width="24" height="25" fill="white"/>
</clipPath>
</defs>
</svg>
