<svg width="24" height="25" viewBox="0 0 24 25" fill="none" xmlns="http://www.w3.org/2000/svg">
<path d="M12 2.76465C11.73 2.76465 11.45 2.83465 11.22 2.96465L3.78 7.26465C3.3 7.54465 3 8.06465 3 8.62465V17.2046C3 17.7646 3.3 18.2846 3.78 18.5646L5.73 19.6846C6.68 20.1446 7 20.1546 7.44 20.1546C8.84 20.1546 9.65 19.3046 9.65 17.8246V9.35465C9.65 9.23465 9.55 9.13465 9.43 9.13465H8.5C8.37 9.13465 8.27 9.23465 8.27 9.35465V17.8246C8.27 18.4846 7.59 19.1346 6.5 18.5846L4.45 17.4146C4.41633 17.3909 4.3888 17.3594 4.36967 17.3229C4.35055 17.2864 4.34038 17.2459 4.34 17.2046V8.62465C4.34 8.53465 4.38 8.45465 4.45 8.41465L11.89 4.12465C11.95 4.08465 12.05 4.08465 12.11 4.12465L19.55 8.41465C19.62 8.45465 19.66 8.53465 19.66 8.62465V17.2046C19.66 17.2846 19.62 17.3646 19.55 17.4146L12.11 21.7046C12.05 21.7446 11.95 21.7446 11.88 21.7046L10 20.5646C9.92 20.5346 9.84 20.5246 9.79 20.5546C9.26 20.8546 9.16 20.9146 8.67 21.0646C8.55 21.1046 8.36 21.1746 8.74 21.3846L11.22 22.8546C11.46 22.9946 11.72 23.0646 12 23.0646C12.28 23.0646 12.54 22.9946 12.78 22.8546L20.22 18.5646C20.7 18.2846 21 17.7646 21 17.2046V8.62465C21 8.06465 20.7 7.54465 20.22 7.26465L12.78 2.96465C12.55 2.83465 12.28 2.76465 12 2.76465ZM14 8.91465C11.88 8.91465 10.61 9.80465 10.61 11.3046C10.61 12.9146 11.87 13.3846 13.91 13.5846C16.34 13.8246 16.53 14.1846 16.53 14.6646C16.53 15.4946 15.86 15.8446 14.3 15.8446C12.32 15.8446 11.9 15.3546 11.75 14.3746C11.7395 14.324 11.7119 14.2785 11.6718 14.2457C11.6318 14.213 11.5817 14.1949 11.53 14.1946H10.57C10.45 14.1946 10.36 14.2846 10.36 14.4146C10.36 15.6546 11.04 17.1546 14.3 17.1546C16.65 17.1546 18 16.2246 18 14.6046C18 12.9946 16.92 12.5746 14.63 12.2646C12.32 11.9646 12.09 11.8046 12.09 11.2646C12.09 10.8146 12.29 10.2146 14 10.2146C15.5 10.2146 16.09 10.5446 16.32 11.5746C16.34 11.6746 16.43 11.7446 16.53 11.7446H17.5C17.55 11.7446 17.61 11.7246 17.65 11.6746C17.69 11.6346 17.72 11.5746 17.7 11.5146C17.56 9.73465 16.38 8.91465 14 8.91465Z" fill="#FF3D00"/>
</svg>
