<svg width="24" height="25" viewBox="0 0 24 25" fill="none" xmlns="http://www.w3.org/2000/svg">
<path d="M13.9998 3.75439C15.7118 3.75439 17.1038 5.16297 17.1038 6.89534C17.1038 8.62771 15.7118 10.0363 13.9998 10.0363C12.2878 10.0363 10.8958 8.62771 10.8958 6.89534C10.8958 5.16297 12.2878 3.75439 13.9998 3.75439ZM14.4718 21.9282L23.2238 21.9363C22.5918 18.8925 20.6718 12.9991 19.5918 11.3316C18.7998 10.1091 17.5678 9.59107 16.2558 9.98771C15.4958 10.2144 14.9838 10.6677 14.5438 11.372C14.2318 11.882 13.5198 13.5254 13.5198 13.5254H9.75978C9.55182 13.5254 9.35178 13.5659 9.1758 13.6468L9.6318 12.6916C9.74382 12.4487 9.64782 12.1573 9.40782 12.0439C9.16782 11.9306 8.87982 12.0277 8.7678 12.2706L7.1838 15.5734L6.60781 14.942C6.48781 14.8125 6.32781 14.7396 6.1518 14.7396C6.1518 14.7396 1.34381 14.7396 1.3278 14.7396C1.03181 14.7396 0.799805 14.9825 0.799805 15.2739C0.799805 15.4682 0.903809 15.5977 0.967805 15.6787C1.5918 16.3911 3.06381 18.002 3.9918 19.022C3.39981 19.2082 2.95181 19.7425 2.95181 20.4063C2.95181 21.313 3.64781 21.9363 4.4718 21.9363H13.5838L16.5038 15.7596C16.5998 15.5573 16.8398 15.4682 17.0398 15.5654C17.2398 15.6625 17.3278 15.9054 17.2318 16.1077L14.4718 21.9282ZM5.2398 18.9491L2.30381 15.7111H5.9118C5.96781 15.7111 6.02381 15.7353 6.0558 15.7759L6.72781 16.5206L6.19181 17.6377C6.0798 17.8806 6.1758 18.172 6.4158 18.2853C6.6558 18.3987 6.9438 18.3016 7.05581 18.0587L7.4238 17.2977L8.9358 18.9573H5.2398V18.9491ZM10.9598 18.9491H10.2398L7.8798 16.3425L8.30382 15.4601C8.49582 16.0754 9.08778 16.5206 9.75978 16.5206H12.0798L10.9598 18.9491Z" fill="#FF3D00"/>
</svg>
