<svg width="24" height="25" viewBox="0 0 24 25" fill="none" xmlns="http://www.w3.org/2000/svg">
<path d="M14.449 17.1553C13.9135 17.9168 13.33 18.6432 12.702 19.3303C14.375 20.9533 15.93 21.7133 16.793 21.2143C17.656 20.7163 17.775 18.9893 17.206 16.7303C16.353 16.9203 15.427 17.0653 14.449 17.1553ZM13.139 17.2413C12.381 17.2727 11.622 17.2727 10.864 17.2413C11.24 17.7333 11.622 18.1893 12.001 18.6043C12.381 18.1893 12.762 17.7343 13.139 17.2413ZM18.179 9.34634C20.844 10.1103 22.585 11.3803 22.585 12.9133C22.585 14.4463 20.845 15.7163 18.18 16.4803C18.85 19.1703 18.62 21.3123 17.293 22.0783C15.966 22.8453 13.996 21.9733 12.001 20.0473C10.007 21.9723 8.03697 22.8453 6.70997 22.0783C5.38197 21.3123 5.15297 19.1703 5.82297 16.4803C3.15797 15.7163 1.41797 14.4463 1.41797 12.9133C1.41797 11.3803 3.15797 10.1103 5.82297 9.34634C5.15297 6.65634 5.38297 4.51434 6.70997 3.74734C8.03697 2.98134 10.007 3.85334 12.001 5.77934C13.996 3.85334 15.966 2.98134 17.293 3.74734C18.62 4.51434 18.849 6.65634 18.179 9.34634ZM17.207 9.09834C17.777 6.83834 17.657 5.11234 16.794 4.61334C15.931 4.11534 14.376 4.87534 12.704 6.49834C13.3315 7.18556 13.9147 7.91203 14.45 8.67334C15.428 8.76334 16.354 8.90734 17.207 9.09834ZM6.79697 16.7283C6.22797 18.9883 6.34697 20.7143 7.21097 21.2123C8.07397 21.7103 9.62897 20.9513 11.301 19.3283C10.6732 18.6409 10.0901 17.9141 9.55497 17.1523C8.62787 17.0695 7.707 16.9275 6.79797 16.7273M10.866 8.58534C11.624 8.55397 12.383 8.55397 13.141 8.58534C12.7807 8.11579 12.4004 7.66204 12.001 7.22534C11.621 7.64134 11.241 8.09734 10.864 8.58934M9.55397 8.67634C10.0891 7.91492 10.6723 7.18844 11.3 6.50134C9.62797 4.87734 8.07297 4.11734 7.21097 4.61534C6.34797 5.11434 6.22797 6.84134 6.79797 9.10034C7.65097 8.91034 8.57697 8.76634 9.55497 8.67534M13.895 16.1953C14.6071 15.1507 15.2402 14.0543 15.789 12.9153C15.2406 11.7764 14.6078 10.68 13.896 9.63534C12.6354 9.54099 11.3695 9.54099 10.109 9.63534C9.39644 10.6799 8.76301 11.7763 8.21397 12.9153C8.76276 14.0543 9.39585 15.1507 10.108 16.1953C11.3685 16.2896 12.6344 16.2896 13.895 16.1953ZM15.18 16.0633C15.795 15.9833 16.38 15.8813 16.93 15.7603C16.7501 15.1961 16.5459 14.6399 16.318 14.0933C15.9663 14.7654 15.5859 15.4226 15.18 16.0633ZM8.82397 9.76634C8.20897 9.84634 7.62397 9.94934 7.07397 10.0703C7.24397 10.6063 7.44897 11.1643 7.68697 11.7373C8.03866 11.0653 8.41798 10.4071 8.82397 9.76634ZM7.07397 15.7613C7.62397 15.8823 8.20897 15.9843 8.82397 16.0643C8.41799 15.4236 8.03867 14.7664 7.68697 14.0943C7.45866 14.6409 7.25414 15.1971 7.07397 15.7613ZM6.09597 15.5163C6.35797 14.6823 6.69597 13.8083 7.10597 12.9163C6.71435 12.072 6.37699 11.2036 6.09597 10.3163C3.85497 10.9523 2.41897 11.9203 2.41897 12.9163C2.41897 13.9123 3.85497 14.8793 6.09597 15.5163ZM16.931 10.0703C16.3523 9.94375 15.7684 9.84232 15.181 9.76634C15.5869 10.4071 15.9663 11.0643 16.318 11.7363C16.556 11.1643 16.76 10.6063 16.931 10.0703ZM17.908 10.3153C17.648 11.1493 17.308 12.0233 16.898 12.9153C17.308 13.8073 17.648 14.6813 17.908 15.5153C20.15 14.8783 21.586 13.9113 21.586 12.9153C21.586 11.9193 20.15 10.9523 17.908 10.3153ZM12.001 14.7943C11.7491 14.8026 11.4981 14.76 11.2629 14.6693C11.0278 14.5786 10.8133 14.4415 10.6322 14.2662C10.451 14.0909 10.307 13.881 10.2087 13.6489C10.1103 13.4169 10.0597 13.1674 10.0597 12.9153C10.0597 12.6633 10.1103 12.4138 10.2087 12.1818C10.307 11.9497 10.451 11.7398 10.6322 11.5645C10.8133 11.3892 11.0278 11.2521 11.2629 11.1614C11.4981 11.0706 11.7491 11.0281 12.001 11.0363C12.4887 11.0523 12.9511 11.2572 13.2905 11.6078C13.6299 11.9585 13.8197 12.4273 13.8197 12.9153C13.8197 13.4033 13.6299 13.8722 13.2905 14.2228C12.9511 14.5735 12.4887 14.7784 12.001 14.7943Z" fill="#FF3D00"/>
</svg>
