<svg width="24" height="25" viewBox="0 0 24 25" fill="none" xmlns="http://www.w3.org/2000/svg">
<path d="M2 7.91504V5.91504C2 5.36504 2.196 4.89437 2.588 4.50304C2.98 4.11171 3.45067 3.91571 4 3.91504H20C20.55 3.91504 21.021 4.11104 21.413 4.50304C21.805 4.89504 22.0007 5.36571 22 5.91504V7.91504H20V5.91504H4V7.91504H2ZM8 21.915V19.915H4C3.45 19.915 2.97933 19.7194 2.588 19.328C2.19667 18.9367 2.00067 18.4657 2 17.915V15.915H4V17.915H20V15.915H22V17.915C22 18.465 21.8043 18.936 21.413 19.328C21.0217 19.72 20.5507 19.9157 20 19.915H16V21.915H8ZM4.8 11.915L7.4 9.31504L6 7.91504L2 11.915L6 15.915L7.4 14.515L4.8 11.915ZM19.2 11.915L16.6 14.515L18 15.915L22 11.915L18 7.91504L16.6 9.31504L19.2 11.915Z" fill="#FF3D00"/>
</svg>
