<svg width="24" height="25" viewBox="0 0 24 25" fill="none" xmlns="http://www.w3.org/2000/svg">
<path d="M4.51126 6.43144C4.51126 5.07115 5.58676 3.97412 6.93966 3.97412C8.28395 3.97412 9.36805 5.07115 9.36805 6.43144C9.35944 7.80056 8.27534 8.88878 6.93966 8.88878C5.59538 8.88878 4.51126 7.79171 4.51126 6.43144ZM17.9063 16.9708H13.5V12.9864C13.5 11.0453 11.8237 9.47635 9.93748 9.47635H4.03126C1.96051 9.47635 0.18657 11.2921 0.187508 13.0813V20.3859C0.18507 21.1954 0.750099 21.6181 1.31251 21.6192C1.87632 21.6203 2.43751 21.1976 2.43751 20.3859V13.271H3.18751V21.6192H10.5V13.271H11.25L11.2576 18.0494C11.2526 18.8775 11.7584 19.2301 12.2812 19.2476H17.9063C19.4403 19.2476 19.4403 16.9708 17.9063 16.9708ZM23.4745 13.2673C22.9768 13.7335 21.5799 12.4816 21.3606 13.1131C21.1192 13.8049 22.5198 14.271 22.3935 14.9252C22.256 15.6131 21.2679 16.6771 18.2697 15.7522C17.0586 15.3763 14.4134 13.9816 14.7478 11.5493C14.9373 10.1621 16.193 8.12828 19.2952 8.73728C21.7323 9.21092 23.4189 11.4177 23.4189 11.4177C24.1729 12.474 23.6417 13.1131 23.4745 13.2673ZM16.2337 11.5568C15.9254 11.4778 15.6096 11.6733 15.5353 11.9853C15.4573 12.2973 15.6505 12.6169 15.9589 12.6921C16.2672 12.7711 16.5829 12.5756 16.6573 12.2635C16.7353 11.9515 16.5421 11.632 16.2337 11.5568ZM17.5823 10.7222C17.6603 10.4102 17.4672 10.0907 17.1588 10.0155C16.8505 9.93656 16.5346 10.132 16.4603 10.4441C16.3823 10.7561 16.5755 11.0756 16.8839 11.1509C17.1923 11.2296 17.5081 11.0342 17.5823 10.7222ZM17.326 13.0078C17.0177 12.9289 16.702 13.1243 16.6276 13.4364C16.5496 13.7484 16.7428 14.068 17.0512 14.1432C17.3595 14.2221 17.6752 14.0267 17.7496 13.7146C17.8239 13.4026 17.6382 13.0831 17.326 13.0078ZM19.3693 10.4628C19.4473 10.1508 19.2542 9.83128 18.9457 9.75599C18.6374 9.67706 18.3217 9.87249 18.2473 10.1846C18.1693 10.4966 18.3625 10.8161 18.6709 10.8951C18.9792 10.9703 19.2951 10.7786 19.3693 10.4628ZM18.9868 13.8461C18.6784 13.7672 18.3626 13.9626 18.2883 14.2748C18.2103 14.5868 18.4034 14.9063 18.7119 14.9815C19.0202 15.0604 19.336 14.8651 19.4103 14.5529C19.4845 14.2372 19.2951 13.9214 18.9868 13.8461Z" fill="#FF3D00"/>
</svg>
