<svg width="24" height="25" viewBox="0 0 24 25" fill="none" xmlns="http://www.w3.org/2000/svg">
<path d="M9.07424 11.9428C10.7828 11.9428 12.168 10.5412 12.168 8.81221C12.168 7.08325 10.7828 5.68164 9.07424 5.68164C7.36558 5.68164 5.98047 7.08325 5.98047 8.81221C5.98047 10.5412 7.36558 11.9428 9.07424 11.9428Z" fill="#FF3D00"/>
<path d="M2.025 19.2097C2.775 16.6672 4.3875 13.2141 6.65625 12.8157C6.69375 12.8157 6.80625 12.7967 6.80625 12.7967C7.23748 12.7398 7.68748 12.7777 8.02496 12.8536L12.7312 14.1248L13.9312 9.57124H12.8063V8.05339H17.6437V7.5791H21.3937V10.0456H17.6437V9.57124H16.6875C16.7063 9.74203 16.6875 9.91274 16.65 10.0835L15.0375 16.1929C14.85 16.9329 14.1 17.3692 13.3688 17.1795L9.93748 16.2309L9.91878 21.9038H1.5C1.5375 21.1639 1.70625 20.2722 2.025 19.2097Z" fill="#FF3D00"/>
<path d="M21.75 10.3301H22.5V7.29443H21.75V10.3301Z" fill="#FF3D00"/>
</svg>
