<svg width="24" height="25" viewBox="0 0 24 25" fill="none" xmlns="http://www.w3.org/2000/svg">
<path d="M10.487 5.70879C11.2485 4.9382 11.2485 3.68884 10.487 2.91827C9.72553 2.14769 8.49087 2.14769 7.72936 2.91827C6.96782 3.68884 6.96782 4.9382 7.72936 5.70879C8.49087 6.47937 9.72553 6.47937 10.487 5.70879Z" fill="#FF3D00"/>
<path d="M14.625 9.5905C14.6063 9.47664 14.5688 9.36278 14.5125 9.26793L16.3875 10.8617C16.4437 10.8996 16.5 10.9186 16.5563 10.9186C16.6312 10.9186 16.7063 10.8806 16.7625 10.8237C16.8563 10.7099 16.8375 10.5391 16.725 10.4443L13.2188 7.4655C13.1063 7.37064 12.9375 7.38957 12.8437 7.50343C12.75 7.61728 12.7688 7.788 12.8812 7.88285L14.0063 8.83157C13.9125 8.79357 13.8188 8.77464 13.725 8.77464H10.1625L7.57503 6.13735C7.14374 5.70096 6.45 5.70096 6.01874 6.13735L1.68749 10.9566C1.46249 11.1463 1.3125 11.4689 1.3125 11.7914V22.2076C1.3125 22.8907 1.85625 23.4409 2.53125 23.4409C3.20625 23.4409 3.75 22.8907 3.75 22.2076V13.7266C3.91874 13.6697 4.06874 13.6318 4.2375 13.5369C5.4 12.7969 6.09374 11.9052 7.12503 10.8617C7.2 10.7858 7.36877 10.615 7.38748 10.5961C7.78122 10.1976 8.06251 9.70428 8.21251 9.19207L9.24374 10.2356C9.39374 10.3874 9.61877 10.4822 9.86251 10.4822H13.7625C14.2312 10.4632 14.625 10.0648 14.625 9.5905Z" fill="#FF3D00"/>
<path d="M18.3371 11.7719L23.0996 7.95828L22.2184 6.83887L11.9434 15.0732L12.8247 16.1926L17.1934 12.6826V22.7005H14.2496V23.4404H21.2621V22.7005H18.3371V11.7719Z" fill="#FF3D00"/>
</svg>
