<svg width="24" height="25" viewBox="0 0 24 25" fill="none" xmlns="http://www.w3.org/2000/svg">
<path d="M8.93435 4.95117C10.6125 4.95117 11.9719 6.32673 11.9719 8.02486C11.9719 9.72293 10.6125 11.089 8.93435 11.089C7.25626 11.089 5.90625 9.71343 5.90625 8.02486C5.90625 6.33621 7.26565 4.95117 8.93435 4.95117ZM23.8125 18.7636H21.6281C22.0875 18.6309 22.4812 18.3273 22.7531 17.9194C23.1281 17.3312 23.1844 16.6102 22.9031 15.9746L20.5781 10.7096L19.5188 10.3016L20.9437 5.35909L19.5469 4.95117L16.5281 15.4434L17.925 15.8513L19.1906 11.459L19.6969 11.6487L21.825 16.4584C21.9469 16.7241 21.9188 17.0181 21.7594 17.2648C21.6 17.5114 21.3469 17.6537 21.0563 17.6537H17.9063V18.7731H14.9531C14.925 17.7201 14.1094 16.9043 13.1063 16.9043H9.04687L7.18122 11.9618C6.76875 10.9846 6 10.3206 4.93125 10.3206C3.55312 10.3206 2.50312 11.4779 1.75312 13.1476C0.740626 15.3769 0.196875 18.0521 0.1875 20.6515L23.8125 20.642V18.7636Z" fill="#FF3D00"/>
</svg>
