<svg width="29" height="28" viewBox="0 0 29 28" fill="none" xmlns="http://www.w3.org/2000/svg">
<g clip-path="url(#clip0_2236_4628)">
<path d="M25.4702 10.9H24.9324C24.8797 10.8961 24.8296 10.876 24.789 10.8427C24.7484 10.8094 24.7194 10.7644 24.706 10.7141C24.517 10.1207 24.2738 9.54545 23.9796 8.99524C23.9541 8.94842 23.9432 8.89526 23.9483 8.84239C23.9533 8.78952 23.974 8.73928 24.0079 8.69793L24.3854 8.32629C24.54 8.17648 24.6627 7.99788 24.7465 7.80087C24.8304 7.60387 24.8735 7.3924 24.8735 7.17881C24.8735 6.96521 24.8304 6.75375 24.7465 6.55674C24.6627 6.35974 24.54 6.18113 24.3854 6.03132L22.2533 3.9317C22.1012 3.77942 21.9199 3.65847 21.7198 3.57591C21.5198 3.49336 21.3051 3.45084 21.0882 3.45084C20.8713 3.45084 20.6566 3.49336 20.4566 3.57591C20.2565 3.65847 20.0752 3.77942 19.9231 3.9317L19.5362 4.30334C19.4962 4.33752 19.4459 4.35784 19.3931 4.3612C19.3403 4.36455 19.2878 4.35076 19.2436 4.32192C18.683 4.03901 18.0992 3.80281 17.4985 3.61581C17.4474 3.60262 17.4018 3.57404 17.3679 3.53406C17.3341 3.49409 17.3138 3.44471 17.3099 3.39282V2.86323C17.3078 2.43265 17.1332 2.02028 16.824 1.71581C16.5149 1.41133 16.0961 1.23937 15.6589 1.2373H12.6399C12.2027 1.23937 11.784 1.41133 11.4748 1.71581C11.1657 2.02028 10.9911 2.43265 10.989 2.86323V3.39289C10.985 3.44478 10.9647 3.49416 10.9309 3.53414C10.8971 3.57411 10.8514 3.60269 10.8003 3.61587C10.1978 3.80201 9.61375 4.04145 9.05514 4.33128C9.00757 4.35627 8.95359 4.36695 8.89991 4.36199C8.84624 4.35703 8.79522 4.33666 8.75319 4.30341L8.37569 3.93177C8.22362 3.77949 8.0423 3.65855 7.84229 3.576C7.64228 3.49345 7.42759 3.45093 7.21072 3.45093C6.99386 3.45093 6.77917 3.49345 6.57916 3.576C6.37915 3.65855 6.19783 3.77949 6.04576 3.93177L3.91349 6.03139C3.75889 6.18119 3.63611 6.3598 3.5523 6.55681C3.46849 6.75381 3.42532 6.96527 3.42532 7.17887C3.42532 7.39247 3.46849 7.60393 3.5523 7.80094C3.63611 7.99794 3.75889 8.17655 3.91349 8.32636L4.29099 8.70729C4.32574 8.74662 4.34641 8.7961 4.34982 8.84813C4.35322 8.90016 4.33918 8.95185 4.30986 8.99525C4.0226 9.5475 3.78277 10.1225 3.59288 10.7141C3.57948 10.7644 3.55047 10.8094 3.50988 10.8427C3.46929 10.8761 3.41915 10.8961 3.36646 10.9H2.82868C2.39146 10.902 1.97274 11.074 1.66358 11.3785C1.35442 11.6829 1.17981 12.0953 1.17773 12.5259V15.499C1.17981 15.9296 1.35441 16.342 1.66358 16.6465C1.97274 16.951 2.39146 17.1229 2.82868 17.125H3.36648C3.41917 17.1289 3.46931 17.1489 3.5099 17.1822C3.55049 17.2155 3.5795 17.2605 3.59289 17.3108C3.78191 17.9042 4.02504 18.4795 4.31931 19.0297C4.34473 19.0765 4.35561 19.1296 4.35057 19.1825C4.34554 19.2354 4.32483 19.2856 4.29101 19.3269L3.91351 19.6986C3.75891 19.8484 3.63613 20.027 3.55232 20.224C3.46851 20.421 3.42534 20.6325 3.42534 20.8461C3.42534 21.0597 3.46851 21.2711 3.55232 21.4681C3.63613 21.6651 3.75891 21.8437 3.91351 21.9936L6.04581 24.0932C6.19787 24.2455 6.3792 24.3664 6.57921 24.449C6.77921 24.5315 6.99391 24.5741 7.21077 24.5741C7.42764 24.5741 7.64233 24.5315 7.84234 24.449C8.04235 24.3664 8.22367 24.2455 8.37573 24.0932L8.75323 23.7216C8.79526 23.6883 8.84628 23.668 8.89996 23.663C8.95364 23.658 9.00762 23.6687 9.05519 23.6937C9.5817 23.9655 10.1309 24.1925 10.6967 24.372V20.3583C9.26053 19.6005 8.12254 18.3919 7.46338 16.9245C6.80422 15.457 6.66167 13.8148 7.05834 12.2584C7.45501 10.7021 8.36819 9.32083 9.6529 8.33392C10.9376 7.34702 12.5202 6.81102 14.1496 6.81102C15.7789 6.81102 17.3615 7.34702 18.6462 8.33392C19.9309 9.32083 20.8441 10.7021 21.2408 12.2584C21.6375 13.8148 21.4949 15.457 20.8357 16.9245C20.1766 18.3919 19.0386 19.6005 17.6024 20.3583V24.372C18.1682 24.1924 18.7173 23.9654 19.2437 23.6936C19.2913 23.6686 19.3452 23.6579 19.3989 23.6629C19.4526 23.6679 19.5036 23.6882 19.5456 23.7215L19.9231 24.0931C20.0752 24.2454 20.2566 24.3664 20.4566 24.4489C20.6566 24.5315 20.8713 24.574 21.0882 24.574C21.3051 24.574 21.5198 24.5315 21.7199 24.4489C21.9199 24.3664 22.1012 24.2454 22.2533 24.0931L24.3854 21.9935C24.54 21.8437 24.6628 21.665 24.7466 21.468C24.8304 21.271 24.8736 21.0596 24.8736 20.846C24.8736 20.6324 24.8304 20.4209 24.7466 20.2239C24.6628 20.0269 24.54 19.8483 24.3854 19.6985L24.0079 19.3176C23.9732 19.2783 23.9525 19.2288 23.9491 19.1768C23.9457 19.1248 23.9597 19.0731 23.9891 19.0297C24.2763 18.4774 24.5161 17.9025 24.706 17.3108C24.7194 17.2605 24.7484 17.2155 24.789 17.1822C24.8296 17.1489 24.8798 17.1289 24.9325 17.1249H25.4702C25.9074 17.1229 26.3261 16.9509 26.6353 16.6465C26.9445 16.342 27.1191 15.9296 27.1211 15.499V12.5259C27.1191 12.0953 26.9445 11.6829 26.6353 11.3784C26.3261 11.074 25.9074 10.902 25.4702 10.9Z" fill="#FF3D00"/>
<path d="M12.0688 8.89125L10.1802 10.955C9.40139 11.8061 8.94834 12.898 8.89903 14.0427C8.84971 15.1874 9.20723 16.3132 9.90999 17.2262L11.6413 18.8771V26.0905C11.6413 26.3369 11.7407 26.5733 11.9176 26.7475C12.0946 26.9217 12.3345 27.0196 12.5847 27.0196H15.7097C15.9599 27.0196 16.1999 26.9217 16.3768 26.7475C16.5537 26.5733 16.6531 26.3369 16.6531 26.0905V18.8771L18.3844 17.2262C19.0873 16.3132 19.4448 15.1874 19.3955 14.0427C19.3462 12.898 18.8931 11.8061 18.1143 10.955L16.2256 8.89125C16.1919 8.85437 16.1476 8.82842 16.0986 8.81684C16.0496 8.80526 15.9982 8.80858 15.9512 8.82637C15.9041 8.84415 15.8636 8.87557 15.8351 8.91648C15.8065 8.95738 15.7913 9.00584 15.7913 9.05548V14.6863C15.7912 14.7461 15.7679 14.8035 15.726 14.8467C15.6842 14.8899 15.627 14.9156 15.5665 14.9184L14.1473 14.9846L12.728 14.9184C12.6675 14.9156 12.6103 14.8899 12.5685 14.8467C12.5266 14.8035 12.5032 14.7461 12.5032 14.6863V9.05544C12.5032 9.00581 12.4879 8.95735 12.4594 8.91645C12.4308 8.87555 12.3904 8.84414 12.3433 8.82636C12.2963 8.80857 12.2449 8.80525 12.1958 8.81684C12.1468 8.82842 12.1026 8.85437 12.0688 8.89125Z" fill="#FF3D00"/>
</g>
<defs>
<clipPath id="clip0_2236_4628">
<rect width="28.3019" height="27.8731" fill="white"/>
</clipPath>
</defs>
</svg>
