<svg width="29" height="25" viewBox="0 0 29 25" fill="none" xmlns="http://www.w3.org/2000/svg">
<path fill-rule="evenodd" clip-rule="evenodd" d="M7.71352 8.12987C7.77716 8.19363 7.81286 8.28006 7.81277 8.37014C7.81268 8.46023 7.77681 8.54659 7.71305 8.61022C7.64929 8.67386 7.56286 8.70956 7.47278 8.70947C7.3827 8.70938 7.29634 8.67351 7.2327 8.60975L5.61635 6.9934C5.55277 6.92967 5.51706 6.84332 5.51706 6.7533C5.51706 6.66328 5.55277 6.57693 5.61635 6.51321L7.2327 4.89717C7.29684 4.83573 7.38248 4.80186 7.47129 4.80281C7.5601 4.80376 7.645 4.83946 7.7078 4.90226C7.7706 4.96506 7.8063 5.04996 7.80726 5.13877C7.80821 5.22758 7.77433 5.31323 7.71289 5.37736L6.33742 6.7544L7.71352 8.1305V8.12987ZM12.0821 5.37736C12.0206 5.31323 11.9868 5.22758 11.9877 5.13877C11.9887 5.04996 12.0244 4.96506 12.0872 4.90226C12.15 4.83946 12.2349 4.80376 12.3237 4.80281C12.4125 4.80186 12.4981 4.83573 12.5623 4.89717L14.1786 6.51352C14.2102 6.54503 14.2352 6.58246 14.2523 6.62366C14.2694 6.66486 14.2782 6.70902 14.2782 6.75362C14.2782 6.79821 14.2694 6.84238 14.2523 6.88357C14.2352 6.92477 14.2102 6.9622 14.1786 6.99371L12.5623 8.61006C12.4981 8.6715 12.4125 8.70538 12.3237 8.70442C12.2349 8.70347 12.15 8.66777 12.0872 8.60497C12.0244 8.54217 11.9887 8.45727 11.9877 8.36846C11.9868 8.27965 12.0206 8.19401 12.0821 8.12987L13.4591 6.7544L12.0827 5.37799L12.0821 5.37736ZM24.4899 13.7619C24.4285 13.6978 24.3946 13.6122 24.3956 13.5234C24.3965 13.4346 24.4322 13.3497 24.495 13.2869C24.5578 13.2241 24.6427 13.1883 24.7315 13.1874C24.8203 13.1864 24.906 13.2203 24.9701 13.2818L26.172 14.484C26.2036 14.5155 26.2286 14.5529 26.2457 14.5941C26.2628 14.6353 26.2716 14.6795 26.2716 14.7241C26.2716 14.7687 26.2628 14.8128 26.2457 14.854C26.2286 14.8952 26.2036 14.9326 26.172 14.9642L24.9701 16.166C24.9386 16.1976 24.9011 16.2226 24.8598 16.2396C24.8186 16.2567 24.7744 16.2654 24.7298 16.2654C24.6852 16.2654 24.641 16.2565 24.5998 16.2394C24.5586 16.2223 24.5212 16.1973 24.4896 16.1657C24.4581 16.1342 24.4331 16.0967 24.416 16.0554C24.399 16.0142 24.3902 15.97 24.3903 15.9254C24.3903 15.8808 24.3991 15.8366 24.4162 15.7954C24.4333 15.7542 24.4584 15.7167 24.4899 15.6852L25.4516 14.7233L24.4899 13.7613V13.7619ZM10.611 3.83585C10.6439 3.754 10.7074 3.68817 10.7879 3.65232C10.8685 3.61647 10.9599 3.61341 11.0427 3.6438C11.1255 3.67418 11.1933 3.73562 11.2315 3.81509C11.2698 3.89455 11.2757 3.9858 11.2478 4.0695L9.18491 9.67138C9.16958 9.7132 9.14618 9.75158 9.11602 9.78435C9.08587 9.81711 9.04955 9.84362 9.00915 9.86235C8.96875 9.88109 8.92506 9.89168 8.88057 9.89352C8.83608 9.89537 8.79166 9.88843 8.74984 9.87311C8.70803 9.85779 8.66965 9.83439 8.63688 9.80423C8.60411 9.77407 8.57761 9.73776 8.55887 9.69736C8.54014 9.65696 8.52955 9.61327 8.5277 9.56878C8.52586 9.52428 8.53279 9.47986 8.54811 9.43805L10.611 3.83585ZM20.4223 14.7035C20.4189 14.7135 20.4151 14.7233 20.411 14.733L21.3638 15.6858C21.3965 15.7171 21.4226 15.7546 21.4405 15.7961C21.4585 15.8376 21.468 15.8822 21.4685 15.9275C21.469 15.9727 21.4604 16.0175 21.4433 16.0594C21.4263 16.1012 21.401 16.1393 21.369 16.1712C21.3371 16.2032 21.299 16.2285 21.2572 16.2456C21.2153 16.2626 21.1705 16.2712 21.1252 16.2707C21.08 16.2702 21.0354 16.2607 20.9939 16.2427C20.9524 16.2248 20.9149 16.1987 20.8836 16.166L19.6814 14.9642C19.6179 14.9004 19.5822 14.8141 19.5822 14.7241C19.5822 14.634 19.6179 14.5477 19.6814 14.484L20.8836 13.2818C20.9478 13.2203 21.0334 13.1864 21.1222 13.1874C21.211 13.1883 21.2959 13.2241 21.3587 13.2869C21.4215 13.3497 21.4572 13.4346 21.4582 13.5234C21.4592 13.6122 21.4253 13.6978 21.3638 13.7619L20.4223 14.7035ZM8.18333 15.2877V17.5038H11.611V15.2877H8.18333ZM16.8736 14.6085V13.0362H0V14.4079C0.000492001 14.4605 0.021622 14.5108 0.0588462 14.5481C0.0960704 14.5853 0.146416 14.6064 0.199057 14.6069L16.8736 14.6085ZM16.8736 19.2575V18.183H2.04811C1.90557 18.1833 1.76893 18.24 1.66802 18.3407C1.5671 18.4414 1.5101 18.5779 1.50943 18.7204V19.2575H16.8736ZM18.4079 6.41415H19.7953V0.199057C19.795 0.146365 19.7739 0.095926 19.7366 0.0586669C19.6994 0.0214078 19.6489 0.000329846 19.5962 0H0.199686C0.146885 0.00016474 0.096285 0.0211699 0.0588904 0.0584467C0.0214959 0.0957235 0.000331302 0.146257 0 0.199057V12.3585H16.8736V7.94937C16.8746 7.54276 17.0365 7.15309 17.3241 6.86557C17.6116 6.57806 18.0013 6.41609 18.4079 6.41509V6.41415ZM28.3019 21.6601H17.5528V23.2198C17.5537 23.4463 17.6441 23.6632 17.8043 23.8234C17.9644 23.9836 18.1814 24.0739 18.4079 24.0748H27.4462C27.6729 24.0743 27.8901 23.984 28.0504 23.8238C28.2107 23.6636 28.3011 23.4465 28.3019 23.2198V21.6601ZM17.5535 20.9808H28.3019V7.94937C28.3011 7.72283 28.2108 7.50578 28.0506 7.3456C27.8904 7.18541 27.6734 7.09508 27.4469 7.09434H18.4079C18.1814 7.09525 17.9644 7.18563 17.8043 7.34578C17.6441 7.50593 17.5537 7.72288 17.5528 7.94937V20.9796L17.5535 20.9808ZM22.3063 8.51038C22.2162 8.51038 22.1298 8.4746 22.0661 8.4109C22.0024 8.34721 21.9667 8.26083 21.9667 8.17075C21.9667 8.08068 22.0024 7.9943 22.0661 7.9306C22.1298 7.86691 22.2162 7.83113 22.3063 7.83113H23.5481C23.5927 7.83113 23.6369 7.83992 23.6781 7.85698C23.7193 7.87405 23.7567 7.89907 23.7883 7.9306C23.8198 7.96214 23.8448 7.99958 23.8619 8.04079C23.879 8.08199 23.8877 8.12615 23.8877 8.17075C23.8877 8.21535 23.879 8.25952 23.8619 8.30072C23.8448 8.34193 23.8198 8.37937 23.7883 8.4109C23.7567 8.44244 23.7193 8.46746 23.6781 8.48452C23.6369 8.50159 23.5927 8.51038 23.5481 8.51038H22.3063ZM23.3755 12.5242C23.3898 12.4811 23.4127 12.4413 23.4427 12.4072C23.4727 12.3731 23.5092 12.3454 23.5502 12.3257C23.5911 12.306 23.6356 12.2947 23.6809 12.2925C23.7263 12.2903 23.7716 12.2972 23.8143 12.3128C23.8569 12.3285 23.896 12.3525 23.9292 12.3836C23.9624 12.4146 23.989 12.452 24.0074 12.4935C24.0259 12.535 24.0358 12.5798 24.0367 12.6252C24.0375 12.6706 24.0292 12.7157 24.0123 12.7579L22.4786 16.9236C22.4477 17.008 22.3845 17.0767 22.3029 17.1146C22.2213 17.1524 22.128 17.1563 22.0436 17.1253C21.9591 17.0944 21.8904 17.0312 21.8526 16.9496C21.8148 16.868 21.8109 16.7747 21.8418 16.6903L23.3755 12.5242ZM2.08616 2.29748C2.04156 2.29748 1.9974 2.2887 1.9562 2.27163C1.91499 2.25456 1.87755 2.22955 1.84601 2.19801C1.81448 2.16647 1.78946 2.12903 1.77239 2.08783C1.75533 2.04662 1.74654 2.00246 1.74654 1.95786C1.74654 1.91326 1.75533 1.8691 1.77239 1.82789C1.78946 1.78669 1.81448 1.74925 1.84601 1.71771C1.87755 1.68618 1.91499 1.66116 1.9562 1.64409C1.9974 1.62702 2.04156 1.61824 2.08616 1.61824H3.86006C3.90466 1.61824 3.94883 1.62702 3.99003 1.64409C4.03124 1.66116 4.06868 1.68618 4.10021 1.71771C4.13175 1.74925 4.15677 1.78669 4.17383 1.82789C4.1909 1.8691 4.19969 1.91326 4.19969 1.95786C4.19969 2.00246 4.1909 2.04662 4.17383 2.08783C4.15677 2.12903 4.13175 2.16647 4.10021 2.19801C4.06868 2.22955 4.03124 2.25456 3.99003 2.27163C3.94883 2.2887 3.90466 2.29748 3.86006 2.29748H2.08616ZM2.08616 3.84214C1.99609 3.84214 1.90971 3.80636 1.84601 3.74267C1.78232 3.67897 1.74654 3.59259 1.74654 3.50252C1.74654 3.41244 1.78232 3.32606 1.84601 3.26237C1.90971 3.19867 1.99609 3.16289 2.08616 3.16289H3.86006C3.95014 3.16289 4.03652 3.19867 4.10021 3.26237C4.1639 3.32606 4.19969 3.41244 4.19969 3.50252C4.19969 3.59259 4.1639 3.67897 4.10021 3.74267C4.03652 3.80636 3.95014 3.84214 3.86006 3.84214H2.08616ZM22.3063 23.0752C22.2162 23.0752 22.1298 23.0394 22.0661 22.9757C22.0024 22.912 21.9667 22.8256 21.9667 22.7355C21.9667 22.6455 22.0024 22.5591 22.0661 22.4954C22.1298 22.4317 22.2162 22.3959 22.3063 22.3959H23.5481C23.5927 22.3959 23.6369 22.4047 23.6781 22.4218C23.7193 22.4388 23.7567 22.4638 23.7883 22.4954C23.8198 22.5269 23.8448 22.5644 23.8619 22.6056C23.879 22.6468 23.8877 22.6909 23.8877 22.7355C23.8877 22.7801 23.879 22.8243 23.8619 22.8655C23.8448 22.9067 23.8198 22.9441 23.7883 22.9757C23.7567 23.0072 23.7193 23.0322 23.6781 23.0493C23.6369 23.0664 23.5927 23.0752 23.5481 23.0752H22.3063Z" fill="#FF3D00"/>
</svg>
