<svg width="29" height="29" viewBox="0 0 29 29" fill="none" xmlns="http://www.w3.org/2000/svg">
<path d="M25.901 16.7432C25.2348 16.7432 24.679 17.1873 24.4937 17.7927C22.4696 17.846 21.9696 17.6531 21.2119 18.0198L19.4314 18.879C19.2182 18.9818 19.1294 19.2369 19.2322 19.45C19.3337 19.662 19.5888 19.7521 19.8033 19.6493L21.5837 18.7902C22.0786 18.5516 22.368 18.6874 24.4936 18.648C24.6776 19.2534 25.2346 19.6975 25.9009 19.6975C26.7169 19.6975 27.378 19.0363 27.378 18.2203C27.378 17.4044 26.7157 16.7432 25.901 16.7432Z" fill="#FF3D00"/>
<path d="M25.9577 23.8257C25.2927 23.8257 24.7357 24.2686 24.5517 24.8739C22.322 24.8346 22.0783 24.9704 21.5847 24.7318L19.8931 23.9158C19.6786 23.8143 19.4248 23.9018 19.322 24.115C19.2193 24.3282 19.3081 24.5833 19.5213 24.6861L21.2129 25.5021C21.973 25.8689 22.4413 25.6747 24.5516 25.7293C24.7356 26.3346 25.2914 26.7775 25.9576 26.7775C26.7723 26.7775 27.4335 26.1163 27.4335 25.3016C27.4348 24.4869 26.7737 23.8257 25.9577 23.8257Z" fill="#FF3D00"/>
<path d="M0.470703 18.2201C0.470703 19.0348 1.13188 19.696 1.94658 19.696C2.61156 19.696 3.16864 19.2531 3.35265 18.6477C5.19527 18.6858 5.44399 18.5551 5.93002 18.7899C7.67239 19.6148 7.62925 19.6465 7.80182 19.6465C8.25612 19.6465 8.39571 19.0297 7.98837 18.833C6.54169 18.1883 6.13814 17.7924 5.31073 17.7924H3.35265C3.16864 17.187 2.61283 16.7441 1.94659 16.7441C1.13188 16.7441 0.470703 17.4053 0.470703 18.2201Z" fill="#FF3D00"/>
<path d="M1.94786 26.7775C2.61283 26.7775 3.16865 26.3346 3.35392 25.7293C5.00617 25.6798 5.55949 25.8625 6.29171 25.5072L7.98584 24.7521C8.20157 24.6557 8.29928 24.4031 8.20284 24.1874C8.10766 23.9717 7.85513 23.8727 7.63812 23.9704C5.91986 24.7039 5.79423 24.8727 5.31329 24.8727L3.35265 24.8739C3.16864 24.2686 2.61282 23.8257 1.94658 23.8257C1.13188 23.8257 0.470703 24.4869 0.470703 25.3016C0.470703 26.1176 1.13189 26.7775 1.94786 26.7775Z" fill="#FF3D00"/>
<path d="M10.4553 6.83008H10.4464L9.89062 8.16513H11.0112L10.4553 6.83008Z" fill="#FF3D00"/>
<path d="M6.14957 6.08598C4.83232 6.41973 3.89072 7.73701 4.16482 9.20149C4.40466 10.5023 5.56835 11.4261 6.89446 11.4261H20.218C21.9121 11.4261 23.393 10.0404 23.4349 8.34615C23.4781 6.77124 22.374 5.454 20.8931 5.19637C20.756 5.17099 20.6279 5.09357 20.5504 4.9654C20.0796 4.18621 19.2243 3.66462 18.2396 3.66462C18.1888 3.66462 18.1368 3.66462 18.086 3.67351C17.8462 3.68239 17.6241 3.51107 17.5809 3.27121C17.2916 1.67857 15.8792 0.47168 14.2016 0.47168C12.8324 0.47168 11.6344 1.27627 11.0862 2.43998C10.9669 2.68871 10.6674 2.79913 10.4187 2.67095C8.69665 1.76993 6.48228 3.00726 6.48228 5.11896C6.48228 5.25602 6.49116 5.39308 6.51654 5.52126C6.55207 5.77761 6.39702 6.02507 6.14957 6.08598ZM17.5911 6.20527C17.5911 5.83852 17.7815 5.64944 18.1305 5.64944C18.4693 5.64944 18.6609 5.8398 18.6609 6.20527V9.32841C18.6609 9.96803 17.968 9.99214 17.7282 9.73071C17.4909 9.49467 17.6292 9.28667 17.5911 6.20527ZM13.4923 5.84612C13.5862 5.75221 13.7232 5.70906 13.8945 5.70906C14.9834 5.76617 15.8323 5.52885 16.411 6.06821C16.6597 6.30806 16.7879 6.63295 16.7879 7.05171C16.7879 7.86517 16.3006 8.40327 15.3336 8.40327H14.4262V9.32715C14.4262 9.65837 14.2384 9.88299 13.8958 9.88299C13.5354 9.88299 13.3476 9.66217 13.3476 9.32715C13.392 6.2827 13.2372 6.09998 13.4923 5.84612ZM9.84625 6.09359C9.91478 5.94003 9.9998 5.82835 10.1026 5.75094C10.2739 5.62657 10.5785 5.59992 10.8044 5.75094C11.0861 5.98191 11.0709 6.18751 12.5163 9.21673C12.6762 9.55811 12.5429 9.88425 12.1394 9.88425C11.6343 9.88425 11.5873 9.41978 11.3691 8.99464H9.52897L9.34116 9.42231C9.21679 9.71673 9.10512 9.88425 8.79294 9.88425C8.57847 9.88425 8.37672 9.7675 8.33991 9.55938C8.27392 9.29795 8.35262 9.37282 9.84625 6.09359Z" fill="#FF3D00"/>
<path d="M15.7697 7.05187C15.7697 6.3285 14.8953 6.58106 14.4258 6.53028V7.58233C14.9702 7.56203 15.7697 7.73716 15.7697 7.05187Z" fill="#FF3D00"/>
<path d="M7.68359 21.3781V22.1484C7.68359 22.4048 7.8638 22.6281 8.11125 22.6789C8.25846 22.7423 8.6658 22.6928 8.80413 23.1497C8.90692 23.552 9.06936 23.9365 9.26606 24.288C9.49829 24.6929 9.14931 25.0089 9.11251 25.1015C8.97546 25.316 9.00972 25.5977 9.18992 25.7868L9.72927 26.3172C9.90947 26.5051 10.1912 26.5393 10.4133 26.4023C10.5059 26.3655 10.8079 26.0215 11.2178 26.2563C11.577 26.4619 11.9628 26.6243 12.3727 26.736C12.5694 26.7881 12.7318 26.9416 12.7749 27.1472L12.8346 27.3959C12.8866 27.6497 13.1087 27.8299 13.3739 27.8299H14.1265C14.3828 27.8299 14.6062 27.6497 14.6658 27.4023C14.7039 27.3147 14.6899 26.849 15.1277 26.7347C15.53 26.6231 15.9234 26.4606 16.2749 26.255C16.4627 26.1522 16.6772 26.1434 16.8574 26.255L17.0884 26.401C17.3028 26.538 17.5845 26.5038 17.7724 26.3236L18.3117 25.7842C18.4919 25.5964 18.5262 25.3134 18.3891 25.0989L18.2356 24.8502C18.1239 24.6789 18.1328 24.4657 18.2267 24.2766C18.483 23.8311 18.6633 23.3438 18.7749 22.8222L19.3904 22.6763C19.6391 22.6243 19.818 22.4022 19.818 22.1458V21.378C19.818 21.1217 19.6378 20.8983 19.3904 20.8387C19.2394 20.7752 18.8219 20.8311 18.6797 20.3679C18.5681 19.9833 18.4145 19.6153 18.2178 19.2638C17.9856 18.8577 18.3244 18.581 18.3891 18.425C18.5262 18.2105 18.4919 17.9288 18.3117 17.7409L17.7724 17.2016C17.5922 17.0214 17.3016 16.9871 17.0883 17.1242C16.9475 17.1838 16.6404 17.5328 16.2406 17.3044C15.898 17.1077 15.5224 16.9541 15.1366 16.8513C14.9399 16.7917 14.7851 16.6458 14.7432 16.4402C14.6899 16.3209 14.7077 15.7904 14.2128 15.7105V12.5873C14.2128 12.3475 14.0186 12.1533 13.7788 12.1533C13.5389 12.1533 13.3448 12.3475 13.3448 12.5873V15.699C13.0973 15.7092 12.8854 15.8818 12.827 16.1229C12.7724 16.2549 12.8105 16.7117 12.3562 16.8501C11.9717 16.9529 11.6037 17.1064 11.261 17.3031C10.8638 17.5303 10.5542 17.1826 10.4133 17.1229C10.1913 16.9858 9.90826 17.0201 9.72932 17.2003L9.18997 17.7397C9.00977 17.9199 8.97551 18.2105 9.11256 18.4237C9.16332 18.5455 9.52625 18.8374 9.28388 19.2625C9.08718 19.6052 8.92474 19.9808 8.81308 20.3666C8.70141 20.8133 8.25343 20.779 8.1113 20.8374C7.86384 20.8983 7.68359 21.1205 7.68359 21.3781ZM13.7417 19.2639C15.1199 19.2639 16.2404 20.3844 16.2404 21.7626C16.2404 23.1408 15.1199 24.2614 13.7417 24.2614C12.3636 24.2614 11.2431 23.1408 11.2431 21.7626C11.2431 20.3844 12.3636 19.2639 13.7417 19.2639Z" fill="#FF3D00"/>
</svg>
