<svg width="29" height="29" viewBox="0 0 29 29" fill="none" xmlns="http://www.w3.org/2000/svg">
<path d="M16.7557 3.30389C16.4746 3.2873 16.1962 3.36779 15.9678 3.53178C15.7395 3.69576 15.575 3.93316 15.5023 4.20384L10.441 22.9957C10.3562 23.3065 10.3988 23.6381 10.5595 23.9176C10.7201 24.1972 10.9858 24.402 11.2981 24.4869C11.4533 24.5282 11.6151 24.5386 11.7744 24.5176C11.9336 24.4966 12.0872 24.4446 12.2262 24.3646C12.3652 24.2845 12.487 24.178 12.5846 24.0511C12.6822 23.9242 12.7537 23.7794 12.795 23.625L17.8587 4.83071C17.9002 4.67635 17.9107 4.51538 17.8896 4.35699C17.8685 4.1986 17.8162 4.04591 17.7357 3.90763C17.6552 3.76936 17.5481 3.64822 17.4205 3.55115C17.2929 3.45407 17.1473 3.38296 16.9921 3.34189C16.9148 3.32156 16.8356 3.30884 16.7557 3.30389ZM8.469 7.83447C8.146 7.83451 7.83614 7.96171 7.60714 8.18827L2.71769 13.0513C2.60351 13.1643 2.5129 13.2986 2.45108 13.4465C2.38925 13.5944 2.35742 13.753 2.35742 13.9132C2.35742 14.0734 2.38925 14.232 2.45108 14.38C2.5129 14.5279 2.60351 14.6622 2.71769 14.7752L7.60714 19.6406C7.83617 19.867 8.14602 19.9942 8.46899 19.9942C8.79197 19.9942 9.10182 19.867 9.33085 19.6406C9.44505 19.5276 9.53567 19.3933 9.5975 19.2453C9.65934 19.0974 9.69117 18.9388 9.69117 18.7786C9.69117 18.6184 9.65934 18.4598 9.5975 18.3119C9.53567 18.1639 9.44505 18.0296 9.33085 17.9167L5.30565 13.9132L9.33085 9.91217C9.44505 9.79919 9.53567 9.66488 9.5975 9.51696C9.65934 9.36904 9.69117 9.21042 9.69117 9.05022C9.69117 8.89002 9.65934 8.7314 9.5975 8.58348C9.53567 8.43556 9.44505 8.30125 9.33085 8.18827C9.10185 7.96172 8.792 7.83452 8.469 7.83447ZM19.8284 7.83447C19.5062 7.83514 19.1973 7.96229 18.9689 8.18827C18.8547 8.30125 18.7641 8.43556 18.7022 8.58348C18.6404 8.7314 18.6086 8.89002 18.6086 9.05022C18.6086 9.21042 18.6404 9.36904 18.7022 9.51696C18.7641 9.66488 18.8547 9.79919 18.9689 9.91217L22.9917 13.9132L18.9689 17.9167C18.8547 18.0296 18.7641 18.1639 18.7022 18.3119C18.6404 18.4598 18.6086 18.6184 18.6086 18.7786C18.6086 18.9388 18.6404 19.0974 18.7022 19.2453C18.7641 19.3933 18.8547 19.5276 18.9689 19.6406C19.1978 19.8663 19.5072 19.993 19.8296 19.993C20.1519 19.993 20.4613 19.8663 20.6902 19.6406L25.5821 14.7752C25.6962 14.6622 25.7868 14.5279 25.8487 14.38C25.9105 14.232 25.9423 14.0734 25.9423 13.9132C25.9423 13.753 25.9105 13.5944 25.8487 13.4465C25.7868 13.2986 25.6962 13.1643 25.5821 13.0513L20.6902 8.18827C20.4612 7.96171 20.1514 7.83451 19.8284 7.83447Z" fill="#FF3D00"/>
</svg>
