<svg width="29" height="29" viewBox="0 0 29 29" fill="none" xmlns="http://www.w3.org/2000/svg">
<path fill-rule="evenodd" clip-rule="evenodd" d="M14.5857 2.50328C13.8955 2.84777 13.2791 3.32352 12.771 3.9039C12.9402 3.96779 13.1059 4.03874 13.2681 4.11677C14.0916 4.51429 14.8151 5.09204 15.3849 5.80721C15.4112 5.83849 15.4309 5.87472 15.4429 5.91376C15.455 5.9528 15.4591 5.99385 15.455 6.0345C15.4509 6.07515 15.4387 6.11456 15.4191 6.15042C15.3996 6.18628 15.373 6.21785 15.341 6.24327C15.309 6.26869 15.2723 6.28744 15.2329 6.29843C15.1936 6.30941 15.1524 6.3124 15.1119 6.30721C15.0714 6.30202 15.0323 6.28877 14.997 6.26824C14.9617 6.2477 14.9309 6.22029 14.9063 6.18764C14.2184 5.3232 13.2844 4.6878 12.2277 4.36538C11.1711 4.04296 10.0415 4.04868 8.98812 4.3818C7.93478 4.71491 7.00729 5.35974 6.32816 6.23111C5.64903 7.10247 5.25022 8.15936 5.18443 9.26215C5.18013 9.33457 5.15023 9.40309 5.10006 9.45549C5.0499 9.50789 4.98274 9.54075 4.91058 9.5482C3.99734 9.64442 3.15578 10.0872 2.55925 10.7854C1.96272 11.4835 1.65667 12.3839 1.70413 13.3009C1.75159 14.218 2.14895 15.0819 2.81436 15.7148C3.47977 16.3476 4.36255 16.7012 5.28084 16.7026H23.0193C23.949 16.7015 24.8418 16.3395 25.5098 15.6929C26.1777 15.0463 26.5685 14.1657 26.5998 13.2366C26.6311 12.3075 26.3004 11.4025 25.6775 10.7124C25.0546 10.0224 24.1881 9.60112 23.2607 9.53746C23.2379 9.53722 23.2152 9.53439 23.193 9.52904C23.1539 9.51978 23.1169 9.50291 23.0843 9.47937C23.0517 9.45584 23.0241 9.42612 23.0029 9.39189C22.9818 9.35767 22.9677 9.31962 22.9613 9.27992C22.9548 9.24022 22.9563 9.19964 22.9656 9.16051C23.0186 8.9376 23.0585 8.71176 23.085 8.48416C23.1112 8.25452 23.1241 8.02355 23.1236 7.79242C23.1229 6.7868 22.8656 5.79799 22.3761 4.91958C21.8865 4.04116 21.181 3.30219 20.3261 2.77261C19.4712 2.24302 18.4953 1.94034 17.4908 1.89321C16.4863 1.84608 15.4864 2.05606 14.5857 2.50328ZM13.8434 17.3139V22.0222C13.2901 22.0998 12.7867 22.3844 12.435 22.8185C12.0832 23.2527 11.9092 23.8041 11.9481 24.3615C11.987 24.9189 12.2358 25.4408 12.6444 25.822C13.0531 26.2031 13.591 26.415 14.1498 26.415C14.7086 26.415 15.2465 26.2031 15.6552 25.822C16.0638 25.4408 16.3126 24.9189 16.3515 24.3615C16.3904 23.8041 16.2164 23.2527 15.8646 22.8185C15.5129 22.3844 15.0095 22.0998 14.4562 22.0222V17.3151L13.8434 17.3139ZM23.1401 21.2199H19.8182C19.7314 21.2195 19.6482 21.1848 19.5868 21.1234C19.5254 21.062 19.4907 20.9788 19.4903 20.892V17.3151H18.8776V20.8931C18.8779 21.1425 18.9771 21.3815 19.1534 21.5578C19.3298 21.7341 19.5689 21.8332 19.8182 21.8335H23.1404C23.2177 22.3445 23.4852 22.8074 23.8893 23.1295C24.2935 23.4516 24.8044 23.609 25.3198 23.5703C25.8351 23.5316 26.3168 23.2995 26.6683 22.9206C27.0197 22.5417 27.215 22.044 27.215 21.5272C27.215 21.0104 27.0197 20.5127 26.6683 20.1339C26.3168 19.755 25.8351 19.5229 25.3198 19.4842C24.8044 19.4455 24.2935 19.6029 23.8893 19.925C23.4852 20.2471 23.2177 20.71 23.1404 21.221L23.1401 21.2199ZM8.48197 21.8335C8.73132 21.8332 8.97039 21.7341 9.14674 21.5578C9.32308 21.3815 9.42229 21.1425 9.4226 20.8931V17.3151H8.80984V20.8931C8.80961 20.98 8.77499 21.0633 8.71356 21.1247C8.65212 21.1862 8.56886 21.2208 8.48197 21.221H5.15975C5.0825 20.7099 4.81494 20.2468 4.41067 19.9246C4.00641 19.6024 3.49532 19.4449 2.97982 19.4836C2.46432 19.5224 1.98251 19.7545 1.63093 20.1335C1.27935 20.5124 1.08398 21.0103 1.08398 21.5272C1.08398 22.0442 1.27935 22.542 1.63093 22.921C1.98251 23.3 2.46432 23.5321 2.97982 23.5709C3.49532 23.6096 4.00641 23.4521 4.41067 23.1299C4.81494 22.8077 5.0825 22.3446 5.15975 21.8335H8.48197Z" fill="#FF3D00"/>
</svg>
