<svg width="29" height="29" viewBox="0 0 29 29" fill="none" xmlns="http://www.w3.org/2000/svg">
<path fill-rule="evenodd" clip-rule="evenodd" d="M2.4351 3.30176H25.8649C26.386 3.30176 26.8604 3.51561 27.2089 3.8619C27.5552 4.20928 27.7679 4.68367 27.7679 5.20365V24.0403C27.7679 24.5614 27.5541 25.0357 27.2078 25.3842C26.8604 25.7305 26.386 25.9433 25.866 25.9433H2.43618C1.91511 25.9433 1.44073 25.7294 1.09226 25.3831C0.745967 25.0357 0.533203 24.5614 0.533203 24.0414V5.20474C0.533203 4.68367 0.747059 4.20928 1.09335 3.86082C1.44073 3.51452 1.91511 3.30176 2.4351 3.30176ZM11.9836 18.1588H22.9414V12.8592H11.9836V18.1588ZM22.9414 19.4354H11.9836V21.2234H22.9414V19.4354ZM10.7072 21.2234V12.859H5.35865V21.2234H10.7072ZM4.72142 11.5834H23.5808C23.9336 11.5834 24.2192 11.8689 24.2192 12.2217V21.8625C24.2192 22.2153 23.9337 22.5008 23.5808 22.5008H4.72142C4.36862 22.5008 4.0831 22.2153 4.0831 21.8625V12.2226C4.0831 11.8698 4.36859 11.5843 4.72142 11.5843V11.5834ZM6.81657 6.89156C6.46377 6.89156 6.17825 6.60607 6.17825 6.25324C6.17825 5.90044 6.46374 5.61492 6.81657 5.61492H7.48201C7.83481 5.61492 8.12033 5.90041 8.12033 6.25324C8.12033 6.60604 7.83484 6.89156 7.48201 6.89156H6.81657ZM3.76601 6.89156C3.41321 6.89156 3.12769 6.60607 3.12769 6.25324C3.12769 5.90044 3.41318 5.61492 3.76601 5.61492H4.43145C4.78425 5.61492 5.06977 5.90041 5.06977 6.25324C5.06977 6.60604 4.78428 6.89156 4.43145 6.89156H3.76601ZM1.80981 8.13996H26.4911V5.20557C26.4911 5.03297 26.4216 4.87664 26.3076 4.76265C26.1947 4.64975 26.0384 4.57918 25.8647 4.57918H2.43483C2.26114 4.57918 2.1059 4.64866 1.99191 4.76265C1.87901 4.87554 1.80845 5.03295 1.80845 5.20557V8.13996H1.80981Z" fill="#FF3D00"/>
</svg>
