<svg width="29" height="29" viewBox="0 0 29 29" fill="none" xmlns="http://www.w3.org/2000/svg">
<path fill-rule="evenodd" clip-rule="evenodd" d="M17.2578 3.5762C17.2571 2.82851 16.9869 2.10613 16.4966 1.54159C16.0064 0.977049 15.329 0.608213 14.5888 0.502752C13.8486 0.39729 13.0952 0.562275 12.4668 0.967436C11.8384 1.3726 11.3771 1.99076 11.1677 2.70852C10.9583 3.42628 11.0146 4.19549 11.3265 4.87502C11.6384 5.55456 12.1849 6.09885 12.8656 6.40804C13.5464 6.71722 14.3158 6.77057 15.0327 6.55828C15.7497 6.34599 16.366 5.88232 16.7687 5.25232C17.089 4.75207 17.2588 4.17024 17.2578 3.5762ZM19.4695 26.2767L18.5551 22.0348C18.5521 22.0205 18.55 22.0062 18.5481 21.9922L17.7788 17.7046L17.1541 13.3763C17.1507 13.3533 17.1493 13.33 17.1498 13.3067C17.1334 12.8428 17.2772 12.3873 17.5572 12.017L17.5788 11.9905C17.8624 11.631 18.264 11.3834 18.7126 11.2914L18.7378 11.2871C19.766 11.1148 20.7798 10.8653 21.7706 10.5409C22.7387 10.1935 23.6758 9.76521 24.572 9.26053C24.7595 9.08253 24.8843 8.84847 24.9274 8.59353C24.9705 8.33859 24.9298 8.07653 24.8112 7.84674C24.692 7.61701 24.4974 7.43522 24.2601 7.33181C24.0087 7.22233 23.7286 7.19747 23.4619 7.26098H23.4595C20.1297 8.27808 17.2082 8.83648 14.2457 8.85746C11.278 8.87843 8.2832 8.36107 4.81181 7.22663C4.55402 7.16944 4.28455 7.19919 4.04545 7.31126C3.80635 7.42333 3.61109 7.61141 3.49013 7.84613C3.36589 8.09184 3.32614 8.37166 3.37705 8.64224C3.42118 8.89288 3.5433 9.12319 3.72601 9.30035C4.62157 9.78908 5.55457 10.2058 6.5162 10.5466C7.50683 10.8686 8.52031 11.1156 9.54804 11.2853L9.55838 11.2871C10.0208 11.3834 10.4313 11.6471 10.7111 12.0276C10.9944 12.4117 11.1372 12.8816 11.1153 13.3584C11.1148 13.3729 11.1135 13.3873 11.1114 13.4016L10.4867 17.7046C10.4846 17.7196 10.4818 17.7344 10.4782 17.749C9.96601 20.6024 9.47509 23.4942 8.82215 26.3184C8.77642 26.5324 8.78913 26.7548 8.85893 26.9622C8.95036 27.2344 9.13112 27.4678 9.37187 27.6243C9.61262 27.7809 9.89923 27.8514 10.1851 27.8246C10.4711 27.7977 10.7395 27.675 10.9469 27.4763C11.1543 27.2777 11.2884 27.0148 11.3275 26.7303C11.3296 26.7146 11.3324 26.6991 11.336 26.6838L13.3851 18.4239L13.3951 18.3895C13.4441 18.2257 13.545 18.0824 13.6827 17.9811C13.8203 17.8798 13.9872 17.8261 14.1581 17.8281H14.1599C14.3363 17.8301 14.5069 17.891 14.6446 18.0012C14.7823 18.1114 14.8792 18.2644 14.9199 18.436L16.9653 26.6828C16.9701 26.702 16.9736 26.7215 16.9757 26.7412C17.0006 26.9099 17.0593 27.0719 17.1482 27.2174C17.237 27.3629 17.3543 27.4891 17.493 27.5883C17.6317 27.6876 17.789 27.7578 17.9554 27.795C18.1219 27.8321 18.2941 27.8354 18.4618 27.8045C18.6295 27.7736 18.7893 27.7093 18.9316 27.6154C19.074 27.5214 19.1959 27.3998 19.2902 27.2577C19.3845 27.1156 19.4492 26.956 19.4805 26.7883C19.5118 26.6207 19.5089 26.4484 19.4722 26.2819V26.2783L19.4695 26.2767Z" fill="#FF3D00"/>
</svg>
