<svg width="31" height="31" viewBox="0 0 31 31" fill="none" xmlns="http://www.w3.org/2000/svg">
<path fill-rule="evenodd" clip-rule="evenodd" d="M16.57 14.804H26.2697C26.3974 14.2605 26.8875 13.8553 27.4704 13.8553C28.1509 13.8553 28.7036 14.408 28.7036 15.0885C28.7036 15.769 28.1509 16.3217 27.4704 16.3217C26.8875 16.3217 26.3974 15.9176 26.2697 15.373H16.57V14.8016V14.804ZM5.12135 13.666C5.06445 13.5208 5.13645 13.3536 5.28509 13.2979C5.43024 13.241 5.59746 13.313 5.6532 13.4616C5.68339 13.5394 5.74494 13.6311 5.83203 13.7287C6.11421 14.0411 6.63211 14.3674 7.2882 14.5369C7.95126 14.7088 8.75367 14.7181 9.59207 14.3918C10.0763 14.2048 10.5733 13.9041 11.0668 13.4581C11.1829 13.3536 11.3641 13.3629 11.4686 13.479C11.5731 13.5952 11.5638 13.7763 11.4477 13.8808C10.9008 14.3744 10.3422 14.71 9.79528 14.9213C8.83262 15.2964 7.90711 15.2836 7.14303 15.085C6.36965 14.8853 5.75188 14.4905 5.40701 14.1073C5.27347 13.9621 5.17825 13.81 5.12135 13.6648L5.12135 13.666ZM13.0443 5.58609C12.9816 5.44093 13.0501 5.27371 13.1964 5.21449C13.3416 5.15179 13.5088 5.2203 13.568 5.36662C13.856 6.03896 13.7584 6.90409 13.366 7.67396C13.006 8.38463 12.4033 8.99428 11.6566 9.31477C10.8565 9.65616 9.87299 9.68056 8.79421 9.13013C8.65486 9.0593 8.59796 8.88628 8.6688 8.74692C8.73963 8.60757 8.91265 8.55067 9.05201 8.62151C9.96125 9.08484 10.7764 9.0709 11.4337 8.78756C12.0584 8.52048 12.5577 8.00838 12.8574 7.41151C13.1755 6.78676 13.2615 6.097 13.042 5.58607L13.0443 5.58609ZM11.4952 20.2408C11.0702 21.7899 11.4476 23.2439 11.4476 23.2495C11.4859 23.4016 11.3942 23.556 11.2398 23.5944C11.0853 23.6327 10.9332 23.541 10.8949 23.3865C10.8949 23.3807 10.5918 22.2207 10.7904 20.8388C10.449 21.0316 10.0739 21.1593 9.70227 21.2371C8.80465 21.4275 7.90935 21.3323 7.53776 21.1953C7.38913 21.1419 7.31481 20.9781 7.36822 20.8295C7.42164 20.6809 7.58537 20.6065 7.73402 20.66C8.03709 20.7726 8.79769 20.8469 9.58271 20.6774C10.082 20.5705 10.5814 20.365 10.9646 20.0085C11.2409 19.0656 11.803 18.1064 12.8701 17.3865C13.0014 17.3005 13.1767 17.3331 13.2649 17.4643C13.3509 17.5955 13.3184 17.7708 13.1871 17.8591C12.2384 18.4977 11.7426 19.3605 11.4894 20.2373L11.4952 20.2408ZM13.2963 28.7642C14.0488 28.7584 14.7234 28.4518 15.2112 27.9641C15.714 27.459 15.9985 26.7843 15.9985 26.0702V4.47146C15.9985 3.65743 15.678 2.88408 15.1008 2.31043C14.5481 1.75768 13.784 1.41513 12.9398 1.41513C12.0956 1.41513 11.3315 1.75652 10.7788 2.31043C10.226 2.86318 9.88347 3.62726 9.88347 4.47146C9.88347 5.07528 10.0588 5.65708 10.3863 6.15409C10.4722 6.28531 10.4374 6.46064 10.3062 6.5489C10.1749 6.63483 9.99961 6.59999 9.91135 6.46877C9.42132 5.72907 9.22158 4.83377 9.34932 3.95122C8.94521 3.9338 8.54924 3.98374 8.17533 4.09405C7.6969 4.2334 7.25099 4.47144 6.8678 4.78961C6.74587 4.89064 6.63323 4.99747 6.52641 5.11358C5.90517 5.78245 5.57769 6.63247 5.55447 7.49177C5.52428 8.52875 5.93769 9.54017 6.71687 10.2648C6.83299 10.3716 6.8388 10.5504 6.73197 10.6666C6.62514 10.7827 6.44631 10.7885 6.33017 10.6817C5.62531 10.0279 5.1794 9.1686 5.03656 8.24657C4.04372 8.57985 3.18439 9.20344 2.56083 10.0186C1.88617 10.8988 1.48438 11.9985 1.48438 13.1911C1.48438 14.6298 2.0673 15.9351 3.01254 16.8803C3.95546 17.8232 5.25951 18.4084 6.70171 18.4084C6.85963 18.4084 6.98737 18.5362 6.98737 18.6941C6.98737 18.852 6.85963 18.9798 6.70171 18.9798C5.91673 18.9798 5.17122 18.8218 4.48726 18.5396C4.40133 18.9147 4.37694 19.2979 4.40945 19.6753C4.45358 20.1572 4.59409 20.6322 4.82867 21.0642C5.07833 21.5252 5.42322 21.9258 5.83892 22.2381C6.24883 22.5447 6.72495 22.7676 7.2417 22.8768C7.38453 22.907 7.47975 23.0371 7.46465 23.1799C7.45304 23.6316 7.54478 24.0624 7.71432 24.4549C7.89547 24.8648 8.16602 25.2283 8.4993 25.5186C9.08457 26.0237 9.82541 26.271 10.5628 26.2409C11.2909 26.2142 12.0108 25.9204 12.5659 25.3665C12.6762 25.2562 12.8574 25.2562 12.97 25.3665C13.0803 25.4768 13.0803 25.6579 12.97 25.7706C12.3337 26.4069 11.5139 26.7518 10.6754 26.8053C10.8241 27.3255 11.1248 27.7807 11.5231 28.1221C12.0167 28.5448 12.6344 28.7735 13.2917 28.7735L13.2963 28.7642ZM19.2742 28.7642C19.9547 28.7642 20.5074 28.2115 20.5074 27.531C20.5074 26.9481 20.1033 26.458 19.5587 26.3303V22.043C19.5587 21.8851 19.4309 21.7574 19.273 21.7574H16.5673V22.3287H18.9873V26.3303C18.4439 26.458 18.0386 26.948 18.0386 27.531C18.0386 28.2115 18.5914 28.7642 19.2718 28.7642L19.2742 28.7642ZM25.7818 24.5432C25.1013 24.5432 24.5486 23.9905 24.5486 23.31C24.5486 23.0604 24.6229 22.8281 24.7506 22.6354L21.1602 18.8543H16.5732V18.283H21.282C21.3715 18.283 21.4481 18.3248 21.5015 18.3875L25.1639 22.2429C25.3451 22.136 25.5587 22.0768 25.7852 22.0768C26.4657 22.0768 27.0184 22.6296 27.0184 23.31C27.0184 23.9905 26.4656 24.5432 25.7852 24.5432L25.7818 24.5432ZM19.2742 1.41504C19.9547 1.41504 20.5074 1.96779 20.5074 2.64825C20.5074 3.23117 20.1033 3.72123 19.5587 3.84897V8.13625C19.5587 8.29418 19.4309 8.42191 19.273 8.42191H16.5673V7.85058H18.9873V3.84898C18.4439 3.72124 18.0386 3.23122 18.0386 2.64826C18.0386 1.96777 18.5914 1.41505 19.2718 1.41505L19.2742 1.41504ZM25.7818 5.63603C25.1013 5.63603 24.5486 6.18878 24.5486 6.86924C24.5486 7.1189 24.6229 7.35115 24.7506 7.5439L21.1602 11.3249H16.5732V11.8963H21.282C21.3715 11.8963 21.4481 11.8545 21.5015 11.7917L25.1639 7.9364C25.3451 8.04324 25.5587 8.10246 25.7852 8.10246C26.4657 8.10246 27.0184 7.54971 27.0184 6.86925C27.0184 6.18876 26.4656 5.63604 25.7852 5.63604L25.7818 5.63603Z" fill="#FF3D00"/>
</svg>
