<svg width="40" height="40" viewBox="0 0 40 40" fill="none" xmlns="http://www.w3.org/2000/svg">
<path fill-rule="evenodd" clip-rule="evenodd" d="M19.793 7.66656C25.8454 7.66656 30.752 12.5736 30.752 18.6256C30.752 21.769 29.4289 24.6025 27.3081 26.602C26.38 27.4771 25.8376 28.5432 25.6996 29.7661H25.6637H13.9237H13.8878C13.7479 28.5432 13.2073 27.4771 12.2792 26.602C10.1585 24.604 8.83532 21.7688 8.83532 18.6256C8.83343 12.5732 13.7406 7.66656 19.793 7.66656ZM35.8048 27.4962C35.9598 27.585 36.0127 27.7835 35.922 27.9385C35.8331 28.0935 35.6347 28.1464 35.4797 28.0557L31.2759 25.6287C31.1209 25.5399 31.068 25.3414 31.1587 25.1864C31.2476 25.0314 31.446 24.9785 31.601 25.0692L35.8048 27.4962ZM4.10256 28.0556C3.94757 28.1445 3.75099 28.0916 3.66215 27.9366C3.57331 27.7816 3.62623 27.585 3.78122 27.4961L7.98498 25.0692C8.13997 24.9803 8.33655 25.0333 8.42539 25.1883C8.51422 25.3432 8.4613 25.5398 8.30631 25.6287L4.10256 28.0556ZM2.98924 18.9489C2.80967 18.9489 2.66602 18.8034 2.66602 18.6257C2.66602 18.4461 2.81156 18.3025 2.98924 18.3025H6.3443C6.52387 18.3025 6.66752 18.448 6.66752 18.6257C6.66752 18.8053 6.52198 18.9489 6.3443 18.9489H2.98924ZM3.78121 9.75317C3.62622 9.66434 3.57329 9.46587 3.66402 9.31087C3.75285 9.15588 3.95133 9.10295 4.10632 9.19368L8.31007 11.6207C8.46506 11.7095 8.51799 11.908 8.42726 12.063C8.33842 12.2179 8.13995 12.2709 7.98496 12.1801L3.78121 9.75317ZM11.1111 4.23398C11.0223 4.07899 11.0752 3.88241 11.2302 3.79357C11.3852 3.70473 11.5818 3.75765 11.6706 3.91265L13.3491 6.81973C13.4379 6.97472 13.385 7.1713 13.23 7.26014C13.075 7.34898 12.8784 7.29606 12.7896 7.14106L11.1111 4.23398ZM19.4692 0.323221C19.4692 0.143656 19.6148 0 19.7925 0C19.972 0 20.1157 0.145543 20.1157 0.323221V5.17707C20.1157 5.35664 19.9701 5.50029 19.7925 5.50029C19.6129 5.50029 19.4692 5.35475 19.4692 5.17707V0.323221ZM27.9145 3.91079C28.0033 3.7558 28.2018 3.70287 28.3568 3.7936C28.5118 3.88244 28.5647 4.08091 28.474 4.2359L26.7955 7.14298C26.7066 7.29798 26.5082 7.3509 26.3532 7.26018C26.1982 7.17134 26.1453 6.97287 26.236 6.81788L27.9145 3.91079ZM35.4829 9.19578C35.6379 9.10695 35.8345 9.15987 35.9233 9.31486C36.0122 9.46986 35.9593 9.66644 35.8043 9.75528L31.6005 12.1823C31.4455 12.2711 31.2489 12.2182 31.1601 12.0632C31.0713 11.9082 31.1242 11.7116 31.2792 11.6228L35.4829 9.19578ZM36.5963 18.3006C36.7758 18.3006 36.9195 18.4461 36.9195 18.6238C36.9195 18.8034 36.7739 18.947 36.5963 18.947H33.2412C33.0616 18.947 32.918 18.8015 32.918 18.6238C32.918 18.4442 33.0635 18.3006 33.2412 18.3006H36.5963ZM13.9219 33.9533H25.6619C26.4577 33.9533 27.1079 34.6035 27.1079 35.3993C27.1079 36.195 26.4577 36.8453 25.6619 36.8453H13.9219C13.1261 36.8453 12.4759 36.195 12.4759 35.3993C12.4759 34.6035 13.128 33.9533 13.9219 33.9533ZM13.9219 30.413H25.6619C26.4577 30.413 27.1079 31.0632 27.1079 31.859C27.1079 32.6547 26.4577 33.305 25.6619 33.305H13.9219C13.1261 33.305 12.4759 32.6547 12.4759 31.859C12.4759 31.0632 13.128 30.413 13.9219 30.413ZM24.1667 37.4917L23.7528 38.6202C23.4428 39.4651 22.6772 40 21.7775 40H17.8025C16.9028 40 16.1373 39.4651 15.8273 38.6202L15.4134 37.4917H24.1667ZM20.6926 12.2615C20.6169 12.0744 20.4922 11.9231 20.3353 11.8192C20.1784 11.7133 19.9913 11.6547 19.7909 11.6547C19.5925 11.6547 19.4053 11.7133 19.2466 11.8192C19.0897 11.925 18.9649 12.0763 18.8893 12.2615L17.5492 15.539L14.0165 15.7999C13.8161 15.815 13.6346 15.8868 13.4853 16.004C13.336 16.1212 13.2226 16.28 13.1602 16.4709C13.0978 16.6618 13.0959 16.8584 13.147 17.0398C13.198 17.2213 13.3038 17.3857 13.4569 17.5162L16.1618 19.8052L15.3187 23.2472C15.2715 23.4419 15.2828 23.6366 15.3471 23.8143C15.4114 23.9919 15.5285 24.1488 15.6911 24.266C15.8518 24.3832 16.0389 24.4456 16.2279 24.4531C16.4151 24.4607 16.606 24.4116 16.7761 24.3057L19.789 22.4401L22.802 24.3057C22.9721 24.4116 23.1611 24.4607 23.3501 24.4531C23.5392 24.4456 23.7244 24.3832 23.887 24.266C24.0495 24.1488 24.1667 23.9901 24.231 23.8143C24.2952 23.6385 24.3085 23.4419 24.2593 23.2472L23.4163 19.8052L26.1211 17.5162C26.2742 17.3857 26.3801 17.2213 26.4311 17.0398C26.4821 16.8584 26.4802 16.6637 26.4179 16.4709C26.3593 16.2913 26.2534 16.1363 26.1154 16.0229C25.9775 15.8944 25.7488 15.815 25.5635 15.8018L22.0308 15.5409L20.6926 12.2615ZM21.511 15.97L20.0952 12.5053C20.0688 12.4411 20.0272 12.3919 19.9762 12.356C19.9251 12.322 19.8628 12.3031 19.7928 12.3031C19.7229 12.3031 19.6586 12.322 19.6095 12.356C19.5584 12.39 19.5168 12.4411 19.4904 12.5053L18.0841 15.9454C18.0463 16.0683 17.9348 16.1609 17.7987 16.1704L14.0656 16.4463C13.9957 16.452 13.9352 16.4747 13.8861 16.5125C13.8388 16.5503 13.801 16.6032 13.7783 16.6713C13.7575 16.7374 13.7556 16.8017 13.7727 16.8622C13.7897 16.9227 13.8256 16.9775 13.8785 17.021L16.7364 19.4385C16.829 19.5179 16.8706 19.6426 16.8423 19.7617L15.952 23.3965C15.935 23.4646 15.9388 23.5307 15.9615 23.5893C15.9823 23.6479 16.022 23.7008 16.0787 23.7405C16.1354 23.7821 16.1977 23.8029 16.2582 23.8067C16.3206 23.8086 16.3849 23.7916 16.4435 23.7556L19.6209 21.788C19.7229 21.7218 19.8552 21.718 19.9649 21.7842L23.146 23.7556C23.2046 23.7916 23.2689 23.8086 23.3313 23.8067C23.3917 23.8048 23.4541 23.7821 23.5108 23.7405C23.5656 23.7008 23.6053 23.6479 23.628 23.5893C23.6488 23.5307 23.6526 23.4646 23.6375 23.3965L22.751 19.7787C22.7151 19.6596 22.751 19.5254 22.8512 19.4385L25.7091 17.0209C25.762 16.9774 25.7979 16.9207 25.8149 16.8621C25.8319 16.8017 25.8301 16.7374 25.8093 16.6712C25.7904 16.6108 25.7563 16.5597 25.7148 16.5219C25.6524 16.4766 25.6032 16.452 25.5239 16.4463L21.7908 16.1703C21.6698 16.1628 21.5601 16.0872 21.511 15.97Z" fill="#FF3D00"/>
</svg>
