<svg width="40" height="40" viewBox="0 0 40 40" fill="none" xmlns="http://www.w3.org/2000/svg">
<path fill-rule="evenodd" clip-rule="evenodd" d="M17.8105 17.0632H21.3919C21.391 17.0554 21.391 17.0475 21.3919 17.0397V12.821C21.3914 12.7602 21.402 12.6999 21.4232 12.6429C21.4463 12.5782 21.482 12.5188 21.5283 12.4681C21.5746 12.4174 21.6306 12.3764 21.6929 12.3476C21.7553 12.3187 21.8227 12.3026 21.8913 12.3002C21.96 12.2978 22.0284 12.3091 22.0926 12.3334C22.2204 12.3764 22.3509 12.4109 22.4831 12.4368C22.6174 12.4575 22.7531 12.4685 22.8889 12.4697C23.1957 12.4705 23.4996 12.4107 23.7831 12.2936C24.0666 12.1766 24.3242 12.0046 24.541 11.7876C24.7578 11.5706 24.9295 11.3128 25.0463 11.0292C25.1631 10.7455 25.2227 10.4416 25.2215 10.1349C25.2205 9.51677 24.9744 8.92431 24.5371 8.48749C24.0998 8.05067 23.507 7.80518 22.8889 7.80489C22.753 7.8037 22.6172 7.8147 22.4831 7.83774C22.3626 7.85933 22.2436 7.88902 22.127 7.92659C22.0607 7.9587 21.9878 7.97482 21.9142 7.97364C21.7759 7.97354 21.6433 7.91863 21.5454 7.82095C21.4475 7.72326 21.3923 7.59076 21.3919 7.45246V3.2002H7.52889V17.0632H11.1099C11.0898 16.9156 11.0798 16.7668 11.08 16.6178C11.0789 16.1543 11.173 15.6956 11.3566 15.2701C11.5402 14.8445 11.8094 14.4613 12.1473 14.1442C12.4853 13.827 12.8849 13.5828 13.3212 13.4266C13.7575 13.2704 14.2213 13.2056 14.6838 13.2362C15.1462 13.2668 15.5974 13.3921 16.0094 13.6045C16.4213 13.8168 16.7852 14.1116 17.0784 14.4705C17.3717 14.8294 17.588 15.2447 17.7139 15.6908C17.8398 16.1368 17.8727 16.6039 17.8105 17.0632ZM32.0561 17.0632C31.9175 17.0645 31.785 17.1202 31.6872 17.2185C31.5894 17.3167 31.5342 17.4495 31.5335 17.5881C31.5337 17.6623 31.549 17.7358 31.5787 17.8039C31.6631 18.0497 31.7056 18.3081 31.7041 18.5681C31.7041 19.1866 31.4584 19.7798 31.021 20.2172C30.5836 20.6546 29.9904 20.9003 29.3719 20.9003C28.7533 20.9003 28.1601 20.6546 27.7228 20.2172C27.2854 19.7798 27.0397 19.1866 27.0397 18.5681C27.0393 18.4313 27.0506 18.2948 27.0736 18.16C27.097 18.0276 27.1317 17.8975 27.1774 17.771C27.2243 17.6399 27.2177 17.4956 27.1591 17.3693C27.1005 17.243 26.9946 17.1449 26.8642 17.096C26.8065 17.0791 26.7466 17.0711 26.6865 17.0725V17.0632H22.4372C22.4377 17.0553 22.4377 17.0475 22.4372 17.0397V13.4863C22.5868 13.505 22.7374 13.5143 22.8882 13.5143C23.7847 13.5143 24.6444 13.1582 25.2783 12.5242C25.9122 11.8903 26.2684 11.0306 26.2684 10.1341C26.2684 9.23764 25.9122 8.37788 25.2783 7.74398C24.6444 7.11008 23.7847 6.75396 22.8882 6.75396C22.7373 6.7555 22.5867 6.76647 22.4372 6.78681V3.2002H36.3013C36.283 7.84633 36.2819 12.4548 36.2871 17.0632H32.0561ZM7.14361 22.9421H2.89844V36.8002H16.7625V33.2184C16.613 33.2388 16.4624 33.2497 16.3116 33.2513C15.4151 33.2513 14.5553 32.8952 13.9214 32.2613C13.2875 31.6274 12.9314 30.7676 12.9314 29.8711C12.9314 28.9747 13.2875 28.1149 13.9214 27.481C14.5553 26.8471 15.4151 26.491 16.3116 26.491C16.4623 26.4909 16.6129 26.5003 16.7625 26.519V22.9421H12.5151C12.3764 22.9409 12.2438 22.8851 12.1459 22.7868C12.0481 22.6884 11.993 22.5555 11.9925 22.4168C11.9922 22.3426 12.0075 22.2693 12.0373 22.2014C12.0764 22.085 12.107 21.966 12.1287 21.8452C12.1519 21.7104 12.1634 21.5739 12.1631 21.4372C12.1553 20.8237 11.9062 20.238 11.4696 19.8069C11.033 19.3758 10.4442 19.1341 9.83068 19.1341C9.21715 19.1341 8.62832 19.3758 8.19176 19.8069C7.75519 20.238 7.50604 20.8237 7.49828 21.4372C7.49819 21.5739 7.50968 21.7104 7.53262 21.8452C7.55643 21.9775 7.59102 22.1076 7.63604 22.2342C7.65982 22.2989 7.67059 22.3676 7.66773 22.4364C7.66486 22.5052 7.64842 22.5728 7.61935 22.6353C7.59027 22.6977 7.54914 22.7538 7.49831 22.8003C7.44749 22.8468 7.38797 22.8828 7.32318 22.9062C7.26547 22.9246 7.20529 22.934 7.14473 22.9342V22.9436L7.14361 22.9421ZM36.2879 18.1134H32.7203C32.7408 18.2641 32.7509 18.416 32.7505 18.5681C32.7552 19.015 32.6713 19.4584 32.5035 19.8726C32.3357 20.2869 32.0875 20.6637 31.7731 20.9814C31.4588 21.2991 31.0845 21.5513 30.6721 21.7234C30.2596 21.8955 29.8171 21.9841 29.3702 21.9841C28.9233 21.9841 28.4808 21.8955 28.0683 21.7234C27.6559 21.5513 27.2816 21.2991 26.9673 20.9814C26.6529 20.6637 26.4047 20.2869 26.2369 19.8726C26.0691 19.4584 25.9852 19.015 25.9899 18.5681C25.9903 18.416 26.0004 18.2641 26.0201 18.1134H22.4391V22.3608C22.4392 22.4448 22.419 22.5276 22.3803 22.6022C22.3416 22.6768 22.2855 22.7409 22.2168 22.7892C22.148 22.8375 22.0686 22.8685 21.9853 22.8795C21.9021 22.8906 21.8173 22.8815 21.7383 22.8528C21.6125 22.8034 21.4813 22.7689 21.3475 22.7498C21.2137 22.7252 21.078 22.7127 20.942 22.7125C20.3279 22.7202 19.7417 22.9696 19.3102 23.4066C18.8787 23.8436 18.6367 24.433 18.6367 25.0471C18.6367 25.6612 18.8787 26.2506 19.3102 26.6876C19.7417 27.1246 20.3279 27.374 20.942 27.3817C21.0779 27.3792 21.2134 27.3668 21.3475 27.3444C21.4685 27.3218 21.5878 27.2905 21.7044 27.2507C21.7722 27.2244 21.8441 27.2101 21.9168 27.2085C21.9856 27.2085 22.0538 27.2221 22.1174 27.2485C22.181 27.275 22.2387 27.3137 22.2873 27.3625C22.3359 27.4113 22.3743 27.4693 22.4004 27.533C22.4265 27.5967 22.4398 27.6649 22.4395 27.7338V31.9808H36.3013C36.3013 27.5318 36.298 25.0331 36.2942 22.5295C36.292 21.0576 36.2899 19.5855 36.2879 18.1134Z" fill="#FF3D00"/>
</svg>
