<svg width="40" height="40" viewBox="0 0 40 40" fill="none" xmlns="http://www.w3.org/2000/svg">
<path d="M27.4051 21.3621C27.3039 21.3217 27.2138 21.2578 27.1423 21.1756C27.0707 21.0934 27.0198 20.9954 26.9937 20.8897C26.8205 20.1917 26.5431 19.5239 26.1709 18.9087C26.1147 18.8157 26.0814 18.7107 26.0738 18.6023C26.0662 18.494 26.0844 18.3853 26.127 18.2854L26.7523 16.8228C26.4597 16.4808 26.1413 16.1617 25.7999 15.8684L24.336 16.4937C24.236 16.5363 24.1274 16.5545 24.019 16.5469C23.9107 16.5393 23.8057 16.506 23.7127 16.4498C23.0975 16.0775 22.4296 15.8001 21.7317 15.627C21.6261 15.6008 21.5282 15.5498 21.4462 15.4783C21.3641 15.4067 21.3003 15.3167 21.26 15.2156L20.6703 13.7407C20.2215 13.7036 19.7703 13.7036 19.3215 13.7407L18.7312 15.2163C18.6908 15.3174 18.627 15.4074 18.545 15.4789C18.4629 15.5505 18.365 15.6015 18.2594 15.6277C17.5615 15.8008 16.8936 16.0782 16.2784 16.4505C16.1855 16.5067 16.0805 16.5399 15.9721 16.5476C15.8637 16.5552 15.7551 16.537 15.6552 16.4944L14.1926 15.8697C13.8509 16.1625 13.5321 16.4809 13.2388 16.8222L13.8641 18.2861C13.9067 18.386 13.925 18.4947 13.9173 18.603C13.9097 18.7114 13.8764 18.8164 13.8203 18.9094C13.448 19.5246 13.1706 20.1924 12.9974 20.8903C12.9713 20.9961 12.9204 21.0941 12.8488 21.1763C12.7773 21.2584 12.6872 21.3224 12.586 21.3628L11.1104 21.9532C11.07 22.4021 11.07 22.8537 11.1104 23.3026L12.586 23.893C12.6872 23.9334 12.7773 23.9973 12.8488 24.0795C12.9204 24.1616 12.9713 24.2596 12.9974 24.3654C13.1706 25.0633 13.448 25.7311 13.8203 26.3464C13.8764 26.4393 13.9097 26.5443 13.9173 26.6527C13.925 26.7611 13.9067 26.8697 13.8641 26.9696L13.2388 28.4322C13.5319 28.7738 13.8503 29.0928 14.1912 29.3867L15.6552 28.7613C15.7551 28.7188 15.8637 28.7005 15.9721 28.7082C16.0805 28.7158 16.1855 28.7491 16.2784 28.8052C16.8936 29.1775 17.5615 29.4549 18.2594 29.6281C18.365 29.6543 18.4629 29.7052 18.545 29.7768C18.627 29.8483 18.6908 29.9384 18.7312 30.0395L19.3208 31.5144C19.7697 31.5511 20.2208 31.5511 20.6696 31.5144L21.26 30.0388C21.3003 29.9377 21.3641 29.8476 21.4462 29.7761C21.5282 29.7046 21.6261 29.6536 21.7317 29.6274C22.4296 29.4542 23.0975 29.1768 23.7127 28.8045C23.8057 28.7484 23.9107 28.7151 24.019 28.7075C24.1274 28.6998 24.236 28.7181 24.336 28.7607L25.7985 29.3853C26.1405 29.0929 26.4594 28.7745 26.7523 28.4329L26.127 26.969C26.0844 26.869 26.0662 26.7604 26.0738 26.652C26.0814 26.5437 26.1147 26.4387 26.1709 26.3457C26.5431 25.7305 26.8205 25.0626 26.9937 24.3647C27.0198 24.2589 27.0707 24.1609 27.1423 24.0788C27.2138 23.9966 27.3039 23.9327 27.4051 23.8923L28.8807 23.3019C28.9212 22.853 28.9212 22.4014 28.8807 21.9525L27.4051 21.3621ZM19.9997 27.427C19.0504 27.427 18.1224 27.1455 17.333 26.6181C16.5437 26.0907 15.9285 25.341 15.5652 24.464C15.2019 23.5869 15.1069 22.6219 15.2921 21.6908C15.4773 20.7597 15.9344 19.9045 16.6057 19.2332C17.277 18.5619 18.1322 18.1048 19.0633 17.9196C19.9943 17.7344 20.9594 17.8294 21.8365 18.1927C22.7135 18.556 23.4632 19.1712 23.9906 19.9605C24.518 20.7499 24.7995 21.6779 24.7995 22.6272C24.7979 23.8997 24.2916 25.1196 23.3918 26.0194C22.4921 26.9191 21.2722 27.4254 19.9997 27.427Z" fill="#FF3D00"/>
<path d="M39.2005 6.85656C39.2002 6.56954 39.14 6.28575 39.0238 6.0233C38.9076 5.76084 38.738 5.52549 38.5258 5.33228C38.3134 5.13879 38.0627 4.9923 37.7898 4.90239C37.517 4.81247 37.2283 4.78115 36.9425 4.81047C36.4215 4.87965 35.9442 5.13835 35.6018 5.53715C35.2594 5.93596 35.0759 6.44692 35.0864 6.97244V30.1699C35.6801 29.7255 36.4018 29.4853 37.1434 29.4853C37.8851 29.4853 38.6068 29.7255 39.2005 30.1699V6.85656Z" fill="#FF3D00"/>
<path d="M37.1422 30.8558C36.8343 30.8543 36.5301 30.9228 36.2525 31.056C35.9749 31.1893 35.7312 31.3839 35.5398 31.6251C35.4059 31.7941 35.2227 31.9172 35.0157 31.9774C34.8087 32.0376 34.588 32.0319 34.3844 31.9611C34.1868 31.8922 34.0158 31.7631 33.8954 31.5918C33.7751 31.4206 33.7116 31.2159 33.7138 31.0066V10.2852H6.28628V31.0066C6.28847 31.2159 6.22493 31.4206 6.10462 31.5918C5.98431 31.7631 5.8133 31.8922 5.61568 31.9611C5.41314 32.0316 5.19375 32.0377 4.98762 31.9785C4.78149 31.9193 4.59872 31.7978 4.46441 31.6306C4.27299 31.388 4.02886 31.1921 3.7505 31.0579C3.47214 30.9236 3.16688 30.8545 2.85784 30.8558C2.31228 30.8558 1.78906 31.0725 1.40328 31.4583C1.01751 31.8441 0.800781 32.3673 0.800781 32.9128C0.800781 33.4584 1.01751 33.9816 1.40328 34.3674C1.78906 34.7532 2.31228 34.9699 2.85784 34.9699H37.1422C37.6878 34.9699 38.211 34.7532 38.5968 34.3674C38.9826 33.9816 39.1993 33.4584 39.1993 32.9128C39.1993 32.3673 38.9826 31.8441 38.5968 31.4583C38.211 31.0725 37.6878 30.8558 37.1422 30.8558ZM30.2415 23.5189C30.2173 23.7449 30.132 23.9601 29.9948 24.1413C29.8575 24.3225 29.6735 24.4629 29.4625 24.5475L28.2324 25.0391C28.0593 25.6318 27.822 26.2039 27.5248 26.7451L28.0438 27.9615C28.1376 28.1728 28.1696 28.4063 28.1363 28.635C28.1029 28.8637 28.0055 29.0783 27.8553 29.254C27.4799 29.7 27.067 30.1129 26.621 30.4883C26.4448 30.6381 26.2299 30.7351 26.001 30.7682C25.7722 30.8013 25.5386 30.7692 25.3271 30.6754L24.1142 30.1564C23.5729 30.4539 23.0009 30.6916 22.4082 30.8654L21.92 32.09C21.8346 32.3024 21.6928 32.4874 21.5098 32.6248C21.3267 32.7623 21.1096 32.8469 20.8818 32.8696C20.5968 32.8977 20.3105 32.9114 20.024 32.9108C19.7271 32.9108 19.4206 32.8971 19.1162 32.8696C18.8893 32.8472 18.6728 32.7632 18.4902 32.6266C18.3076 32.49 18.1658 32.3062 18.0801 32.0948L17.5885 30.8654C16.997 30.6914 16.4261 30.4537 15.8859 30.1564L14.6702 30.6761C14.459 30.7698 14.2257 30.8018 13.9972 30.7686C13.7686 30.7353 13.5541 30.6381 13.3783 30.4883C12.9325 30.1128 12.5196 29.6999 12.1441 29.254C11.9943 29.0782 11.8973 28.8636 11.8643 28.635C11.8313 28.4064 11.8636 28.1732 11.9576 27.9622L12.476 26.7465C12.1787 26.2052 11.9415 25.6332 11.7684 25.0405L10.5375 24.5475C10.3268 24.4625 10.143 24.322 10.0058 24.1409C9.86867 23.9598 9.78322 23.7448 9.7586 23.5189C9.70014 22.9261 9.70014 22.329 9.7586 21.7361C9.78278 21.5101 9.86807 21.295 10.0053 21.1137C10.1425 20.9325 10.3265 20.7921 10.5375 20.7076L11.7677 20.216C11.9401 19.6245 12.1765 19.0537 12.4726 18.5134L11.9535 17.297C11.8597 17.0857 11.8277 16.8522 11.8611 16.6235C11.8944 16.3948 11.9918 16.1802 12.1421 16.0045C12.5172 15.5584 12.9302 15.1454 13.3763 14.7702C13.5525 14.6204 13.7674 14.5234 13.9963 14.4903C14.2252 14.4572 14.4588 14.4893 14.6702 14.583L15.8859 15.0987C16.4272 14.8012 16.9992 14.5634 17.5919 14.3897L18.0801 13.165C18.1654 12.9527 18.3073 12.7677 18.4903 12.6303C18.6733 12.4928 18.8905 12.4081 19.1182 12.3854C19.7055 12.3298 20.2966 12.3298 20.8839 12.3854C21.1108 12.4078 21.3273 12.4919 21.5099 12.6285C21.6925 12.765 21.8343 12.9489 21.92 13.1602L22.4116 14.3897C23.0031 14.5637 23.574 14.8014 24.1142 15.0987L25.3299 14.5789C25.541 14.4853 25.7743 14.4533 26.0029 14.4865C26.2315 14.5198 26.446 14.6169 26.6217 14.7668C27.0677 15.1421 27.4807 15.555 27.856 16.001C28.0058 16.1768 28.1028 16.3914 28.1358 16.62C28.1688 16.8486 28.1364 17.0819 28.0425 17.2929L27.5275 18.5134C27.8248 19.0546 28.062 19.6267 28.2351 20.2194L29.4625 20.7076C29.6749 20.7931 29.8598 20.935 29.9973 21.1179C30.1349 21.3009 30.2198 21.518 30.2428 21.7457C30.3002 22.3354 30.2998 22.9293 30.2415 23.5189Z" fill="#FF3D00"/>
<path d="M0.800781 30.1702C1.39423 29.7252 2.11603 29.4846 2.85784 29.4846C3.59966 29.4846 4.32146 29.7252 4.91491 30.1702V6.97275C4.92557 6.44722 4.74226 5.93618 4.39999 5.53724C4.05772 5.13831 3.58048 4.87944 3.05944 4.8101C2.99087 4.80324 2.9223 4.79981 2.85373 4.79981C2.34456 4.79859 1.85346 4.98847 1.47755 5.3319C1.26486 5.52502 1.0948 5.76039 0.978269 6.02298C0.861733 6.28557 0.801282 6.56959 0.800781 6.85687V30.1702Z" fill="#FF3D00"/>
<path d="M20.0007 26.0561C21.8942 26.0561 23.4291 24.5211 23.4291 22.6277C23.4291 20.7342 21.8942 19.1992 20.0007 19.1992C18.1072 19.1992 16.5723 20.7342 16.5723 22.6277C16.5723 24.5211 18.1072 26.0561 20.0007 26.0561Z" fill="#FF3D00"/>
</svg>
