<svg width="40" height="40" viewBox="0 0 40 40" fill="none" xmlns="http://www.w3.org/2000/svg">
<path d="M35.5717 16.4804C34.7105 16.4772 33.9437 15.9288 33.6608 15.1148C33.5021 14.6669 33.3198 14.227 33.1171 13.798C32.7415 13.0217 32.8955 12.0914 33.5021 11.477C33.8824 11.0967 34.0977 10.5813 34.0977 10.0438C34.0977 9.50644 33.8824 8.99099 33.5021 8.61071L31.3901 6.49871C30.5965 5.71144 29.3174 5.71144 28.5238 6.49871C28.1451 6.87428 27.6328 7.08641 27.0985 7.08484C26.7889 7.08484 26.4825 7.0157 26.2028 6.8837C25.7738 6.68099 25.3338 6.4987 24.8859 6.33997C24.072 6.05712 23.5235 5.29182 23.5204 4.42912C23.5188 3.30868 22.6121 2.40197 21.4917 2.4004H18.5091C17.9701 2.39883 17.4547 2.61254 17.0728 2.99284C16.6925 3.3747 16.4788 3.89014 16.4804 4.42912C16.4772 5.29182 15.9288 6.05713 15.1148 6.33997C14.6669 6.49869 14.227 6.68097 13.798 6.8837C13.0217 7.25927 12.0914 7.10527 11.477 6.4987C11.0967 6.11842 10.5813 5.90312 10.0438 5.90312C9.50644 5.90312 8.99099 6.11841 8.61071 6.4987L6.49872 8.6107C5.71144 9.40429 5.71144 10.6834 6.49872 11.477C6.87586 11.8557 7.08641 12.368 7.08484 12.9023C7.08484 13.2118 7.0157 13.5182 6.8837 13.798C6.68099 14.227 6.4987 14.667 6.33997 15.1148C6.05712 15.9288 5.29025 16.4773 4.42912 16.4804C3.30868 16.482 2.40197 17.3887 2.4004 18.5091V21.4933V21.4917C2.39883 22.0307 2.61254 22.5461 2.99284 22.928C3.37313 23.3083 3.89014 23.522 4.42912 23.5204C5.29025 23.5236 6.05713 24.072 6.33997 24.886C6.49869 25.3338 6.68097 25.7738 6.8837 26.2028C7.25927 26.9791 7.10527 27.9094 6.4987 28.5238C6.11842 28.9041 5.90312 29.4195 5.90312 29.9569C5.90312 30.4943 6.11841 31.0098 6.4987 31.3901L8.6107 33.5021C9.40429 34.2893 10.6834 34.2893 11.477 33.5021C11.8557 33.1265 12.368 32.9144 12.9023 32.9159C13.2118 32.9159 13.5183 32.9851 13.798 33.1171C14.227 33.3198 14.667 33.5021 15.1148 33.6608C15.9288 33.9437 16.4773 34.709 16.4804 35.5717C16.482 36.6921 17.3887 37.5988 18.5091 37.6004H21.4917C22.0307 37.602 22.5461 37.3882 22.928 37.0079C23.3083 36.6261 23.522 36.1106 23.5204 35.5717C23.5236 34.709 24.072 33.9437 24.886 33.6608C25.3338 33.5021 25.7738 33.3198 26.2028 33.1171C26.9791 32.7415 27.9094 32.8955 28.5238 33.5021C28.9041 33.8824 29.4195 34.0977 29.9569 34.0977C30.4943 34.0977 31.0098 33.8824 31.3901 33.5021L33.5021 31.3901C34.2893 30.5965 34.2893 29.3174 33.5021 28.5238C33.1265 28.1451 32.9144 27.6328 32.9159 27.0985C32.9159 26.7889 32.9851 26.4825 33.1171 26.2028C33.3198 25.7738 33.5021 25.3338 33.6608 24.8859C33.9437 24.072 34.7105 23.5235 35.5717 23.5204C36.6921 23.5188 37.5988 22.6121 37.6004 21.4917V18.5091C37.602 17.9701 37.3882 17.4547 37.0079 17.0728C36.6277 16.6925 36.1106 16.4788 35.5717 16.4804ZM29.6963 22.6655H29.6979C28.7597 26.0786 26.0962 28.7484 22.6844 29.693C19.2729 30.639 15.6147 29.7197 13.0545 27.2746C10.4947 24.831 9.40727 21.2198 10.1945 17.7674C10.9802 14.3166 13.5244 11.532 16.8906 10.4382L17.4013 9.49059H17.4028C17.9167 8.53516 18.9145 7.93958 20.0004 7.93958C21.0862 7.93958 22.0825 8.53516 22.5979 9.49059L23.1102 10.4382C25.5695 11.2365 27.6279 12.954 28.8552 15.231C30.0825 17.508 30.3842 20.1714 29.6975 22.6652L29.6963 22.6655Z" fill="#FF3D00"/>
<path d="M21.4914 10.0865C21.4521 10.0126 21.4081 9.9435 21.3578 9.87592C21.1802 9.63392 20.9398 9.44536 20.6616 9.33219C20.2389 9.1562 19.7612 9.1562 19.3385 9.33219C19.0603 9.44534 18.8199 9.63391 18.6423 9.87592C18.592 9.9435 18.548 10.0126 18.5088 10.0865L17.7545 11.4772L11.6699 22.7915C12.4493 25.1391 14.1858 27.0484 16.4471 28.0493C18.7099 29.0503 21.2902 29.0503 23.553 28.0493C25.8143 27.0483 27.5507 25.139 28.3301 22.7915L22.2456 11.4772L21.4914 10.0865ZM20.0001 25.2381C19.5758 25.2381 19.194 24.9836 19.0321 24.5923C18.8703 24.201 18.9598 23.75 19.26 23.4499C19.5585 23.1513 20.0096 23.0617 20.4008 23.2236C20.7921 23.3854 21.0483 23.7673 21.0483 24.1916C21.0467 24.7698 20.5784 25.2381 20.0001 25.2381ZM21.4929 18.129L21.0325 21.814V21.8156C20.9665 22.3341 20.525 22.7238 20.0017 22.7238H19.9985C19.4752 22.7238 19.0337 22.3341 18.9677 21.814L18.5073 18.129C18.4538 17.7015 18.5874 17.271 18.8718 16.9473C19.1578 16.6235 19.568 16.4381 20.0001 16.4381C20.4322 16.4381 20.8424 16.6236 21.1284 16.9473C21.4128 17.271 21.5464 17.7015 21.4929 18.129Z" fill="#FF3D00"/>
</svg>
